<svg width="800" height="800" viewBox="0 0 800 800" fill="none" xmlns="http://www.w3.org/2000/svg">
<path d="M500 400C500 419.778 494.135 439.112 483.147 455.557C472.159 472.002 456.541 484.819 438.268 492.388C419.996 499.957 399.889 501.937 380.491 498.079C361.093 494.22 343.275 484.696 329.289 470.711C315.304 456.725 305.78 438.907 301.921 419.509C298.063 400.111 300.043 380.004 307.612 361.732C315.181 343.459 327.998 327.841 344.443 316.853C360.888 305.865 380.222 300 400 300C426.512 300.03 451.93 310.576 470.677 329.323C489.424 348.07 499.97 373.488 500 400ZM712.5 262.5V537.5C712.447 583.897 693.993 628.378 661.186 661.186C628.378 693.993 583.897 712.447 537.5 712.5H262.5C216.103 712.447 171.622 693.993 138.814 661.186C106.007 628.378 87.5525 583.897 87.5 537.5V262.5C87.5525 216.103 106.007 171.622 138.814 138.814C171.622 106.007 216.103 87.5525 262.5 87.5H537.5C583.897 87.5525 628.378 106.007 661.186 138.814C693.993 171.622 712.447 216.103 712.5 262.5ZM550 400C550 370.333 541.203 341.332 524.72 316.664C508.238 291.997 484.811 272.771 457.403 261.418C429.994 250.065 399.834 247.094 370.736 252.882C341.639 258.67 314.912 272.956 293.934 293.934C272.956 314.912 258.67 341.639 252.882 370.736C247.094 399.834 250.065 429.994 261.418 457.403C272.771 484.811 291.997 508.238 316.664 524.72C341.332 541.203 370.333 550 400 550C439.769 549.955 477.896 534.137 506.016 506.016C534.137 477.896 549.955 439.769 550 400ZM600 237.5C600 230.083 597.801 222.833 593.68 216.666C589.56 210.499 583.703 205.693 576.851 202.855C569.998 200.016 562.458 199.274 555.184 200.721C547.91 202.167 541.228 205.739 535.984 210.983C530.739 216.228 527.167 222.91 525.721 230.184C524.274 237.458 525.016 244.998 527.855 251.851C530.693 258.703 535.499 264.56 541.666 268.68C547.833 272.801 555.083 275 562.5 275C572.446 275 581.984 271.049 589.016 264.017C596.049 256.984 600 247.446 600 237.5Z" fill="#0D3BFF"/>
</svg>
