<svg width="75" height="24" viewBox="0 0 75 24" fill="none" xmlns="http://www.w3.org/2000/svg">
<path d="M37.9909 0.00130111L37.974 8.09294C39.2467 6.40122 41.0672 5.55405 43.1246 5.56967C45.7013 5.59049 47.9382 6.90092 49.237 9.14571C51.1889 12.4719 51.0484 17.4026 48.6904 20.531C47.4229 22.2123 45.618 23.1727 43.5176 23.3171C41.1609 23.4798 39.0203 22.427 37.6252 20.5557L37.6005 23.213L33.5078 23.1961L33.4896 0H37.9896L37.9909 0.00130111ZM45.6167 16.778C46.1814 15.1995 46.1411 13.4713 45.5737 11.9696C44.9725 10.3781 43.4187 9.44111 41.7817 9.51919C40.1446 9.59727 38.8641 10.6019 38.3371 12.1947C37.8517 13.66 37.8621 15.2919 38.3878 16.7559C38.9617 18.3565 40.3958 19.3624 42.0302 19.3507C43.5671 19.3403 45.0428 18.3838 45.6167 16.778Z" fill="#0D3BFF"/>
<path d="M4.50128 0.00170898L8.25951 14.38L12.9729 0.00170898H17.3414L9.91609 23.1926L5.4044 23.2134L8.22046 14.4907L3.8311 14.4633L0 0.133143V0.00170898H4.50128Z" fill="#0D3BFF"/>
<path d="M61.4878 23.2326C57.5695 23.7818 53.9701 21.8727 52.3629 18.3579C51.1371 15.6784 51.2191 12.5852 52.6284 9.99817C54.1431 7.21724 56.9358 5.59969 60.1006 5.56716C63.4945 5.53202 66.481 7.32785 67.9593 10.3938C69.2762 13.1265 69.1812 16.3551 67.6912 19.002C66.3873 21.3171 64.1985 22.8513 61.4891 23.2313L61.4878 23.2326ZM63.8029 16.9576C64.4509 15.4442 64.447 13.7551 63.9356 12.2586C63.3734 10.615 61.929 9.57784 60.2893 9.54921C58.6496 9.52058 57.1232 10.4823 56.5076 12.1037C55.8921 13.7252 55.9273 15.5067 56.6222 17.0474C57.3171 18.5882 58.7264 19.4119 60.2906 19.382C61.8548 19.3521 63.1535 18.4711 63.8029 16.9576Z" fill="#0D3BFF"/>
<path d="M23.8834 23.1807C20.2644 23.2483 17.1815 21.2508 15.7878 17.9975C14.7624 15.6044 14.7702 12.9015 15.8217 10.5227C17.2414 7.30972 20.3125 5.37335 23.83 5.4228C27.0326 5.46704 29.8408 7.12753 31.3334 9.95661C32.6998 12.5462 32.7545 15.6369 31.5065 18.2877C30.1024 21.2716 27.2616 23.1182 23.8834 23.1807ZM27.38 16.6832C27.9851 15.1554 27.9643 13.4507 27.406 11.9776C26.7996 10.3795 25.3617 9.41136 23.7571 9.40615C22.1708 9.40095 20.7159 10.2976 20.0822 11.8396C19.4484 13.3817 19.4341 15.2986 20.129 16.8732C20.8239 18.4478 22.2723 19.2923 23.8847 19.2377C25.3877 19.1869 26.7606 18.25 27.38 16.6845V16.6832Z" fill="#0D3BFF"/>
<path d="M72.1885 23.3223C70.1975 23.4733 68.7881 21.926 68.9365 20.0378C69.0627 18.4294 70.2586 17.2959 71.8762 17.2634C73.6056 17.2295 74.8744 18.4606 74.9317 20.1796C74.985 21.8076 73.9232 23.1909 72.1898 23.3223H72.1885Z" fill="#0D3BFF"/>
</svg>
