<svg width="1225" height="307" viewBox="0 0 1225 307" fill="none" xmlns="http://www.w3.org/2000/svg">
<g opacity="0.6">
<path d="M0 153.468C0 130.162 18.8936 111.268 42.2 111.268C65.5064 111.268 84.4 130.162 84.4 153.468C84.4 176.774 65.5064 195.668 42.2 195.668C18.8936 195.668 0 176.774 0 153.468Z" fill="#EDEDED"/>
<g clip-path="url(#clip0_1476_1822)">
<path d="M43.7987 141.692C43.2689 140.785 42.7391 139.878 42.2106 138.971C38.8326 144.765 35.4419 150.552 32.0513 156.339C29.9204 159.976 27.7895 163.613 25.6618 167.252C25.5401 167.467 25.4393 167.694 25.3387 167.92L25.3201 167.962C28.8217 167.967 32.3233 167.968 35.8249 167.947C36.2292 167.254 36.6309 166.56 37.0327 165.866C37.7043 164.705 38.376 163.545 39.0594 162.391C41.2478 158.698 43.3575 154.96 45.4672 151.222C46.102 150.097 46.7367 148.972 47.3736 147.849C46.1927 145.79 44.9957 143.741 43.7987 141.692Z" fill="#AE285D"/>
<path d="M44.541 157.005C43.7646 157.006 42.9883 157.008 42.2119 157.008C43.4156 159.169 44.665 161.303 45.9146 163.437C46.7947 164.94 47.6749 166.444 48.5392 167.957C49.4695 167.957 50.3997 167.959 51.3299 167.96C53.9133 167.964 56.4963 167.968 59.0801 167.955C57.9195 165.908 56.7321 163.877 55.5447 161.845C54.6102 160.246 53.6756 158.647 52.754 157.04C50.0164 156.995 47.2787 157 44.541 157.005Z" fill="#AE285D"/>
</g>
</g>
<g opacity="0.8">
<path d="M98.4 153.468C98.4 125.743 120.875 103.268 148.6 103.268C176.325 103.268 198.8 125.743 198.8 153.468C198.8 181.193 176.325 203.668 148.6 203.668C120.875 203.668 98.4 181.193 98.4 153.468Z" fill="#EDEDED"/>
<g clip-path="url(#clip1_1476_1822)">
<path fill-rule="evenodd" clip-rule="evenodd" d="M138.385 154.263H142.612L140.497 149.234L138.385 154.263Z" fill="#F47920"/>
<path fill-rule="evenodd" clip-rule="evenodd" d="M162.555 154.002C162.555 158.618 159.962 160.881 155.873 160.881C151.783 160.881 149.274 158.594 149.274 154.11V146.946C149.274 146.011 150.017 145.268 150.952 145.268C151.887 145.268 152.626 146.011 152.626 146.946V154.022C152.626 156.506 153.866 157.791 155.913 157.791C157.96 157.791 159.2 156.551 159.2 154.13V146.946C159.2 146.011 159.938 145.268 160.878 145.268C161.817 145.268 162.555 146.011 162.555 146.946V154.002ZM146.489 160.773C145.706 160.773 145.18 160.315 144.875 159.617L143.852 157.221H137.145L136.078 159.725C135.793 160.38 135.227 160.769 134.532 160.769C133.661 160.769 132.987 160.071 132.987 159.2C132.987 158.963 133.075 158.722 133.184 158.481L138.494 146.485C138.863 145.654 139.537 145.156 140.452 145.156H140.649C141.564 145.156 142.218 145.658 142.588 146.485L147.902 158.481C148.01 158.722 148.078 158.939 148.078 159.155C148.078 160.05 147.38 160.769 146.489 160.769V160.773ZM148.6 133.388C137.51 133.388 128.52 142.379 128.52 153.468C128.52 164.558 137.51 173.548 148.6 173.548C159.69 173.548 168.68 164.558 168.68 153.468C168.68 142.379 159.686 133.388 148.596 133.388H148.6Z" fill="#F47920"/>
</g>
</g>
<path d="M212.8 153.468C212.8 122.153 238.186 96.7671 269.501 96.7671C300.816 96.7671 326.202 122.153 326.202 153.468C326.202 184.783 300.816 210.169 269.501 210.169C238.186 210.169 212.8 184.783 212.8 153.468Z" fill="#EDEDED"/>
<g clip-path="url(#clip2_1476_1822)">
<path d="M266.537 171.032L271.848 164.02L267.855 163.472L265.61 166.178C265.121 166.768 264.306 166.414 263.881 166.111L252.374 157.903C251.939 157.593 252.307 157.048 252.758 156.973L264.288 155.076L265.665 152.729L247.664 155.693C246.993 155.801 246.483 156.567 247.095 157.069L263.979 170.931C264.575 171.421 265.854 171.936 266.537 171.032Z" fill="#FFB600"/>
<path d="M277.766 136.24L291.62 161.483C293.033 164.056 291.613 166.736 289.191 166.403L273.131 164.197L274.724 161.48L286.313 162.977C287.518 163.142 287.392 162.314 286.884 161.386L277.11 141.01C276.904 140.635 276.206 140.439 275.97 140.844L265.151 159.275C264.83 159.821 264.741 160.185 265.437 160.28L270.013 160.871L267.855 163.472L262.045 162.674C260.961 162.524 260.488 161.549 261.129 160.456L275.066 136.713C275.693 135.646 276.89 134.646 277.766 136.24Z" fill="#019EEC"/>
<path d="M273.857 161.368L274.981 159.884L279.937 153.341C281.04 151.886 280.808 150.238 279.311 150.483L270.569 151.922L269.455 154.226L274.143 153.454C275.153 153.288 275.354 154.436 274.565 155.386L271.389 159.214L270.013 160.871L266.212 165.452L269.339 167.332L273.857 161.368Z" fill="#FFB500"/>
</g>
<rect x="339.561" y="0.64063" width="545.809" height="305.655" rx="36.6406" fill="url(#paint0_linear_1476_1822)"/>
<rect x="339.561" y="0.64063" width="545.809" height="305.655" rx="36.6406" stroke="#CBCEFF" stroke-width="1.28124"/>
<path d="M388.659 31.6206L389.234 36.1927C390.102 43.0924 395.536 48.526 402.435 49.394L407.009 49.9686L402.435 50.5433C395.536 51.4113 390.102 56.8449 389.234 63.7446L388.659 68.3167L388.085 63.7446C387.217 56.8449 381.783 51.4102 374.883 50.5433L370.311 49.9686L374.883 49.394C381.783 48.526 387.217 43.0924 388.085 36.1927L388.659 31.6206Z" fill="#0D3BFE"/>
<path d="M401.701 31.6206L401.882 33.0573C402.155 35.2254 403.862 36.9329 406.03 37.2056L407.467 37.3862L406.03 37.5668C403.862 37.8395 402.155 39.5469 401.882 41.7151L401.701 43.1518L401.521 41.7151C401.248 39.5469 399.541 37.8392 397.373 37.5668L395.936 37.3862L397.373 37.2056C399.541 36.9329 401.248 35.2254 401.521 33.0573L401.701 31.6206Z" fill="#0D3BFE"/>
<path d="M427.58 58.9688L433.392 41.7873H438.143L443.954 58.9688H440.057L438.904 55.4633H432.608L431.455 58.9688H427.58ZM433.599 52.3499H437.912L435.283 44.2319H436.252L433.599 52.3499ZM445.74 58.9688V41.7873H449.315V58.9688H445.74ZM456.505 58.9688V41.7873H463.078C464.262 41.7873 465.307 41.9949 466.215 42.41C467.137 42.8251 467.86 43.4401 468.382 44.255C468.905 45.0699 469.167 46.0769 469.167 47.2761C469.167 48.4446 468.897 49.444 468.359 50.2743C467.821 51.0891 467.099 51.7041 466.191 52.1192L470.112 58.9688H466.099L461.856 51.3812L464.162 52.7419H460.08V58.9688H456.505ZM460.08 49.6285H463.101C463.609 49.6285 464.047 49.5286 464.416 49.3287C464.785 49.1288 465.069 48.8521 465.269 48.4985C465.484 48.1448 465.592 47.7374 465.592 47.2761C465.592 46.7995 465.484 46.3844 465.269 46.0308C465.069 45.6772 464.785 45.4004 464.416 45.2005C464.047 45.0007 463.609 44.9007 463.101 44.9007H460.08V49.6285ZM477.001 59.2455C475.664 59.2455 474.503 58.9534 473.519 58.3691C472.535 57.7695 471.774 56.97 471.236 55.9706C470.698 54.9713 470.428 53.8643 470.428 52.6497C470.428 51.3889 470.705 50.2666 471.259 49.2826C471.828 48.2986 472.589 47.5221 473.542 46.9533C474.495 46.3844 475.571 46.1 476.771 46.1C477.77 46.1 478.654 46.2614 479.423 46.5843C480.192 46.8918 480.837 47.33 481.36 47.8988C481.898 48.4677 482.306 49.1288 482.582 49.8822C482.859 50.6202 482.997 51.4274 482.997 52.3037C482.997 52.5497 482.982 52.7957 482.951 53.0417C482.936 53.2724 482.898 53.4722 482.836 53.6414H473.404V51.1045H480.876L479.238 52.3037C479.392 51.6426 479.384 51.0584 479.215 50.551C479.046 50.0283 478.746 49.6208 478.316 49.3287C477.901 49.0212 477.386 48.8674 476.771 48.8674C476.171 48.8674 475.656 49.0135 475.225 49.3056C474.795 49.5978 474.472 50.0283 474.257 50.5971C474.042 51.166 473.957 51.8579 474.003 52.6727C473.942 53.38 474.026 54.0027 474.257 54.5408C474.487 55.0789 474.841 55.5017 475.318 55.8092C475.794 56.1013 476.371 56.2474 477.047 56.2474C477.662 56.2474 478.185 56.1244 478.616 55.8784C479.061 55.6324 479.407 55.2942 479.653 54.8637L482.421 56.1782C482.175 56.7932 481.783 57.3313 481.245 57.7926C480.722 58.2538 480.099 58.6151 479.377 58.8765C478.654 59.1225 477.862 59.2455 477.001 59.2455ZM491.215 59.2455C489.954 59.2455 488.817 58.9611 487.802 58.3922C486.803 57.8079 486.003 57.0161 485.403 56.0168C484.819 55.0174 484.527 53.895 484.527 52.6497C484.527 51.4043 484.819 50.2896 485.403 49.3056C485.988 48.3063 486.787 47.5221 487.802 46.9533C488.817 46.3844 489.954 46.1 491.215 46.1C492.153 46.1 493.022 46.2614 493.821 46.5843C494.621 46.9072 495.305 47.3607 495.874 47.945C496.443 48.5138 496.85 49.1903 497.096 49.9744L494.098 51.2659C493.883 50.6356 493.514 50.1359 492.991 49.7669C492.484 49.3979 491.892 49.2134 491.215 49.2134C490.616 49.2134 490.077 49.3594 489.601 49.6516C489.14 49.9437 488.771 50.3511 488.494 50.8739C488.232 51.3966 488.102 51.9962 488.102 52.6727C488.102 53.3492 488.232 53.9488 488.494 54.4716C488.771 54.9943 489.14 55.4018 489.601 55.6939C490.077 55.986 490.616 56.1321 491.215 56.1321C491.907 56.1321 492.507 55.9476 493.014 55.5786C493.521 55.2096 493.883 54.7099 494.098 54.0795L497.096 55.3941C496.865 56.1321 496.466 56.7932 495.897 57.3774C495.328 57.9617 494.644 58.4229 493.844 58.7612C493.045 59.0841 492.168 59.2455 491.215 59.2455ZM505.383 59.2455C504.138 59.2455 503 58.9611 501.97 58.3922C500.955 57.8233 500.14 57.0469 499.525 56.0629C498.926 55.0635 498.626 53.9335 498.626 52.6727C498.626 51.3966 498.926 50.2666 499.525 49.2826C500.14 48.2986 500.955 47.5221 501.97 46.9533C503 46.3844 504.138 46.1 505.383 46.1C506.628 46.1 507.758 46.3844 508.773 46.9533C509.788 47.5221 510.595 48.2986 511.195 49.2826C511.81 50.2666 512.117 51.3966 512.117 52.6727C512.117 53.9335 511.81 55.0635 511.195 56.0629C510.595 57.0469 509.788 57.8233 508.773 58.3922C507.758 58.9611 506.628 59.2455 505.383 59.2455ZM505.383 56.1321C506.013 56.1321 506.559 55.986 507.02 55.6939C507.497 55.4018 507.866 54.9943 508.127 54.4716C508.404 53.9488 508.543 53.3492 508.543 52.6727C508.543 51.9962 508.404 51.4043 508.127 50.8969C507.866 50.3742 507.497 49.9668 507.02 49.6746C506.559 49.3671 506.013 49.2134 505.383 49.2134C504.753 49.2134 504.199 49.3671 503.723 49.6746C503.246 49.9668 502.869 50.3742 502.592 50.8969C502.331 51.4043 502.2 51.9962 502.2 52.6727C502.2 53.3492 502.331 53.9488 502.592 54.4716C502.869 54.9943 503.246 55.4018 503.723 55.6939C504.199 55.986 504.753 56.1321 505.383 56.1321ZM514.155 58.9688V46.3767H517.384V49.444L517.038 48.9366C517.222 47.968 517.668 47.2531 518.376 46.7918C519.083 46.3306 519.928 46.1 520.912 46.1C521.958 46.1 522.873 46.369 523.657 46.9072C524.456 47.4299 524.956 48.1371 525.156 49.0289L524.164 49.1211C524.579 48.091 525.171 47.33 525.94 46.838C526.709 46.346 527.608 46.1 528.638 46.1C529.545 46.1 530.345 46.2998 531.037 46.6996C531.744 47.0993 532.298 47.6605 532.697 48.3831C533.097 49.0904 533.297 49.9206 533.297 50.8739V58.9688H529.838V51.6119C529.838 51.1199 529.745 50.6971 529.561 50.3434C529.392 49.9898 529.146 49.7131 528.823 49.5132C528.5 49.3133 528.108 49.2134 527.647 49.2134C527.201 49.2134 526.809 49.3133 526.47 49.5132C526.148 49.7131 525.894 49.9898 525.709 50.3434C525.54 50.6971 525.456 51.1199 525.456 51.6119V58.9688H521.996V51.6119C521.996 51.1199 521.904 50.6971 521.72 50.3434C521.551 49.9898 521.305 49.7131 520.982 49.5132C520.659 49.3133 520.267 49.2134 519.805 49.2134C519.36 49.2134 518.968 49.3133 518.629 49.5132C518.306 49.7131 518.053 49.9898 517.868 50.3434C517.699 50.6971 517.615 51.1199 517.615 51.6119V58.9688H514.155ZM535.573 58.9688V46.3767H538.802V49.444L538.456 48.9366C538.641 47.968 539.087 47.2531 539.794 46.7918C540.501 46.3306 541.347 46.1 542.331 46.1C543.376 46.1 544.291 46.369 545.075 46.9072C545.875 47.4299 546.374 48.1371 546.574 49.0289L545.582 49.1211C545.998 48.091 546.59 47.33 547.358 46.838C548.127 46.346 549.026 46.1 550.057 46.1C550.964 46.1 551.763 46.2998 552.455 46.6996C553.162 47.0993 553.716 47.6605 554.116 48.3831C554.515 49.0904 554.715 49.9206 554.715 50.8739V58.9688H551.256V51.6119C551.256 51.1199 551.164 50.6971 550.979 50.3434C550.81 49.9898 550.564 49.7131 550.241 49.5132C549.918 49.3133 549.526 49.2134 549.065 49.2134C548.619 49.2134 548.227 49.3133 547.889 49.5132C547.566 49.7131 547.312 49.9898 547.128 50.3434C546.959 50.6971 546.874 51.1199 546.874 51.6119V58.9688H543.415V51.6119C543.415 51.1199 543.322 50.6971 543.138 50.3434C542.969 49.9898 542.723 49.7131 542.4 49.5132C542.077 49.3133 541.685 49.2134 541.224 49.2134C540.778 49.2134 540.386 49.3133 540.048 49.5132C539.725 49.7131 539.471 49.9898 539.286 50.3434C539.117 50.6971 539.033 51.1199 539.033 51.6119V58.9688H535.573ZM563.057 59.2455C561.719 59.2455 560.559 58.9534 559.575 58.3691C558.591 57.7695 557.83 56.97 557.291 55.9706C556.753 54.9713 556.484 53.8643 556.484 52.6497C556.484 51.3889 556.761 50.2666 557.315 49.2826C557.883 48.2986 558.644 47.5221 559.598 46.9533C560.551 46.3844 561.627 46.1 562.826 46.1C563.826 46.1 564.71 46.2614 565.479 46.5843C566.247 46.8918 566.893 47.33 567.416 47.8988C567.954 48.4677 568.361 49.1288 568.638 49.8822C568.915 50.6202 569.053 51.4274 569.053 52.3037C569.053 52.5497 569.038 52.7957 569.007 53.0417C568.992 53.2724 568.953 53.4722 568.892 53.6414H559.459V51.1045H566.932L565.294 52.3037C565.448 51.6426 565.44 51.0584 565.271 50.551C565.102 50.0283 564.802 49.6208 564.372 49.3287C563.956 49.0212 563.441 48.8674 562.826 48.8674C562.227 48.8674 561.712 49.0135 561.281 49.3056C560.851 49.5978 560.528 50.0283 560.313 50.5971C560.097 51.166 560.013 51.8579 560.059 52.6727C559.997 53.38 560.082 54.0027 560.313 54.5408C560.543 55.0789 560.897 55.5017 561.374 55.8092C561.85 56.1013 562.427 56.2474 563.103 56.2474C563.718 56.2474 564.241 56.1244 564.671 55.8784C565.117 55.6324 565.463 55.2942 565.709 54.8637L568.477 56.1782C568.231 56.7932 567.839 57.3313 567.301 57.7926C566.778 58.2538 566.155 58.6151 565.432 58.8765C564.71 59.1225 563.918 59.2455 563.057 59.2455ZM571.09 58.9688V46.3767H574.319V48.8674L574.135 48.314C574.427 47.5606 574.896 47.0071 575.541 46.6535C576.202 46.2845 576.971 46.1 577.848 46.1C578.801 46.1 579.631 46.2998 580.338 46.6996C581.061 47.0993 581.622 47.6605 582.022 48.3831C582.422 49.0904 582.621 49.9206 582.621 50.8739V58.9688H579.162V51.6119C579.162 51.1199 579.062 50.6971 578.862 50.3434C578.678 49.9898 578.409 49.7131 578.055 49.5132C577.717 49.3133 577.317 49.2134 576.856 49.2134C576.41 49.2134 576.01 49.3133 575.657 49.5132C575.303 49.7131 575.026 49.9898 574.826 50.3434C574.642 50.6971 574.55 51.1199 574.55 51.6119V58.9688H571.09ZM590.823 59.2455C589.593 59.2455 588.494 58.9534 587.525 58.3691C586.557 57.7849 585.788 56.9931 585.219 55.9937C584.666 54.9943 584.389 53.8873 584.389 52.6727C584.389 51.4427 584.673 50.3358 585.242 49.3518C585.811 48.3524 586.58 47.5606 587.548 46.9763C588.517 46.3921 589.601 46.1 590.8 46.1C591.723 46.1 592.537 46.2768 593.245 46.6304C593.967 46.9687 594.536 47.453 594.951 48.0833L594.421 48.7752V41.5106H597.88V58.9688H594.652V56.6625L594.974 57.3774C594.544 57.9924 593.96 58.4614 593.222 58.7843C592.484 59.0917 591.684 59.2455 590.823 59.2455ZM591.238 56.1321C591.869 56.1321 592.422 55.986 592.899 55.6939C593.375 55.4018 593.744 54.9943 594.006 54.4716C594.283 53.9488 594.421 53.3492 594.421 52.6727C594.421 51.9962 594.283 51.3966 594.006 50.8739C593.744 50.3511 593.375 49.9437 592.899 49.6516C592.422 49.3594 591.869 49.2134 591.238 49.2134C590.608 49.2134 590.039 49.3671 589.532 49.6746C589.04 49.9668 588.655 50.3742 588.379 50.8969C588.102 51.4043 587.963 51.9962 587.963 52.6727C587.963 53.3492 588.102 53.9488 588.379 54.4716C588.655 54.9943 589.04 55.4018 589.532 55.6939C590.039 55.986 590.608 56.1321 591.238 56.1321ZM604.311 59.2455C603.404 59.2455 602.62 59.0994 601.959 58.8073C601.298 58.5152 600.79 58.1001 600.437 57.5619C600.083 57.0085 599.906 56.355 599.906 55.6016C599.906 54.8944 600.068 54.2717 600.391 53.7336C600.714 53.1801 601.206 52.7189 601.867 52.3499C602.543 51.9809 603.381 51.7195 604.38 51.5657L608.232 50.9431V53.4799L605.003 54.0565C604.511 54.1487 604.134 54.3102 603.873 54.5408C603.612 54.756 603.481 55.0712 603.481 55.4863C603.481 55.8707 603.627 56.1705 603.919 56.3858C604.211 56.601 604.573 56.7086 605.003 56.7086C605.572 56.7086 606.072 56.5856 606.502 56.3396C606.933 56.0936 607.263 55.7631 607.494 55.348C607.74 54.9175 607.863 54.4485 607.863 53.9412V50.6663C607.863 50.1897 607.671 49.7899 607.286 49.4671C606.917 49.1442 606.41 48.9828 605.764 48.9828C605.149 48.9828 604.603 49.1519 604.127 49.4901C603.665 49.8284 603.327 50.2743 603.112 50.8277L600.345 49.5132C600.591 48.8059 600.983 48.1986 601.521 47.6913C602.059 47.1839 602.705 46.7918 603.458 46.5151C604.211 46.2383 605.034 46.1 605.926 46.1C606.986 46.1 607.924 46.2922 608.739 46.6765C609.554 47.0609 610.184 47.599 610.63 48.2909C611.092 48.9674 611.322 49.7592 611.322 50.6663V58.9688H608.093V56.9393L608.878 56.8009C608.509 57.3544 608.101 57.8156 607.655 58.1846C607.209 58.5383 606.71 58.7996 606.156 58.9688C605.603 59.1532 604.988 59.2455 604.311 59.2455ZM619.699 59.1071C618.177 59.1071 616.993 58.6997 616.148 57.8848C615.318 57.0546 614.902 55.9015 614.902 54.4255V49.3748H612.781V46.3767H612.896C613.542 46.3767 614.034 46.2153 614.372 45.8924C614.726 45.5695 614.902 45.0852 614.902 44.4395V43.517H618.362V46.3767H621.314V49.3748H618.362V54.1948C618.362 54.6253 618.439 54.9867 618.592 55.2788C618.746 55.5555 618.984 55.7631 619.307 55.9015C619.63 56.0398 620.03 56.109 620.507 56.109C620.614 56.109 620.737 56.1013 620.876 56.086C621.014 56.0706 621.16 56.0552 621.314 56.0398V58.9688C621.083 58.9995 620.822 59.0302 620.53 59.061C620.238 59.0917 619.961 59.1071 619.699 59.1071ZM623.341 58.9688V46.3767H626.8V58.9688H623.341ZM623.341 45.2467V41.7873H626.8V45.2467H623.341ZM635.582 59.2455C634.336 59.2455 633.198 58.9611 632.168 58.3922C631.154 57.8233 630.339 57.0469 629.724 56.0629C629.124 55.0635 628.824 53.9335 628.824 52.6727C628.824 51.3966 629.124 50.2666 629.724 49.2826C630.339 48.2986 631.154 47.5221 632.168 46.9533C633.198 46.3844 634.336 46.1 635.582 46.1C636.827 46.1 637.957 46.3844 638.972 46.9533C639.987 47.5221 640.794 48.2986 641.393 49.2826C642.008 50.2666 642.316 51.3966 642.316 52.6727C642.316 53.9335 642.008 55.0635 641.393 56.0629C640.794 57.0469 639.987 57.8233 638.972 58.3922C637.957 58.9611 636.827 59.2455 635.582 59.2455ZM635.582 56.1321C636.212 56.1321 636.758 55.986 637.219 55.6939C637.696 55.4018 638.065 54.9943 638.326 54.4716C638.603 53.9488 638.741 53.3492 638.741 52.6727C638.741 51.9962 638.603 51.4043 638.326 50.8969C638.065 50.3742 637.696 49.9668 637.219 49.6746C636.758 49.3671 636.212 49.2134 635.582 49.2134C634.951 49.2134 634.398 49.3671 633.921 49.6746C633.444 49.9668 633.068 50.3742 632.791 50.8969C632.53 51.4043 632.399 51.9962 632.399 52.6727C632.399 53.3492 632.53 53.9488 632.791 54.4716C633.068 54.9943 633.444 55.4018 633.921 55.6939C634.398 55.986 634.951 56.1321 635.582 56.1321ZM644.354 58.9688V46.3767H647.582V48.8674L647.398 48.314C647.69 47.5606 648.159 47.0071 648.805 46.6535C649.466 46.2845 650.235 46.1 651.111 46.1C652.064 46.1 652.895 46.2998 653.602 46.6996C654.324 47.0993 654.886 47.6605 655.285 48.3831C655.685 49.0904 655.885 49.9206 655.885 50.8739V58.9688H652.426V51.6119C652.426 51.1199 652.326 50.6971 652.126 50.3434C651.941 49.9898 651.672 49.7131 651.319 49.5132C650.98 49.3133 650.581 49.2134 650.119 49.2134C649.673 49.2134 649.274 49.3133 648.92 49.5132C648.566 49.7131 648.29 49.9898 648.09 50.3434C647.905 50.6971 647.813 51.1199 647.813 51.6119V58.9688H644.354Z" fill="#0D3BFF"/>
<rect x="363.514" y="96.3433" width="497.903" height="96.5" rx="15.75" fill="white"/>
<rect x="363.514" y="96.3433" width="497.903" height="96.5" rx="15.75" stroke="#575DFF" stroke-width="0.5"/>
<path d="M380.556 132.093V118.73H382.888L387.892 125.528H386.78L391.677 118.73H394.009V132.093H391.552V121.51L392.502 121.743L387.426 128.506H387.139L382.188 121.743L382.995 121.51V132.093H380.556ZM401.14 132.309C400.184 132.309 399.311 132.087 398.522 131.645C397.744 131.202 397.122 130.598 396.656 129.833C396.202 129.068 395.974 128.195 395.974 127.214C395.974 126.234 396.202 125.361 396.656 124.595C397.122 123.83 397.744 123.226 398.522 122.784C399.299 122.341 400.172 122.12 401.14 122.12C402.097 122.12 402.964 122.341 403.741 122.784C404.519 123.226 405.134 123.83 405.589 124.595C406.055 125.349 406.288 126.222 406.288 127.214C406.288 128.195 406.055 129.068 405.589 129.833C405.123 130.598 404.501 131.202 403.723 131.645C402.946 132.087 402.085 132.309 401.14 132.309ZM401.14 130.156C401.667 130.156 402.127 130.03 402.522 129.779C402.928 129.528 403.245 129.181 403.472 128.739C403.711 128.285 403.831 127.776 403.831 127.214C403.831 126.64 403.711 126.138 403.472 125.708C403.245 125.265 402.928 124.918 402.522 124.667C402.127 124.404 401.667 124.273 401.14 124.273C400.602 124.273 400.13 124.404 399.723 124.667C399.317 124.918 398.994 125.265 398.755 125.708C398.528 126.138 398.414 126.64 398.414 127.214C398.414 127.776 398.528 128.285 398.755 128.739C398.994 129.181 399.317 129.528 399.723 129.779C400.13 130.03 400.602 130.156 401.14 130.156ZM410.837 132.093L406.998 122.335H409.563L412.344 130.013H411.393L414.191 122.335H416.756L412.918 132.093H410.837ZM422.508 132.309C421.503 132.309 420.624 132.081 419.871 131.627C419.118 131.172 418.532 130.557 418.113 129.779C417.695 129.002 417.485 128.141 417.485 127.196C417.485 126.216 417.695 125.349 418.113 124.595C418.544 123.83 419.124 123.226 419.853 122.784C420.594 122.341 421.42 122.12 422.328 122.12C423.094 122.12 423.763 122.246 424.337 122.497C424.923 122.748 425.42 123.095 425.826 123.537C426.233 123.98 426.544 124.488 426.759 125.062C426.974 125.624 427.082 126.234 427.082 126.891C427.082 127.059 427.07 127.232 427.046 127.412C427.034 127.591 427.004 127.746 426.956 127.878H419.423V126.084H425.629L424.517 126.927C424.624 126.377 424.594 125.887 424.427 125.456C424.272 125.026 424.009 124.685 423.638 124.434C423.279 124.183 422.843 124.057 422.328 124.057C421.838 124.057 421.402 124.183 421.019 124.434C420.636 124.673 420.343 125.032 420.14 125.51C419.949 125.977 419.877 126.545 419.925 127.214C419.877 127.812 419.955 128.344 420.158 128.811C420.373 129.265 420.684 129.618 421.091 129.869C421.509 130.12 421.988 130.246 422.526 130.246C423.064 130.246 423.518 130.132 423.889 129.905C424.272 129.678 424.571 129.373 424.786 128.99L426.687 129.923C426.496 130.389 426.197 130.802 425.79 131.161C425.384 131.519 424.899 131.8 424.337 132.004C423.787 132.207 423.177 132.309 422.508 132.309ZM438.473 132.093L432.248 127.16V125.008H437.271C437.713 125.008 438.096 124.924 438.419 124.757C438.742 124.578 438.993 124.332 439.172 124.021C439.352 123.711 439.441 123.352 439.441 122.945C439.441 122.527 439.352 122.168 439.172 121.869C438.993 121.558 438.742 121.319 438.419 121.151C438.096 120.972 437.713 120.882 437.271 120.882H432.248V118.73H442.957V120.237H439.908L440.518 119.752C440.948 120.123 441.283 120.577 441.522 121.116C441.761 121.642 441.881 122.252 441.881 122.945C441.881 123.83 441.678 124.589 441.271 125.223C440.876 125.845 440.332 126.323 439.639 126.658C438.945 126.993 438.144 127.16 437.235 127.16H434.831L435.065 126.479L442.06 132.093H438.473ZM432.248 123.681V122.192H442.957V123.681H432.248ZM448.581 132.309C447.876 132.309 447.2 132.177 446.554 131.914C445.921 131.651 445.37 131.28 444.904 130.802C444.45 130.311 444.139 129.732 443.971 129.062L446.088 128.308C446.291 128.918 446.62 129.373 447.075 129.672C447.529 129.959 448.031 130.102 448.581 130.102C449.036 130.102 449.436 130.007 449.783 129.815C450.142 129.612 450.417 129.337 450.608 128.99C450.8 128.631 450.895 128.219 450.895 127.752C450.895 127.286 450.794 126.879 450.59 126.533C450.399 126.186 450.13 125.917 449.783 125.725C449.436 125.522 449.036 125.421 448.581 125.421C448.115 125.421 447.69 125.522 447.308 125.725C446.937 125.929 446.668 126.222 446.501 126.604L444.509 126.156L445.568 118.73H452.85V120.793H446.536L447.451 119.734L446.698 125.331L445.998 124.757C446.333 124.267 446.74 123.908 447.218 123.681C447.708 123.453 448.3 123.34 448.994 123.34C449.879 123.34 450.644 123.531 451.29 123.914C451.948 124.296 452.456 124.817 452.814 125.474C453.173 126.132 453.353 126.891 453.353 127.752C453.353 128.613 453.143 129.391 452.725 130.084C452.306 130.778 451.738 131.322 451.021 131.717C450.303 132.111 449.49 132.309 448.581 132.309ZM455.581 132.093V118.73H458.021V129.941H463.743V132.093H455.581ZM472.76 132.201C471.66 132.201 470.805 131.902 470.195 131.304C469.597 130.694 469.298 129.839 469.298 128.739V124.434H467.612V122.335H467.791C468.269 122.335 468.64 122.21 468.903 121.959C469.166 121.708 469.298 121.343 469.298 120.864V120.111H471.648V122.335H473.89V124.434H471.648V128.613C471.648 128.936 471.701 129.211 471.809 129.439C471.929 129.666 472.108 129.839 472.347 129.959C472.598 130.078 472.915 130.138 473.298 130.138C473.382 130.138 473.477 130.132 473.585 130.12C473.704 130.108 473.818 130.096 473.926 130.084V132.093C473.758 132.117 473.567 132.141 473.352 132.165C473.136 132.189 472.939 132.201 472.76 132.201ZM480.405 132.309C479.448 132.309 478.575 132.087 477.786 131.645C477.009 131.202 476.387 130.598 475.92 129.833C475.466 129.068 475.239 128.195 475.239 127.214C475.239 126.234 475.466 125.361 475.92 124.595C476.387 123.83 477.009 123.226 477.786 122.784C478.563 122.341 479.436 122.12 480.405 122.12C481.361 122.12 482.228 122.341 483.006 122.784C483.783 123.226 484.399 123.83 484.853 124.595C485.32 125.349 485.553 126.222 485.553 127.214C485.553 128.195 485.32 129.068 484.853 129.833C484.387 130.598 483.765 131.202 482.988 131.645C482.21 132.087 481.349 132.309 480.405 132.309ZM480.405 130.156C480.931 130.156 481.391 130.03 481.786 129.779C482.192 129.528 482.509 129.181 482.737 128.739C482.976 128.285 483.095 127.776 483.095 127.214C483.095 126.64 482.976 126.138 482.737 125.708C482.509 125.265 482.192 124.918 481.786 124.667C481.391 124.404 480.931 124.273 480.405 124.273C479.867 124.273 479.394 124.404 478.988 124.667C478.581 124.918 478.258 125.265 478.019 125.708C477.792 126.138 477.678 126.64 477.678 127.214C477.678 127.776 477.792 128.285 478.019 128.739C478.258 129.181 478.581 129.528 478.988 129.779C479.394 130.03 479.867 130.156 480.405 130.156ZM494.303 132.093L498.841 126.246L499.253 126.676C499.074 126.808 498.901 126.915 498.733 126.999C498.566 127.083 498.387 127.143 498.195 127.178C498.004 127.214 497.801 127.232 497.585 127.232C496.772 127.232 496.049 127.047 495.415 126.676C494.781 126.305 494.279 125.803 493.908 125.169C493.549 124.524 493.37 123.794 493.37 122.981C493.37 122.12 493.567 121.355 493.962 120.685C494.369 120.015 494.919 119.489 495.612 119.107C496.318 118.712 497.119 118.515 498.016 118.515C498.925 118.515 499.726 118.706 500.419 119.089C501.113 119.471 501.657 119.997 502.052 120.667C502.458 121.325 502.662 122.084 502.662 122.945C502.662 123.376 502.614 123.806 502.518 124.237C502.422 124.667 502.249 125.128 501.998 125.618C501.759 126.096 501.412 126.64 500.958 127.25L497.227 132.093H494.303ZM498.016 125.187C498.434 125.187 498.805 125.098 499.128 124.918C499.463 124.727 499.726 124.464 499.917 124.129C500.109 123.782 500.204 123.394 500.204 122.963C500.204 122.509 500.103 122.114 499.899 121.779C499.708 121.444 499.451 121.181 499.128 120.99C498.805 120.799 498.434 120.703 498.016 120.703C497.609 120.703 497.239 120.799 496.904 120.99C496.569 121.181 496.3 121.444 496.097 121.779C495.905 122.114 495.81 122.509 495.81 122.963C495.81 123.394 495.905 123.782 496.097 124.129C496.3 124.464 496.569 124.727 496.904 124.918C497.239 125.098 497.609 125.187 498.016 125.187ZM509.757 132.309C508.693 132.309 507.76 132.022 506.959 131.448C506.158 130.874 505.53 130.066 505.075 129.026C504.633 127.986 504.412 126.778 504.412 125.403C504.412 124.015 504.633 122.808 505.075 121.779C505.518 120.751 506.14 119.95 506.941 119.376C507.742 118.802 508.675 118.515 509.739 118.515C510.827 118.515 511.766 118.802 512.555 119.376C513.356 119.95 513.984 120.757 514.439 121.797C514.893 122.826 515.12 124.027 515.12 125.403C515.12 126.778 514.893 127.986 514.439 129.026C513.996 130.054 513.374 130.862 512.573 131.448C511.772 132.022 510.833 132.309 509.757 132.309ZM509.775 130.084C510.385 130.084 510.905 129.899 511.335 129.528C511.766 129.146 512.095 128.607 512.322 127.914C512.561 127.208 512.681 126.371 512.681 125.403C512.681 124.434 512.561 123.603 512.322 122.909C512.095 122.204 511.76 121.666 511.317 121.295C510.887 120.924 510.361 120.739 509.739 120.739C509.141 120.739 508.627 120.924 508.196 121.295C507.766 121.666 507.431 122.204 507.192 122.909C506.965 123.603 506.851 124.434 506.851 125.403C506.851 126.359 506.965 127.19 507.192 127.896C507.431 128.589 507.766 129.128 508.196 129.51C508.639 129.893 509.165 130.084 509.775 130.084ZM517.99 128.613V126.586H526.062V128.613H517.99ZM533.581 132.309C532.636 132.309 531.793 132.087 531.052 131.645C530.31 131.19 529.724 130.575 529.294 129.797C528.863 129.02 528.648 128.159 528.648 127.214C528.648 126.258 528.863 125.397 529.294 124.631C529.724 123.866 530.31 123.256 531.052 122.802C531.805 122.347 532.642 122.12 533.563 122.12C534.304 122.12 534.962 122.27 535.536 122.569C536.122 122.856 536.582 123.262 536.917 123.788L536.558 124.273V118.515H538.908V132.093H536.684V130.21L536.935 130.676C536.6 131.202 536.134 131.609 535.536 131.896C534.938 132.171 534.286 132.309 533.581 132.309ZM533.832 130.156C534.37 130.156 534.842 130.03 535.249 129.779C535.655 129.528 535.972 129.181 536.2 128.739C536.439 128.297 536.558 127.788 536.558 127.214C536.558 126.652 536.439 126.15 536.2 125.708C535.972 125.253 535.655 124.9 535.249 124.649C534.842 124.398 534.37 124.273 533.832 124.273C533.306 124.273 532.833 124.404 532.415 124.667C531.996 124.918 531.667 125.265 531.428 125.708C531.201 126.138 531.087 126.64 531.087 127.214C531.087 127.788 531.201 128.297 531.428 128.739C531.667 129.181 531.996 129.528 532.415 129.779C532.833 130.03 533.306 130.156 533.832 130.156ZM544.054 132.309C543.372 132.309 542.78 132.195 542.278 131.968C541.776 131.74 541.387 131.418 541.112 130.999C540.837 130.569 540.7 130.072 540.7 129.51C540.7 128.972 540.819 128.494 541.058 128.075C541.298 127.645 541.668 127.286 542.17 126.999C542.673 126.712 543.307 126.509 544.072 126.389L547.265 125.869V127.663L544.52 128.129C544.054 128.213 543.707 128.362 543.48 128.578C543.253 128.793 543.139 129.074 543.139 129.421C543.139 129.755 543.265 130.024 543.516 130.228C543.779 130.419 544.102 130.515 544.484 130.515C544.975 130.515 545.405 130.413 545.776 130.21C546.159 129.995 546.452 129.702 546.655 129.331C546.87 128.96 546.978 128.554 546.978 128.111V125.6C546.978 125.181 546.81 124.835 546.475 124.56C546.153 124.273 545.722 124.129 545.184 124.129C544.682 124.129 544.233 124.267 543.839 124.542C543.456 124.805 543.175 125.157 542.996 125.6L541.076 124.667C541.268 124.153 541.567 123.711 541.973 123.34C542.392 122.957 542.882 122.658 543.444 122.443C544.006 122.228 544.616 122.12 545.274 122.12C546.075 122.12 546.78 122.27 547.39 122.569C548 122.856 548.472 123.262 548.807 123.788C549.154 124.302 549.327 124.906 549.327 125.6V132.093H547.103V130.425L547.605 130.389C547.354 130.808 547.055 131.161 546.709 131.448C546.362 131.723 545.967 131.938 545.525 132.093C545.082 132.237 544.592 132.309 544.054 132.309ZM552.683 136.039C552.42 136.039 552.163 136.016 551.912 135.968C551.661 135.932 551.434 135.86 551.23 135.752V133.797C551.386 133.833 551.571 133.869 551.786 133.905C552.014 133.941 552.223 133.959 552.414 133.959C552.952 133.959 553.341 133.833 553.58 133.582C553.831 133.343 554.052 133.02 554.244 132.613L554.889 131.107L554.854 133.08L550.602 122.335H553.132L556.109 130.264H555.212L558.172 122.335H560.719L556.468 133.08C556.217 133.702 555.912 134.234 555.553 134.676C555.194 135.119 554.776 135.454 554.298 135.681C553.831 135.92 553.293 136.039 552.683 136.039ZM565.395 132.093V118.73H574.31V120.882H567.834V124.578H573.503V126.73H567.834V132.093H565.395ZM575.905 132.093V118.73H580.264C581.675 118.73 582.901 119.017 583.941 119.591C584.993 120.153 585.806 120.936 586.38 121.941C586.954 122.933 587.241 124.087 587.241 125.403C587.241 126.706 586.954 127.866 586.38 128.882C585.806 129.887 584.993 130.676 583.941 131.25C582.901 131.812 581.675 132.093 580.264 132.093H575.905ZM578.345 129.941H580.318C581.226 129.941 582.01 129.755 582.667 129.385C583.337 129.002 583.857 128.476 584.228 127.806C584.599 127.125 584.784 126.323 584.784 125.403C584.784 124.47 584.599 123.669 584.228 122.999C583.857 122.329 583.337 121.809 582.667 121.438C582.01 121.068 581.226 120.882 580.318 120.882H578.345V129.941ZM590.098 132.093V129.582H592.465V132.093H590.098Z" fill="black"/>
<path d="M380.753 171.093V157.73H389.453V159.344H382.511V163.578H389.094V165.192H382.511V169.479H389.453V171.093H380.753ZM394.268 171.309C393.634 171.309 393.072 171.195 392.582 170.968C392.104 170.729 391.727 170.406 391.452 169.999C391.177 169.581 391.039 169.102 391.039 168.564C391.039 168.05 391.147 167.589 391.362 167.183C391.589 166.764 391.936 166.412 392.403 166.125C392.881 165.838 393.479 165.634 394.196 165.515L397.784 164.923V166.322L394.573 166.86C393.951 166.968 393.497 167.165 393.21 167.452C392.935 167.739 392.797 168.092 392.797 168.51C392.797 168.905 392.953 169.234 393.264 169.497C393.586 169.76 393.987 169.891 394.465 169.891C395.075 169.891 395.601 169.766 396.044 169.515C396.498 169.252 396.851 168.899 397.102 168.456C397.365 168.014 397.497 167.524 397.497 166.986V164.528C397.497 164.002 397.299 163.578 396.905 163.255C396.522 162.92 396.014 162.752 395.38 162.752C394.83 162.752 394.34 162.896 393.909 163.183C393.491 163.458 393.18 163.829 392.977 164.295L391.524 163.542C391.703 163.099 391.99 162.705 392.385 162.358C392.779 161.999 393.24 161.718 393.766 161.515C394.292 161.311 394.842 161.21 395.416 161.21C396.157 161.21 396.809 161.353 397.371 161.64C397.933 161.915 398.37 162.304 398.681 162.806C399.003 163.296 399.165 163.87 399.165 164.528V171.093H397.533V169.264L397.838 169.371C397.634 169.754 397.359 170.089 397.012 170.376C396.666 170.663 396.259 170.89 395.793 171.057C395.326 171.225 394.818 171.309 394.268 171.309ZM401.751 171.093V161.425H403.384V163.201L403.204 162.95C403.432 162.4 403.778 161.993 404.245 161.73C404.711 161.455 405.279 161.317 405.949 161.317H406.541V162.896H405.698C405.016 162.896 404.466 163.111 404.047 163.542C403.629 163.96 403.42 164.558 403.42 165.335V171.093H401.751ZM408.022 171.093V161.425H409.655V163.308L409.386 163.147C409.625 162.537 410.008 162.065 410.534 161.73C411.072 161.383 411.7 161.21 412.417 161.21C413.111 161.21 413.727 161.365 414.265 161.676C414.815 161.987 415.245 162.418 415.556 162.968C415.879 163.518 416.04 164.14 416.04 164.833V171.093H414.354V165.371C414.354 164.833 414.259 164.379 414.067 164.008C413.876 163.637 413.601 163.35 413.242 163.147C412.895 162.932 412.495 162.824 412.04 162.824C411.586 162.824 411.179 162.932 410.821 163.147C410.474 163.35 410.199 163.643 409.996 164.026C409.792 164.397 409.691 164.845 409.691 165.371V171.093H408.022ZM428.452 171.093L421.725 165.981V164.367H426.497C427.035 164.367 427.501 164.265 427.896 164.062C428.29 163.859 428.595 163.566 428.811 163.183C429.026 162.8 429.134 162.358 429.134 161.856C429.134 161.341 429.026 160.899 428.811 160.528C428.595 160.145 428.29 159.853 427.896 159.649C427.501 159.446 427.035 159.344 426.497 159.344H421.725V157.73H431.986V159.003H429.044L429.474 158.663C429.917 159.033 430.264 159.488 430.515 160.026C430.778 160.564 430.909 161.174 430.909 161.856C430.909 162.693 430.718 163.422 430.335 164.044C429.965 164.654 429.444 165.132 428.775 165.479C428.117 165.814 427.34 165.981 426.443 165.981H423.698L423.86 165.497L431.107 171.093H428.452ZM421.725 162.483V161.21H431.986V162.483H421.725ZM435.674 171.093V159.255H433.145V157.73H437.45V171.093H435.674ZM440.299 171.093V169.874L443.994 165.873C444.723 165.096 445.303 164.456 445.734 163.954C446.176 163.452 446.499 163.004 446.702 162.609C446.906 162.214 447.007 161.796 447.007 161.353C447.007 160.624 446.792 160.062 446.362 159.667C445.931 159.273 445.363 159.075 444.657 159.075C443.94 159.075 443.33 159.284 442.828 159.703C442.326 160.11 441.979 160.69 441.787 161.443L440.191 161.03C440.347 160.313 440.634 159.691 441.052 159.165C441.471 158.639 441.991 158.232 442.613 157.945C443.234 157.658 443.916 157.515 444.657 157.515C445.471 157.515 446.182 157.676 446.792 157.999C447.414 158.31 447.898 158.746 448.245 159.308C448.604 159.87 448.783 160.522 448.783 161.264C448.783 161.754 448.681 162.232 448.478 162.699C448.275 163.165 447.976 163.661 447.581 164.187C447.187 164.702 446.672 165.299 446.039 165.981L442.738 169.569H449.07V171.093H440.299ZM451.646 173.587V172.779C452.017 172.684 452.298 172.498 452.49 172.223C452.681 171.948 452.788 171.572 452.812 171.093H452.005V168.941H453.745V170.465C453.745 171.326 453.566 172.02 453.207 172.546C452.86 173.072 452.34 173.419 451.646 173.587ZM462.765 171.093V168.008H456.199V166.555L462.729 157.73H464.415V166.555H466.155V168.008H464.415V171.093H462.765ZM457.527 167.183L457.276 166.555H462.765V159.201L463.285 159.344L457.527 167.183ZM473.378 171.309C472.314 171.309 471.381 171.022 470.58 170.448C469.791 169.862 469.175 169.054 468.732 168.026C468.29 166.986 468.069 165.778 468.069 164.403C468.069 163.027 468.29 161.826 468.732 160.797C469.175 159.757 469.791 158.95 470.58 158.376C471.369 157.802 472.296 157.515 473.36 157.515C474.424 157.515 475.351 157.802 476.14 158.376C476.93 158.95 477.545 159.757 477.988 160.797C478.442 161.826 478.67 163.027 478.67 164.403C478.67 165.778 478.448 166.986 478.006 168.026C477.563 169.066 476.942 169.874 476.14 170.448C475.351 171.022 474.43 171.309 473.378 171.309ZM473.378 169.676C474.095 169.676 474.717 169.461 475.243 169.03C475.77 168.588 476.176 167.972 476.463 167.183C476.762 166.394 476.912 165.467 476.912 164.403C476.912 163.338 476.762 162.412 476.463 161.622C476.176 160.833 475.764 160.223 475.226 159.793C474.699 159.362 474.078 159.147 473.36 159.147C472.643 159.147 472.021 159.362 471.495 159.793C470.968 160.223 470.556 160.833 470.257 161.622C469.97 162.412 469.826 163.338 469.826 164.403C469.826 165.455 469.97 166.376 470.257 167.165C470.556 167.954 470.968 168.57 471.495 169.013C472.033 169.455 472.66 169.676 473.378 169.676ZM486.358 171.309C485.294 171.309 484.361 171.022 483.56 170.448C482.771 169.862 482.155 169.054 481.712 168.026C481.27 166.986 481.049 165.778 481.049 164.403C481.049 163.027 481.27 161.826 481.712 160.797C482.155 159.757 482.771 158.95 483.56 158.376C484.349 157.802 485.276 157.515 486.34 157.515C487.404 157.515 488.331 157.802 489.12 158.376C489.91 158.95 490.526 159.757 490.968 160.797C491.422 161.826 491.65 163.027 491.65 164.403C491.65 165.778 491.428 166.986 490.986 168.026C490.543 169.066 489.922 169.874 489.12 170.448C488.331 171.022 487.41 171.309 486.358 171.309ZM486.358 169.676C487.076 169.676 487.697 169.461 488.224 169.03C488.75 168.588 489.156 167.972 489.443 167.183C489.742 166.394 489.892 165.467 489.892 164.403C489.892 163.338 489.742 162.412 489.443 161.622C489.156 160.833 488.744 160.223 488.206 159.793C487.679 159.362 487.058 159.147 486.34 159.147C485.623 159.147 485.001 159.362 484.475 159.793C483.948 160.223 483.536 160.833 483.237 161.622C482.95 162.412 482.806 163.338 482.806 164.403C482.806 165.455 482.95 166.376 483.237 167.165C483.536 167.954 483.948 168.57 484.475 169.013C485.013 169.455 485.641 169.676 486.358 169.676ZM497.219 171.093V161.425H498.851V163.398L498.618 163.093C498.857 162.483 499.24 162.017 499.766 161.694C500.292 161.371 500.884 161.21 501.542 161.21C502.295 161.21 502.971 161.419 503.569 161.838C504.179 162.256 504.597 162.806 504.824 163.488L504.358 163.506C504.609 162.752 505.034 162.184 505.631 161.802C506.229 161.407 506.893 161.21 507.623 161.21C508.292 161.21 508.896 161.365 509.434 161.676C509.984 161.987 510.421 162.418 510.744 162.968C511.067 163.518 511.228 164.14 511.228 164.833V171.093H509.542V165.371C509.542 164.833 509.446 164.379 509.255 164.008C509.064 163.637 508.8 163.35 508.466 163.147C508.143 162.932 507.76 162.824 507.318 162.824C506.887 162.824 506.498 162.932 506.152 163.147C505.817 163.35 505.548 163.643 505.344 164.026C505.153 164.397 505.057 164.845 505.057 165.371V171.093H503.371V165.371C503.371 164.833 503.276 164.379 503.084 164.008C502.893 163.637 502.63 163.35 502.295 163.147C501.972 162.932 501.59 162.824 501.147 162.824C500.717 162.824 500.328 162.932 499.981 163.147C499.646 163.35 499.377 163.643 499.174 164.026C498.983 164.397 498.887 164.845 498.887 165.371V171.093H497.219ZM518.189 171.309C517.256 171.309 516.413 171.093 515.66 170.663C514.907 170.22 514.309 169.616 513.866 168.851C513.424 168.086 513.203 167.219 513.203 166.25C513.203 165.282 513.418 164.421 513.848 163.667C514.291 162.914 514.889 162.316 515.642 161.873C516.395 161.431 517.244 161.21 518.189 161.21C519.122 161.21 519.965 161.431 520.718 161.873C521.472 162.304 522.064 162.896 522.494 163.649C522.937 164.403 523.158 165.27 523.158 166.25C523.158 167.231 522.931 168.104 522.476 168.869C522.022 169.622 521.418 170.22 520.665 170.663C519.923 171.093 519.098 171.309 518.189 171.309ZM518.189 169.694C518.787 169.694 519.325 169.545 519.804 169.246C520.294 168.947 520.676 168.534 520.952 168.008C521.239 167.482 521.382 166.896 521.382 166.25C521.382 165.592 521.239 165.012 520.952 164.51C520.676 163.996 520.294 163.589 519.804 163.291C519.325 162.98 518.787 162.824 518.189 162.824C517.579 162.824 517.029 162.98 516.539 163.291C516.061 163.589 515.678 163.996 515.391 164.51C515.104 165.012 514.96 165.592 514.96 166.25C514.96 166.896 515.104 167.482 515.391 168.008C515.678 168.534 516.061 168.947 516.539 169.246C517.029 169.545 517.579 169.694 518.189 169.694ZM525.334 171.093V161.425H526.966V163.201L526.787 162.95C527.014 162.4 527.36 161.993 527.827 161.73C528.293 161.455 528.861 161.317 529.531 161.317H530.123V162.896H529.28C528.598 162.896 528.048 163.111 527.63 163.542C527.211 163.96 527.002 164.558 527.002 165.335V171.093H525.334ZM536.053 171.309C535.12 171.309 534.289 171.087 533.56 170.645C532.83 170.202 532.256 169.598 531.838 168.833C531.419 168.056 531.21 167.189 531.21 166.232C531.21 165.264 531.413 164.403 531.82 163.649C532.238 162.896 532.8 162.304 533.506 161.873C534.224 161.431 535.025 161.21 535.91 161.21C536.627 161.21 537.261 161.341 537.811 161.604C538.373 161.856 538.845 162.202 539.228 162.645C539.623 163.075 539.922 163.572 540.125 164.134C540.34 164.684 540.448 165.258 540.448 165.856C540.448 165.987 540.436 166.137 540.412 166.304C540.4 166.459 540.382 166.609 540.358 166.752H532.43V165.317H539.389L538.6 165.963C538.708 165.341 538.648 164.785 538.421 164.295C538.194 163.805 537.859 163.416 537.416 163.129C536.974 162.842 536.472 162.699 535.91 162.699C535.348 162.699 534.833 162.842 534.367 163.129C533.901 163.416 533.536 163.829 533.273 164.367C533.022 164.893 532.92 165.521 532.968 166.25C532.92 166.956 533.028 167.578 533.291 168.116C533.566 168.642 533.948 169.054 534.439 169.353C534.941 169.64 535.485 169.784 536.071 169.784C536.717 169.784 537.261 169.634 537.703 169.335C538.146 169.036 538.505 168.654 538.78 168.187L540.179 168.905C539.987 169.347 539.688 169.754 539.282 170.125C538.887 170.483 538.415 170.77 537.865 170.986C537.327 171.201 536.723 171.309 536.053 171.309ZM548.557 171.309C547.924 171.309 547.362 171.195 546.871 170.968C546.393 170.729 546.016 170.406 545.741 169.999C545.466 169.581 545.329 169.102 545.329 168.564C545.329 168.05 545.436 167.589 545.652 167.183C545.879 166.764 546.226 166.412 546.692 166.125C547.17 165.838 547.768 165.634 548.486 165.515L552.073 164.923V166.322L548.862 166.86C548.241 166.968 547.786 167.165 547.499 167.452C547.224 167.739 547.087 168.092 547.087 168.51C547.087 168.905 547.242 169.234 547.553 169.497C547.876 169.76 548.276 169.891 548.755 169.891C549.365 169.891 549.891 169.766 550.333 169.515C550.788 169.252 551.14 168.899 551.392 168.456C551.655 168.014 551.786 167.524 551.786 166.986V164.528C551.786 164.002 551.589 163.578 551.194 163.255C550.812 162.92 550.303 162.752 549.67 162.752C549.119 162.752 548.629 162.896 548.199 163.183C547.78 163.458 547.469 163.829 547.266 164.295L545.813 163.542C545.992 163.099 546.279 162.705 546.674 162.358C547.069 161.999 547.529 161.718 548.055 161.515C548.581 161.311 549.131 161.21 549.705 161.21C550.447 161.21 551.099 161.353 551.661 161.64C552.223 161.915 552.659 162.304 552.97 162.806C553.293 163.296 553.454 163.87 553.454 164.528V171.093H551.822V169.264L552.127 169.371C551.924 169.754 551.649 170.089 551.302 170.376C550.955 170.663 550.548 170.89 550.082 171.057C549.616 171.225 549.108 171.309 548.557 171.309ZM556.041 171.093V161.425H557.673V163.308L557.404 163.147C557.643 162.537 558.026 162.065 558.552 161.73C559.09 161.383 559.718 161.21 560.435 161.21C561.129 161.21 561.745 161.365 562.283 161.676C562.833 161.987 563.264 162.418 563.575 162.968C563.897 163.518 564.059 164.14 564.059 164.833V171.093H562.373V165.371C562.373 164.833 562.277 164.379 562.086 164.008C561.894 163.637 561.619 163.35 561.261 163.147C560.914 162.932 560.513 162.824 560.059 162.824C559.604 162.824 559.198 162.932 558.839 163.147C558.492 163.35 558.217 163.643 558.014 164.026C557.811 164.397 557.709 164.845 557.709 165.371V171.093H556.041ZM566.446 171.093V161.425H568.078V163.308L567.809 163.147C568.048 162.537 568.431 162.065 568.957 161.73C569.495 161.383 570.123 161.21 570.841 161.21C571.534 161.21 572.15 161.365 572.688 161.676C573.238 161.987 573.669 162.418 573.98 162.968C574.302 163.518 574.464 164.14 574.464 164.833V171.093H572.778V165.371C572.778 164.833 572.682 164.379 572.491 164.008C572.299 163.637 572.024 163.35 571.666 163.147C571.319 162.932 570.918 162.824 570.464 162.824C570.009 162.824 569.603 162.932 569.244 163.147C568.897 163.35 568.622 163.643 568.419 164.026C568.216 164.397 568.114 164.845 568.114 165.371V171.093H566.446ZM580.277 171.309C579.583 171.309 578.956 171.147 578.394 170.824C577.844 170.501 577.413 170.053 577.102 169.479C576.803 168.893 576.654 168.223 576.654 167.47V161.425H578.322V167.291C578.322 167.769 578.417 168.187 578.609 168.546C578.812 168.905 579.087 169.186 579.434 169.389C579.793 169.593 580.199 169.694 580.654 169.694C581.108 169.694 581.509 169.593 581.855 169.389C582.214 169.186 582.489 168.893 582.681 168.51C582.884 168.128 582.986 167.673 582.986 167.147V161.425H584.672V171.093H583.039V169.21L583.308 169.371C583.081 169.981 582.693 170.459 582.142 170.806C581.604 171.141 580.983 171.309 580.277 171.309ZM590.09 171.309C589.456 171.309 588.894 171.195 588.404 170.968C587.926 170.729 587.549 170.406 587.274 169.999C586.999 169.581 586.861 169.102 586.861 168.564C586.861 168.05 586.969 167.589 587.184 167.183C587.412 166.764 587.758 166.412 588.225 166.125C588.703 165.838 589.301 165.634 590.018 165.515L593.606 164.923V166.322L590.395 166.86C589.773 166.968 589.319 167.165 589.032 167.452C588.757 167.739 588.619 168.092 588.619 168.51C588.619 168.905 588.775 169.234 589.086 169.497C589.409 169.76 589.809 169.891 590.287 169.891C590.897 169.891 591.423 169.766 591.866 169.515C592.32 169.252 592.673 168.899 592.924 168.456C593.187 168.014 593.319 167.524 593.319 166.986V164.528C593.319 164.002 593.122 163.578 592.727 163.255C592.344 162.92 591.836 162.752 591.202 162.752C590.652 162.752 590.162 162.896 589.731 163.183C589.313 163.458 589.002 163.829 588.799 164.295L587.346 163.542C587.525 163.099 587.812 162.705 588.207 162.358C588.601 161.999 589.062 161.718 589.588 161.515C590.114 161.311 590.664 161.21 591.238 161.21C591.98 161.21 592.631 161.353 593.193 161.64C593.755 161.915 594.192 162.304 594.503 162.806C594.826 163.296 594.987 163.87 594.987 164.528V171.093H593.355V169.264L593.66 169.371C593.456 169.754 593.181 170.089 592.835 170.376C592.488 170.663 592.081 170.89 591.615 171.057C591.148 171.225 590.64 171.309 590.09 171.309ZM597.574 171.093V157.515H599.242V171.093H597.574ZM601.83 171.093V157.515H603.498V171.093H601.83ZM606.607 175.039C606.392 175.039 606.176 175.022 605.961 174.986C605.746 174.95 605.543 174.89 605.351 174.806V173.317C605.483 173.341 605.644 173.365 605.836 173.389C606.039 173.425 606.236 173.443 606.428 173.443C606.99 173.443 607.414 173.317 607.701 173.066C608 172.827 608.281 172.409 608.544 171.811L609.154 170.358L609.118 171.811L604.993 161.425H606.804L610.015 169.676H609.477L612.67 161.425H614.517L610.159 172.241C609.955 172.755 609.692 173.222 609.369 173.64C609.058 174.071 608.676 174.412 608.221 174.663C607.767 174.914 607.229 175.039 606.607 175.039ZM615.965 171.093V168.941H617.705V171.093H615.965Z" fill="#0D3BFF"/>
<rect x="363.264" y="213.593" width="241.514" height="69" rx="16" fill="#0D3BFF"/>
<path d="M451.719 255.593L456.329 242.229H459.486L464.095 255.593H461.441L460.49 252.723H455.324L454.355 255.593H451.719ZM456.024 250.57H459.79L457.566 243.916H458.248L456.024 250.57ZM469.735 255.808C468.766 255.808 467.893 255.587 467.116 255.144C466.35 254.69 465.747 254.08 465.304 253.315C464.862 252.537 464.64 251.664 464.64 250.696C464.64 249.727 464.862 248.86 465.304 248.095C465.747 247.33 466.35 246.726 467.116 246.283C467.893 245.841 468.766 245.62 469.735 245.62C470.428 245.62 471.074 245.745 471.672 245.996C472.27 246.235 472.784 246.57 473.215 247.001C473.657 247.419 473.974 247.922 474.165 248.508L472.102 249.404C471.923 248.914 471.618 248.519 471.188 248.221C470.769 247.922 470.285 247.772 469.735 247.772C469.22 247.772 468.76 247.898 468.353 248.149C467.959 248.4 467.648 248.747 467.421 249.189C467.194 249.632 467.08 250.14 467.08 250.714C467.08 251.288 467.194 251.796 467.421 252.238C467.648 252.681 467.959 253.028 468.353 253.279C468.76 253.53 469.22 253.656 469.735 253.656C470.297 253.656 470.787 253.506 471.206 253.207C471.624 252.908 471.923 252.508 472.102 252.005L474.165 252.938C473.974 253.488 473.663 253.984 473.232 254.427C472.802 254.857 472.288 255.198 471.69 255.449C471.092 255.688 470.44 255.808 469.735 255.808ZM480.648 255.808C479.679 255.808 478.806 255.587 478.029 255.144C477.264 254.69 476.66 254.08 476.217 253.315C475.775 252.537 475.554 251.664 475.554 250.696C475.554 249.727 475.775 248.86 476.217 248.095C476.66 247.33 477.264 246.726 478.029 246.283C478.806 245.841 479.679 245.62 480.648 245.62C481.341 245.62 481.987 245.745 482.585 245.996C483.183 246.235 483.697 246.57 484.128 247.001C484.57 247.419 484.887 247.922 485.078 248.508L483.015 249.404C482.836 248.914 482.531 248.519 482.101 248.221C481.682 247.922 481.198 247.772 480.648 247.772C480.134 247.772 479.673 247.898 479.267 248.149C478.872 248.4 478.561 248.747 478.334 249.189C478.107 249.632 477.993 250.14 477.993 250.714C477.993 251.288 478.107 251.796 478.334 252.238C478.561 252.681 478.872 253.028 479.267 253.279C479.673 253.53 480.134 253.656 480.648 253.656C481.21 253.656 481.7 253.506 482.119 253.207C482.537 252.908 482.836 252.508 483.015 252.005L485.078 252.938C484.887 253.488 484.576 253.984 484.146 254.427C483.715 254.857 483.201 255.198 482.603 255.449C482.005 255.688 481.353 255.808 480.648 255.808ZM491.489 255.808C490.485 255.808 489.606 255.581 488.852 255.126C488.099 254.672 487.513 254.056 487.094 253.279C486.676 252.502 486.467 251.641 486.467 250.696C486.467 249.715 486.676 248.848 487.094 248.095C487.525 247.33 488.105 246.726 488.834 246.283C489.576 245.841 490.401 245.62 491.31 245.62C492.075 245.62 492.745 245.745 493.319 245.996C493.905 246.247 494.401 246.594 494.807 247.037C495.214 247.479 495.525 247.987 495.74 248.561C495.955 249.123 496.063 249.733 496.063 250.391C496.063 250.558 496.051 250.732 496.027 250.911C496.015 251.09 495.985 251.246 495.938 251.377H488.404V249.584H494.61L493.498 250.427C493.606 249.877 493.576 249.386 493.408 248.956C493.253 248.525 492.99 248.185 492.619 247.934C492.26 247.682 491.824 247.557 491.31 247.557C490.819 247.557 490.383 247.682 490 247.934C489.618 248.173 489.325 248.531 489.121 249.01C488.93 249.476 488.858 250.044 488.906 250.714C488.858 251.312 488.936 251.844 489.139 252.31C489.354 252.765 489.665 253.117 490.072 253.369C490.491 253.62 490.969 253.745 491.507 253.745C492.045 253.745 492.5 253.632 492.87 253.404C493.253 253.177 493.552 252.872 493.767 252.49L495.668 253.422C495.477 253.889 495.178 254.301 494.772 254.66C494.365 255.019 493.881 255.3 493.319 255.503C492.769 255.706 492.159 255.808 491.489 255.808ZM497.844 259.18V245.835H500.051V247.772L499.835 247.288C500.17 246.762 500.625 246.355 501.199 246.068C501.773 245.769 502.436 245.62 503.19 245.62C504.11 245.62 504.942 245.847 505.683 246.301C506.424 246.756 507.01 247.366 507.441 248.131C507.883 248.896 508.105 249.757 508.105 250.714C508.105 251.659 507.889 252.52 507.459 253.297C507.028 254.074 506.442 254.69 505.701 255.144C504.959 255.587 504.116 255.808 503.172 255.808C502.466 255.808 501.814 255.671 501.217 255.395C500.631 255.108 500.164 254.702 499.817 254.176L500.194 253.709V259.18H497.844ZM502.903 253.656C503.441 253.656 503.919 253.53 504.338 253.279C504.756 253.028 505.079 252.681 505.306 252.238C505.545 251.796 505.665 251.288 505.665 250.714C505.665 250.14 505.545 249.638 505.306 249.207C505.079 248.765 504.756 248.418 504.338 248.167C503.919 247.904 503.441 247.772 502.903 247.772C502.388 247.772 501.922 247.898 501.504 248.149C501.097 248.4 500.774 248.753 500.535 249.207C500.308 249.65 500.194 250.152 500.194 250.714C500.194 251.288 500.308 251.796 500.535 252.238C500.774 252.681 501.097 253.028 501.504 253.279C501.922 253.53 502.388 253.656 502.903 253.656ZM514.169 255.7C513.069 255.7 512.214 255.401 511.604 254.804C511.006 254.194 510.707 253.339 510.707 252.238V247.934H509.021V245.835H509.201C509.679 245.835 510.05 245.709 510.313 245.458C510.576 245.207 510.707 244.842 510.707 244.364V243.611H513.057V245.835H515.299V247.934H513.057V252.113C513.057 252.436 513.111 252.711 513.219 252.938C513.338 253.165 513.518 253.339 513.757 253.458C514.008 253.578 514.325 253.638 514.707 253.638C514.791 253.638 514.887 253.632 514.994 253.62C515.114 253.608 515.228 253.596 515.335 253.584V255.593C515.168 255.617 514.976 255.641 514.761 255.665C514.546 255.688 514.349 255.7 514.169 255.7Z" fill="white"/>
<rect x="620.794" y="214.233" width="240.233" height="67.7188" rx="15.3594" fill="#F4F4F4"/>
<rect x="620.794" y="214.233" width="240.233" height="67.7188" rx="15.3594" stroke="#B4BBCC" stroke-width="1.28124"/>
<path d="M708.701 255.593V242.229H713.06C714.471 242.229 715.697 242.516 716.737 243.09C717.79 243.652 718.603 244.436 719.177 245.44C719.751 246.433 720.038 247.587 720.038 248.902C720.038 250.206 719.751 251.366 719.177 252.382C718.603 253.386 717.79 254.176 716.737 254.75C715.697 255.312 714.471 255.593 713.06 255.593H708.701ZM711.141 253.44H713.114C714.023 253.44 714.806 253.255 715.464 252.884C716.133 252.502 716.654 251.975 717.024 251.306C717.395 250.624 717.58 249.823 717.58 248.902C717.58 247.969 717.395 247.168 717.024 246.499C716.654 245.829 716.133 245.309 715.464 244.938C714.806 244.567 714.023 244.382 713.114 244.382H711.141V253.44ZM721.782 255.593V245.835H724.132V255.593H721.782ZM721.782 244.741V242.229H724.132V244.741H721.782ZM730.014 255.808C728.974 255.808 728.065 255.563 727.288 255.073C726.523 254.57 725.996 253.895 725.709 253.046L727.467 252.203C727.718 252.753 728.065 253.183 728.508 253.494C728.962 253.805 729.464 253.96 730.014 253.96C730.445 253.96 730.786 253.865 731.037 253.673C731.288 253.482 731.413 253.231 731.413 252.92C731.413 252.729 731.36 252.573 731.252 252.454C731.156 252.322 731.019 252.215 730.839 252.131C730.672 252.035 730.487 251.957 730.283 251.898L728.687 251.449C727.862 251.21 727.234 250.845 726.804 250.355C726.385 249.865 726.176 249.285 726.176 248.615C726.176 248.017 726.325 247.497 726.624 247.055C726.935 246.6 727.36 246.247 727.898 245.996C728.448 245.745 729.076 245.62 729.781 245.62C730.702 245.62 731.515 245.841 732.221 246.283C732.926 246.726 733.428 247.348 733.727 248.149L731.934 248.992C731.766 248.549 731.485 248.197 731.091 247.934C730.696 247.67 730.254 247.539 729.763 247.539C729.369 247.539 729.058 247.629 728.83 247.808C728.603 247.987 728.49 248.221 728.49 248.508C728.49 248.687 728.538 248.842 728.633 248.974C728.729 249.105 728.86 249.213 729.028 249.297C729.207 249.38 729.41 249.458 729.638 249.53L731.198 249.996C731.999 250.235 732.615 250.594 733.046 251.073C733.488 251.551 733.709 252.137 733.709 252.83C733.709 253.416 733.554 253.937 733.243 254.391C732.932 254.833 732.502 255.18 731.952 255.431C731.402 255.682 730.756 255.808 730.014 255.808ZM735.515 255.593V245.835H737.722V248.095L737.47 247.718C737.65 247.013 738.009 246.487 738.547 246.14C739.085 245.793 739.719 245.62 740.448 245.62C741.249 245.62 741.955 245.829 742.565 246.247C743.175 246.666 743.569 247.216 743.748 247.898L743.085 247.951C743.384 247.174 743.832 246.594 744.43 246.212C745.028 245.817 745.716 245.62 746.493 245.62C747.186 245.62 747.802 245.775 748.34 246.086C748.891 246.397 749.321 246.833 749.632 247.395C749.943 247.945 750.098 248.585 750.098 249.315V255.593H747.749V249.871C747.749 249.44 747.671 249.07 747.515 248.759C747.36 248.448 747.145 248.209 746.87 248.041C746.595 247.862 746.26 247.772 745.865 247.772C745.494 247.772 745.166 247.862 744.879 248.041C744.592 248.209 744.37 248.448 744.215 248.759C744.059 249.07 743.982 249.44 743.982 249.871V255.593H741.632V249.871C741.632 249.44 741.554 249.07 741.399 248.759C741.243 248.448 741.022 248.209 740.735 248.041C740.46 247.862 740.131 247.772 739.748 247.772C739.378 247.772 739.049 247.862 738.762 248.041C738.475 248.209 738.254 248.448 738.098 248.759C737.943 249.07 737.865 249.44 737.865 249.871V255.593H735.515ZM752.086 255.593V245.835H754.436V255.593H752.086ZM752.086 244.741V242.229H754.436V244.741H752.086ZM760.319 255.808C759.278 255.808 758.37 255.563 757.592 255.073C756.827 254.57 756.301 253.895 756.014 253.046L757.772 252.203C758.023 252.753 758.37 253.183 758.812 253.494C759.266 253.805 759.769 253.96 760.319 253.96C760.749 253.96 761.09 253.865 761.341 253.673C761.592 253.482 761.718 253.231 761.718 252.92C761.718 252.729 761.664 252.573 761.556 252.454C761.461 252.322 761.323 252.215 761.144 252.131C760.976 252.035 760.791 251.957 760.588 251.898L758.991 251.449C758.166 251.21 757.538 250.845 757.108 250.355C756.689 249.865 756.48 249.285 756.48 248.615C756.48 248.017 756.63 247.497 756.929 247.055C757.239 246.6 757.664 246.247 758.202 245.996C758.752 245.745 759.38 245.62 760.086 245.62C761.006 245.62 761.819 245.841 762.525 246.283C763.231 246.726 763.733 247.348 764.032 248.149L762.238 248.992C762.071 248.549 761.79 248.197 761.395 247.934C761 247.67 760.558 247.539 760.068 247.539C759.673 247.539 759.362 247.629 759.135 247.808C758.908 247.987 758.794 248.221 758.794 248.508C758.794 248.687 758.842 248.842 758.938 248.974C759.033 249.105 759.165 249.213 759.332 249.297C759.512 249.38 759.715 249.458 759.942 249.53L761.503 249.996C762.304 250.235 762.92 250.594 763.35 251.073C763.793 251.551 764.014 252.137 764.014 252.83C764.014 253.416 763.858 253.937 763.547 254.391C763.237 254.833 762.806 255.18 762.256 255.431C761.706 255.682 761.06 255.808 760.319 255.808ZM769.533 255.808C768.492 255.808 767.583 255.563 766.806 255.073C766.041 254.57 765.515 253.895 765.228 253.046L766.986 252.203C767.237 252.753 767.583 253.183 768.026 253.494C768.48 253.805 768.983 253.96 769.533 253.96C769.963 253.96 770.304 253.865 770.555 253.673C770.806 253.482 770.932 253.231 770.932 252.92C770.932 252.729 770.878 252.573 770.77 252.454C770.675 252.322 770.537 252.215 770.358 252.131C770.19 252.035 770.005 251.957 769.802 251.898L768.205 251.449C767.38 251.21 766.752 250.845 766.322 250.355C765.903 249.865 765.694 249.285 765.694 248.615C765.694 248.017 765.844 247.497 766.142 247.055C766.453 246.6 766.878 246.247 767.416 245.996C767.966 245.745 768.594 245.62 769.299 245.62C770.22 245.62 771.033 245.841 771.739 246.283C772.444 246.726 772.947 247.348 773.246 248.149L771.452 248.992C771.285 248.549 771.003 248.197 770.609 247.934C770.214 247.67 769.772 247.539 769.282 247.539C768.887 247.539 768.576 247.629 768.349 247.808C768.122 247.987 768.008 248.221 768.008 248.508C768.008 248.687 768.056 248.842 768.151 248.974C768.247 249.105 768.379 249.213 768.546 249.297C768.725 249.38 768.929 249.458 769.156 249.53L770.716 249.996C771.518 250.235 772.134 250.594 772.564 251.073C773.006 251.551 773.228 252.137 773.228 252.83C773.228 253.416 773.072 253.937 772.761 254.391C772.45 254.833 772.02 255.18 771.47 255.431C770.92 255.682 770.274 255.808 769.533 255.808Z" fill="#25253C"/>
<path d="M898.729 153.468C898.729 122.153 924.115 96.7671 955.431 96.7671C986.746 96.7671 1012.13 122.153 1012.13 153.468C1012.13 184.783 986.746 210.169 955.431 210.169C924.115 210.169 898.729 184.783 898.729 153.468Z" fill="#EDEDED"/>
<g clip-path="url(#clip3_1476_1822)">
<path d="M932.75 130.788H978.111V176.148H932.75V130.788Z" fill="#ED232A"/>
<path d="M940.689 138.727H970.177V168.215H940.689V138.727Z" fill="white"/>
<path d="M953.163 130.788H957.697V176.148H953.163V130.788Z" fill="white"/>
<path d="M932.75 151.206H978.111V155.741H932.75V151.206Z" fill="white"/>
<path d="M948.628 146.666H962.237V160.275H948.628V146.666Z" fill="#004C8F"/>
</g>
<g opacity="0.8">
<path d="M1026.13 153.468C1026.13 125.743 1048.61 103.268 1076.33 103.268C1104.06 103.268 1126.53 125.743 1126.53 153.468C1126.53 181.193 1104.06 203.668 1076.33 203.668C1048.61 203.668 1026.13 181.193 1026.13 153.468Z" fill="#EDEDED"/>
<g clip-path="url(#clip4_1476_1822)">
<path d="M1086.38 143.422H1066.31V163.491H1086.38V143.422Z" fill="white"/>
<path d="M1096.41 153.48L1086.38 143.422V163.514L1096.41 153.48Z" fill="#DB0011"/>
<path d="M1076.34 153.48L1086.38 143.422H1066.31L1076.34 153.48Z" fill="#DB0011"/>
<path d="M1056.25 153.48L1066.31 163.514V143.422L1056.25 153.48Z" fill="#DB0011"/>
<path d="M1076.34 153.48L1066.31 163.514H1086.38L1076.34 153.48Z" fill="#DB0011"/>
</g>
</g>
<g opacity="0.6">
<path d="M1140.53 153.468C1140.53 130.162 1159.43 111.268 1182.73 111.268C1206.04 111.268 1224.93 130.162 1224.93 153.468C1224.93 176.774 1206.04 195.668 1182.73 195.668C1159.43 195.668 1140.53 176.774 1140.53 153.468Z" fill="#EDEDED"/>
<g clip-path="url(#clip5_1476_1822)">
<path d="M1175.97 143.921C1183.68 136.269 1193.03 134.283 1196.77 139.498C1200.51 144.714 1197.22 155.256 1189.52 162.909C1181.81 170.618 1172.45 172.601 1168.65 167.329C1164.97 162.059 1168.26 151.571 1175.97 143.921Z" fill="#F06321"/>
<path d="M1181.07 139.839C1180.22 140.462 1179.37 141.199 1178.52 141.995C1171.77 148.681 1168.94 157.863 1172.28 162.456C1175.74 167.045 1184.02 165.346 1190.93 158.6C1194.67 154.973 1197.17 150.777 1198.19 146.868C1198.47 143.978 1198.07 141.425 1196.77 139.499C1193.82 135.419 1187.48 135.756 1181.07 139.839Z" fill="#AE282E"/>
<path d="M1190.82 140.688V140.858C1190.76 141.822 1190.2 143.012 1189.18 144.031C1187.65 145.505 1185.61 146.071 1184.75 145.224C1183.79 144.318 1184.36 142.332 1185.89 140.745C1187.48 139.215 1189.52 138.705 1190.37 139.612C1190.65 139.895 1190.82 140.235 1190.82 140.688ZM1184.93 166.705C1181.3 169.425 1177.56 170.788 1173.93 170.221C1175.46 170.278 1176.71 168.575 1177.73 166.309C1178.75 163.985 1179.31 161.832 1179.82 159.789C1180.56 156.56 1180.62 154.293 1180.22 153.783C1179.6 152.987 1178.24 153.16 1176.65 154.066C1175.85 154.52 1174.83 154.236 1176.03 152.763C1177.27 151.29 1182.09 147.774 1183.79 147.207C1185.72 146.697 1187.87 147.434 1187.14 149.531C1186.62 151.06 1179.94 168.518 1184.93 166.705Z" fill="white"/>
</g>
</g>
<defs>
<linearGradient id="paint0_linear_1476_1822" x1="884.729" y1="153.468" x2="340.202" y2="153.468" gradientUnits="userSpaceOnUse">
<stop stop-color="white"/>
<stop offset="1" stop-color="#ECEDFF"/>
</linearGradient>
<clipPath id="clip0_1476_1822">
<rect width="33.76" height="33.76" fill="white" transform="translate(25.3201 136.588)"/>
</clipPath>
<clipPath id="clip1_1476_1822">
<rect width="40.16" height="40.16" fill="white" transform="translate(128.52 133.388)"/>
</clipPath>
<clipPath id="clip2_1476_1822">
<rect width="45.3608" height="45.3608" fill="white" transform="translate(246.821 130.788)"/>
</clipPath>
<clipPath id="clip3_1476_1822">
<rect width="45.3608" height="45.3608" fill="white" transform="translate(932.75 130.788)"/>
</clipPath>
<clipPath id="clip4_1476_1822">
<rect width="40.16" height="40.16" fill="white" transform="translate(1056.25 133.388)"/>
</clipPath>
<clipPath id="clip5_1476_1822">
<rect width="33.76" height="33.76" fill="white" transform="translate(1165.85 136.588)"/>
</clipPath>
</defs>
</svg>
