<svg width="548" height="307" viewBox="0 0 548 307" fill="none" xmlns="http://www.w3.org/2000/svg">
<rect x="0.64063" y="0.64063" width="545.809" height="305.655" rx="36.6406" fill="url(#paint0_linear_1476_1829)"/>
<rect x="0.64063" y="0.64063" width="545.809" height="305.655" rx="36.6406" stroke="#CBCEFF" stroke-width="1.28124"/>
<path d="M49.7387 31.6206L50.3134 36.1927C51.1813 43.0924 56.6149 48.526 63.5146 49.394L68.0878 49.9686L63.5146 50.5433C56.6149 51.4113 51.1813 56.8449 50.3134 63.7446L49.7387 68.3167L49.164 63.7446C48.296 56.8449 42.8624 51.4102 35.9627 50.5433L31.3906 49.9686L35.9627 49.394C42.8624 48.526 48.296 43.0924 49.164 36.1927L49.7387 31.6206Z" fill="#0D3BFE"/>
<path d="M62.7807 31.6206L62.9613 33.0573C63.234 35.2254 64.9414 36.9329 67.1094 37.2056L68.5464 37.3862L67.1094 37.5668C64.9414 37.8395 63.234 39.5469 62.9613 41.7151L62.7807 43.1518L62.6001 41.7151C62.3274 39.5469 60.62 37.8392 58.4519 37.5668L57.0153 37.3862L58.4519 37.2056C60.62 36.9329 62.3274 35.2254 62.6001 33.0573L62.7807 31.6206Z" fill="#0D3BFE"/>
<path d="M88.6593 58.9688L94.471 41.7873H99.2219L105.034 58.9688H101.136L99.9829 55.4633H93.6869L92.5338 58.9688H88.6593ZM94.6786 52.3499H98.9912L96.3621 44.2319H97.3308L94.6786 52.3499ZM106.819 58.9688V41.7873H110.394V58.9688H106.819ZM117.585 58.9688V41.7873H124.157C125.341 41.7873 126.387 41.9949 127.294 42.41C128.216 42.8251 128.939 43.4401 129.462 44.255C129.984 45.0699 130.246 46.0769 130.246 47.2761C130.246 48.4446 129.977 49.444 129.439 50.2743C128.9 51.0891 128.178 51.7041 127.271 52.1192L131.191 58.9688H127.178L122.935 51.3812L125.241 52.7419H121.159V58.9688H117.585ZM121.159 49.6285H124.18C124.688 49.6285 125.126 49.5286 125.495 49.3287C125.864 49.1288 126.148 48.8521 126.348 48.4985C126.563 48.1448 126.671 47.7374 126.671 47.2761C126.671 46.7995 126.563 46.3844 126.348 46.0308C126.148 45.6772 125.864 45.4004 125.495 45.2005C125.126 45.0007 124.688 44.9007 124.18 44.9007H121.159V49.6285ZM138.08 59.2455C136.743 59.2455 135.582 58.9534 134.598 58.3691C133.614 57.7695 132.853 56.97 132.315 55.9706C131.777 54.9713 131.508 53.8643 131.508 52.6497C131.508 51.3889 131.784 50.2666 132.338 49.2826C132.907 48.2986 133.668 47.5221 134.621 46.9533C135.574 46.3844 136.651 46.1 137.85 46.1C138.849 46.1 139.733 46.2614 140.502 46.5843C141.271 46.8918 141.916 47.33 142.439 47.8988C142.977 48.4677 143.385 49.1288 143.662 49.8822C143.938 50.6202 144.077 51.4274 144.077 52.3037C144.077 52.5497 144.061 52.7957 144.031 53.0417C144.015 53.2724 143.977 53.4722 143.915 53.6414H134.483V51.1045H141.955L140.318 52.3037C140.471 51.6426 140.464 51.0584 140.294 50.551C140.125 50.0283 139.826 49.6208 139.395 49.3287C138.98 49.0212 138.465 48.8674 137.85 48.8674C137.25 48.8674 136.735 49.0135 136.305 49.3056C135.874 49.5978 135.551 50.0283 135.336 50.5971C135.121 51.166 135.036 51.8579 135.082 52.6727C135.021 53.38 135.105 54.0027 135.336 54.5408C135.567 55.0789 135.92 55.5017 136.397 55.8092C136.874 56.1013 137.45 56.2474 138.127 56.2474C138.742 56.2474 139.264 56.1244 139.695 55.8784C140.141 55.6324 140.487 55.2942 140.733 54.8637L143.5 56.1782C143.254 56.7932 142.862 57.3313 142.324 57.7926C141.801 58.2538 141.178 58.6151 140.456 58.8765C139.733 59.1225 138.941 59.2455 138.08 59.2455ZM152.294 59.2455C151.034 59.2455 149.896 58.9611 148.881 58.3922C147.882 57.8079 147.082 57.0161 146.483 56.0168C145.898 55.0174 145.606 53.895 145.606 52.6497C145.606 51.4043 145.898 50.2896 146.483 49.3056C147.067 48.3063 147.866 47.5221 148.881 46.9533C149.896 46.3844 151.034 46.1 152.294 46.1C153.232 46.1 154.101 46.2614 154.9 46.5843C155.7 46.9072 156.384 47.3607 156.953 47.945C157.522 48.5138 157.929 49.1903 158.175 49.9744L155.177 51.2659C154.962 50.6356 154.593 50.1359 154.07 49.7669C153.563 49.3979 152.971 49.2134 152.294 49.2134C151.695 49.2134 151.157 49.3594 150.68 49.6516C150.219 49.9437 149.85 50.3511 149.573 50.8739C149.312 51.3966 149.181 51.9962 149.181 52.6727C149.181 53.3492 149.312 53.9488 149.573 54.4716C149.85 54.9943 150.219 55.4018 150.68 55.6939C151.157 55.986 151.695 56.1321 152.294 56.1321C152.986 56.1321 153.586 55.9476 154.093 55.5786C154.601 55.2096 154.962 54.7099 155.177 54.0795L158.175 55.3941C157.945 56.1321 157.545 56.7932 156.976 57.3774C156.407 57.9617 155.723 58.4229 154.924 58.7612C154.124 59.0841 153.248 59.2455 152.294 59.2455ZM166.462 59.2455C165.217 59.2455 164.079 58.9611 163.049 58.3922C162.034 57.8233 161.219 57.0469 160.604 56.0629C160.005 55.0635 159.705 53.9335 159.705 52.6727C159.705 51.3966 160.005 50.2666 160.604 49.2826C161.219 48.2986 162.034 47.5221 163.049 46.9533C164.079 46.3844 165.217 46.1 166.462 46.1C167.708 46.1 168.838 46.3844 169.852 46.9533C170.867 47.5221 171.674 48.2986 172.274 49.2826C172.889 50.2666 173.196 51.3966 173.196 52.6727C173.196 53.9335 172.889 55.0635 172.274 56.0629C171.674 57.0469 170.867 57.8233 169.852 58.3922C168.838 58.9611 167.708 59.2455 166.462 59.2455ZM166.462 56.1321C167.093 56.1321 167.638 55.986 168.1 55.6939C168.576 55.4018 168.945 54.9943 169.207 54.4716C169.483 53.9488 169.622 53.3492 169.622 52.6727C169.622 51.9962 169.483 51.4043 169.207 50.8969C168.945 50.3742 168.576 49.9668 168.1 49.6746C167.638 49.3671 167.093 49.2134 166.462 49.2134C165.832 49.2134 165.278 49.3671 164.802 49.6746C164.325 49.9668 163.948 50.3742 163.672 50.8969C163.41 51.4043 163.28 51.9962 163.28 52.6727C163.28 53.3492 163.41 53.9488 163.672 54.4716C163.948 54.9943 164.325 55.4018 164.802 55.6939C165.278 55.986 165.832 56.1321 166.462 56.1321ZM175.234 58.9688V46.3767H178.463V49.444L178.117 48.9366C178.302 47.968 178.748 47.2531 179.455 46.7918C180.162 46.3306 181.008 46.1 181.992 46.1C183.037 46.1 183.952 46.369 184.736 46.9072C185.536 47.4299 186.035 48.1371 186.235 49.0289L185.243 49.1211C185.659 48.091 186.251 47.33 187.019 46.838C187.788 46.346 188.687 46.1 189.718 46.1C190.625 46.1 191.424 46.2998 192.116 46.6996C192.823 47.0993 193.377 47.6605 193.777 48.3831C194.176 49.0904 194.376 49.9206 194.376 50.8739V58.9688H190.917V51.6119C190.917 51.1199 190.825 50.6971 190.64 50.3434C190.471 49.9898 190.225 49.7131 189.902 49.5132C189.579 49.3133 189.187 49.2134 188.726 49.2134C188.28 49.2134 187.888 49.3133 187.55 49.5132C187.227 49.7131 186.973 49.9898 186.789 50.3434C186.62 50.6971 186.535 51.1199 186.535 51.6119V58.9688H183.076V51.6119C183.076 51.1199 182.983 50.6971 182.799 50.3434C182.63 49.9898 182.384 49.7131 182.061 49.5132C181.738 49.3133 181.346 49.2134 180.885 49.2134C180.439 49.2134 180.047 49.3133 179.709 49.5132C179.386 49.7131 179.132 49.9898 178.947 50.3434C178.778 50.6971 178.694 51.1199 178.694 51.6119V58.9688H175.234ZM196.653 58.9688V46.3767H199.881V49.444L199.535 48.9366C199.72 47.968 200.166 47.2531 200.873 46.7918C201.58 46.3306 202.426 46.1 203.41 46.1C204.455 46.1 205.37 46.369 206.154 46.9072C206.954 47.4299 207.454 48.1371 207.653 49.0289L206.662 49.1211C207.077 48.091 207.669 47.33 208.438 46.838C209.206 46.346 210.106 46.1 211.136 46.1C212.043 46.1 212.842 46.2998 213.534 46.6996C214.242 47.0993 214.795 47.6605 215.195 48.3831C215.595 49.0904 215.794 49.9206 215.794 50.8739V58.9688H212.335V51.6119C212.335 51.1199 212.243 50.6971 212.058 50.3434C211.889 49.9898 211.643 49.7131 211.32 49.5132C210.997 49.3133 210.605 49.2134 210.144 49.2134C209.698 49.2134 209.306 49.3133 208.968 49.5132C208.645 49.7131 208.391 49.9898 208.207 50.3434C208.038 50.6971 207.953 51.1199 207.953 51.6119V58.9688H204.494V51.6119C204.494 51.1199 204.402 50.6971 204.217 50.3434C204.048 49.9898 203.802 49.7131 203.479 49.5132C203.156 49.3133 202.764 49.2134 202.303 49.2134C201.857 49.2134 201.465 49.3133 201.127 49.5132C200.804 49.7131 200.55 49.9898 200.366 50.3434C200.197 50.6971 200.112 51.1199 200.112 51.6119V58.9688H196.653ZM224.136 59.2455C222.799 59.2455 221.638 58.9534 220.654 58.3691C219.67 57.7695 218.909 56.97 218.371 55.9706C217.833 54.9713 217.564 53.8643 217.564 52.6497C217.564 51.3889 217.84 50.2666 218.394 49.2826C218.963 48.2986 219.724 47.5221 220.677 46.9533C221.63 46.3844 222.706 46.1 223.906 46.1C224.905 46.1 225.789 46.2614 226.558 46.5843C227.327 46.8918 227.972 47.33 228.495 47.8988C229.033 48.4677 229.441 49.1288 229.717 49.8822C229.994 50.6202 230.132 51.4274 230.132 52.3037C230.132 52.5497 230.117 52.7957 230.086 53.0417C230.071 53.2724 230.033 53.4722 229.971 53.6414H220.539V51.1045H228.011L226.373 52.3037C226.527 51.6426 226.519 51.0584 226.35 50.551C226.181 50.0283 225.881 49.6208 225.451 49.3287C225.036 49.0212 224.521 48.8674 223.906 48.8674C223.306 48.8674 222.791 49.0135 222.36 49.3056C221.93 49.5978 221.607 50.0283 221.392 50.5971C221.177 51.166 221.092 51.8579 221.138 52.6727C221.077 53.38 221.161 54.0027 221.392 54.5408C221.622 55.0789 221.976 55.5017 222.453 55.8092C222.929 56.1013 223.506 56.2474 224.182 56.2474C224.797 56.2474 225.32 56.1244 225.751 55.8784C226.197 55.6324 226.542 55.2942 226.788 54.8637L229.556 56.1782C229.31 56.7932 228.918 57.3313 228.38 57.7926C227.857 58.2538 227.234 58.6151 226.512 58.8765C225.789 59.1225 224.997 59.2455 224.136 59.2455ZM232.17 58.9688V46.3767H235.398V48.8674L235.214 48.314C235.506 47.5606 235.975 47.0071 236.621 46.6535C237.282 46.2845 238.05 46.1 238.927 46.1C239.88 46.1 240.71 46.2998 241.418 46.6996C242.14 47.0993 242.701 47.6605 243.101 48.3831C243.501 49.0904 243.701 49.9206 243.701 50.8739V58.9688H240.241V51.6119C240.241 51.1199 240.141 50.6971 239.942 50.3434C239.757 49.9898 239.488 49.7131 239.134 49.5132C238.796 49.3133 238.396 49.2134 237.935 49.2134C237.489 49.2134 237.09 49.3133 236.736 49.5132C236.382 49.7131 236.106 49.9898 235.906 50.3434C235.721 50.6971 235.629 51.1199 235.629 51.6119V58.9688H232.17ZM251.902 59.2455C250.672 59.2455 249.573 58.9534 248.605 58.3691C247.636 57.7849 246.867 56.9931 246.298 55.9937C245.745 54.9943 245.468 53.8873 245.468 52.6727C245.468 51.4427 245.752 50.3358 246.321 49.3518C246.89 48.3524 247.659 47.5606 248.628 46.9763C249.596 46.3921 250.68 46.1 251.879 46.1C252.802 46.1 253.617 46.2768 254.324 46.6304C255.047 46.9687 255.615 47.453 256.031 48.0833L255.5 48.7752V41.5106H258.959V58.9688H255.731V56.6625L256.054 57.3774C255.623 57.9924 255.039 58.4614 254.301 58.7843C253.563 59.0917 252.763 59.2455 251.902 59.2455ZM252.318 56.1321C252.948 56.1321 253.501 55.986 253.978 55.6939C254.455 55.4018 254.824 54.9943 255.085 54.4716C255.362 53.9488 255.5 53.3492 255.5 52.6727C255.5 51.9962 255.362 51.3966 255.085 50.8739C254.824 50.3511 254.455 49.9437 253.978 49.6516C253.501 49.3594 252.948 49.2134 252.318 49.2134C251.687 49.2134 251.118 49.3671 250.611 49.6746C250.119 49.9668 249.735 50.3742 249.458 50.8969C249.181 51.4043 249.043 51.9962 249.043 52.6727C249.043 53.3492 249.181 53.9488 249.458 54.4716C249.735 54.9943 250.119 55.4018 250.611 55.6939C251.118 55.986 251.687 56.1321 252.318 56.1321ZM265.39 59.2455C264.483 59.2455 263.699 59.0994 263.038 58.8073C262.377 58.5152 261.87 58.1001 261.516 57.5619C261.162 57.0085 260.986 56.355 260.986 55.6016C260.986 54.8944 261.147 54.2717 261.47 53.7336C261.793 53.1801 262.285 52.7189 262.946 52.3499C263.622 51.9809 264.46 51.7195 265.46 51.5657L269.311 50.9431V53.4799L266.082 54.0565C265.59 54.1487 265.214 54.3102 264.952 54.5408C264.691 54.756 264.56 55.0712 264.56 55.4863C264.56 55.8707 264.706 56.1705 264.998 56.3858C265.291 56.601 265.652 56.7086 266.082 56.7086C266.651 56.7086 267.151 56.5856 267.581 56.3396C268.012 56.0936 268.342 55.7631 268.573 55.348C268.819 54.9175 268.942 54.4485 268.942 53.9412V50.6663C268.942 50.1897 268.75 49.7899 268.366 49.4671C267.997 49.1442 267.489 48.9828 266.843 48.9828C266.228 48.9828 265.683 49.1519 265.206 49.4901C264.745 49.8284 264.406 50.2743 264.191 50.8277L261.424 49.5132C261.67 48.8059 262.062 48.1986 262.6 47.6913C263.138 47.1839 263.784 46.7918 264.537 46.5151C265.291 46.2383 266.113 46.1 267.005 46.1C268.066 46.1 269.004 46.2922 269.818 46.6765C270.633 47.0609 271.264 47.599 271.71 48.2909C272.171 48.9674 272.401 49.7592 272.401 50.6663V58.9688H269.173V56.9393L269.957 56.8009C269.588 57.3544 269.18 57.8156 268.735 58.1846C268.289 58.5383 267.789 58.7996 267.235 58.9688C266.682 59.1532 266.067 59.2455 265.39 59.2455ZM280.779 59.1071C279.257 59.1071 278.073 58.6997 277.227 57.8848C276.397 57.0546 275.982 55.9015 275.982 54.4255V49.3748H273.86V46.3767H273.975C274.621 46.3767 275.113 46.2153 275.451 45.8924C275.805 45.5695 275.982 45.0852 275.982 44.4395V43.517H279.441V46.3767H282.393V49.3748H279.441V54.1948C279.441 54.6253 279.518 54.9867 279.672 55.2788C279.825 55.5555 280.064 55.7631 280.387 55.9015C280.709 56.0398 281.109 56.109 281.586 56.109C281.693 56.109 281.816 56.1013 281.955 56.086C282.093 56.0706 282.239 56.0552 282.393 56.0398V58.9688C282.162 58.9995 281.901 59.0302 281.609 59.061C281.317 59.0917 281.04 59.1071 280.779 59.1071ZM284.42 58.9688V46.3767H287.879V58.9688H284.42ZM284.42 45.2467V41.7873H287.879V45.2467H284.42ZM296.661 59.2455C295.415 59.2455 294.278 58.9611 293.248 58.3922C292.233 57.8233 291.418 57.0469 290.803 56.0629C290.203 55.0635 289.904 53.9335 289.904 52.6727C289.904 51.3966 290.203 50.2666 290.803 49.2826C291.418 48.2986 292.233 47.5221 293.248 46.9533C294.278 46.3844 295.415 46.1 296.661 46.1C297.906 46.1 299.036 46.3844 300.051 46.9533C301.066 47.5221 301.873 48.2986 302.473 49.2826C303.088 50.2666 303.395 51.3966 303.395 52.6727C303.395 53.9335 303.088 55.0635 302.473 56.0629C301.873 57.0469 301.066 57.8233 300.051 58.3922C299.036 58.9611 297.906 59.2455 296.661 59.2455ZM296.661 56.1321C297.291 56.1321 297.837 55.986 298.298 55.6939C298.775 55.4018 299.144 54.9943 299.405 54.4716C299.682 53.9488 299.82 53.3492 299.82 52.6727C299.82 51.9962 299.682 51.4043 299.405 50.8969C299.144 50.3742 298.775 49.9668 298.298 49.6746C297.837 49.3671 297.291 49.2134 296.661 49.2134C296.03 49.2134 295.477 49.3671 295 49.6746C294.524 49.9668 294.147 50.3742 293.87 50.8969C293.609 51.4043 293.478 51.9962 293.478 52.6727C293.478 53.3492 293.609 53.9488 293.87 54.4716C294.147 54.9943 294.524 55.4018 295 55.6939C295.477 55.986 296.03 56.1321 296.661 56.1321ZM305.433 58.9688V46.3767H308.662V48.8674L308.477 48.314C308.769 47.5606 309.238 47.0071 309.884 46.6535C310.545 46.2845 311.314 46.1 312.19 46.1C313.143 46.1 313.974 46.2998 314.681 46.6996C315.404 47.0993 315.965 47.6605 316.365 48.3831C316.764 49.0904 316.964 49.9206 316.964 50.8739V58.9688H313.505V51.6119C313.505 51.1199 313.405 50.6971 313.205 50.3434C313.02 49.9898 312.751 49.7131 312.398 49.5132C312.06 49.3133 311.66 49.2134 311.199 49.2134C310.753 49.2134 310.353 49.3133 309.999 49.5132C309.646 49.7131 309.369 49.9898 309.169 50.3434C308.985 50.6971 308.892 51.1199 308.892 51.6119V58.9688H305.433Z" fill="#0D3BFF"/>
<rect x="24.5936" y="96.3433" width="497.903" height="96.5" rx="15.75" fill="white"/>
<rect x="24.5936" y="96.3433" width="497.903" height="96.5" rx="15.75" stroke="#575DFF" stroke-width="0.5"/>
<path d="M41.6351 132.093V118.73H43.967L48.9715 125.528H47.8594L52.7563 118.73H55.0881V132.093H52.6307V121.51L53.5814 121.743L48.5051 128.506H48.2181L43.2674 121.743L44.0746 121.51V132.093H41.6351ZM62.2196 132.309C61.263 132.309 60.39 132.087 59.6008 131.645C58.8235 131.202 58.2017 130.598 57.7353 129.833C57.2809 129.068 57.0537 128.195 57.0537 127.214C57.0537 126.234 57.2809 125.361 57.7353 124.595C58.2017 123.83 58.8235 123.226 59.6008 122.784C60.3781 122.341 61.251 122.12 62.2196 122.12C63.1763 122.12 64.0433 122.341 64.8206 122.784C65.5979 123.226 66.2137 123.83 66.6681 124.595C67.1345 125.349 67.3677 126.222 67.3677 127.214C67.3677 128.195 67.1345 129.068 66.6681 129.833C66.2017 130.598 65.5799 131.202 64.8026 131.645C64.0253 132.087 63.1644 132.309 62.2196 132.309ZM62.2196 130.156C62.7458 130.156 63.2062 130.03 63.6008 129.779C64.0074 129.528 64.3243 129.181 64.5515 128.739C64.7907 128.285 64.9103 127.776 64.9103 127.214C64.9103 126.64 64.7907 126.138 64.5515 125.708C64.3243 125.265 64.0074 124.918 63.6008 124.667C63.2062 124.404 62.7458 124.273 62.2196 124.273C61.6815 124.273 61.2092 124.404 60.8026 124.667C60.396 124.918 60.0731 125.265 59.834 125.708C59.6068 126.138 59.4932 126.64 59.4932 127.214C59.4932 127.776 59.6068 128.285 59.834 128.739C60.0731 129.181 60.396 129.528 60.8026 129.779C61.2092 130.03 61.6815 130.156 62.2196 130.156ZM71.9162 132.093L68.0776 122.335H70.6426L73.4229 130.013H72.4723L75.2705 122.335H77.8355L73.9969 132.093H71.9162ZM83.587 132.309C82.5825 132.309 81.7036 132.081 80.9502 131.627C80.1968 131.172 79.6109 130.557 79.1923 129.779C78.7738 129.002 78.5645 128.141 78.5645 127.196C78.5645 126.216 78.7738 125.349 79.1923 124.595C79.6228 123.83 80.2028 123.226 80.9322 122.784C81.6737 122.341 82.4988 122.12 83.4076 122.12C84.1729 122.12 84.8426 122.246 85.4166 122.497C86.0025 122.748 86.4988 123.095 86.9054 123.537C87.312 123.98 87.6229 124.488 87.8381 125.062C88.0534 125.624 88.161 126.234 88.161 126.891C88.161 127.059 88.1491 127.232 88.1251 127.412C88.1132 127.591 88.0833 127.746 88.0354 127.878H80.5018V126.084H86.7081L85.596 126.927C85.7036 126.377 85.6737 125.887 85.5063 125.456C85.3508 125.026 85.0877 124.685 84.717 124.434C84.3583 124.183 83.9218 124.057 83.4076 124.057C82.9173 124.057 82.4808 124.183 82.0982 124.434C81.7155 124.673 81.4225 125.032 81.2192 125.51C81.0279 125.977 80.9562 126.545 81.004 127.214C80.9562 127.812 81.0339 128.344 81.2372 128.811C81.4524 129.265 81.7633 129.618 82.1699 129.869C82.5885 130.12 83.0668 130.246 83.6049 130.246C84.143 130.246 84.5975 130.132 84.9682 129.905C85.3508 129.678 85.6498 129.373 85.865 128.99L87.7664 129.923C87.5751 130.389 87.2761 130.802 86.8695 131.161C86.4629 131.519 85.9786 131.8 85.4166 132.004C84.8665 132.207 84.2566 132.309 83.587 132.309ZM99.5519 132.093L93.3277 127.16V125.008H98.3501C98.7926 125.008 99.1753 124.924 99.4981 124.757C99.821 124.578 100.072 124.332 100.251 124.021C100.431 123.711 100.521 123.352 100.521 122.945C100.521 122.527 100.431 122.168 100.251 121.869C100.072 121.558 99.821 121.319 99.4981 121.151C99.1753 120.972 98.7926 120.882 98.3501 120.882H93.3277V118.73H104.036V120.237H100.987L101.597 119.752C102.027 120.123 102.362 120.577 102.601 121.116C102.84 121.642 102.96 122.252 102.96 122.945C102.96 123.83 102.757 124.589 102.35 125.223C101.956 125.845 101.411 126.323 100.718 126.658C100.024 126.993 99.2231 127.16 98.3143 127.16H95.9107L96.1438 126.479L103.139 132.093H99.5519ZM93.3277 123.681V122.192H104.036V123.681H93.3277ZM109.66 132.309C108.955 132.309 108.279 132.177 107.634 131.914C107 131.651 106.45 131.28 105.983 130.802C105.529 130.311 105.218 129.732 105.051 129.062L107.167 128.308C107.37 128.918 107.699 129.373 108.154 129.672C108.608 129.959 109.11 130.102 109.66 130.102C110.115 130.102 110.516 130.007 110.862 129.815C111.221 129.612 111.496 129.337 111.687 128.99C111.879 128.631 111.974 128.219 111.974 127.752C111.974 127.286 111.873 126.879 111.669 126.533C111.478 126.186 111.209 125.917 110.862 125.725C110.516 125.522 110.115 125.421 109.66 125.421C109.194 125.421 108.77 125.522 108.387 125.725C108.016 125.929 107.747 126.222 107.58 126.604L105.589 126.156L106.647 118.73H113.93V120.793H107.616L108.53 119.734L107.777 125.331L107.078 124.757C107.412 124.267 107.819 123.908 108.297 123.681C108.788 123.453 109.379 123.34 110.073 123.34C110.958 123.34 111.723 123.531 112.369 123.914C113.027 124.296 113.535 124.817 113.894 125.474C114.252 126.132 114.432 126.891 114.432 127.752C114.432 128.613 114.223 129.391 113.804 130.084C113.385 130.778 112.817 131.322 112.1 131.717C111.382 132.111 110.569 132.309 109.66 132.309ZM116.66 132.093V118.73H119.1V129.941H124.822V132.093H116.66ZM133.839 132.201C132.739 132.201 131.884 131.902 131.274 131.304C130.676 130.694 130.377 129.839 130.377 128.739V124.434H128.691V122.335H128.87C129.349 122.335 129.719 122.21 129.982 121.959C130.245 121.708 130.377 121.343 130.377 120.864V120.111H132.727V122.335H134.969V124.434H132.727V128.613C132.727 128.936 132.781 129.211 132.888 129.439C133.008 129.666 133.187 129.839 133.426 129.959C133.677 130.078 133.994 130.138 134.377 130.138C134.461 130.138 134.556 130.132 134.664 130.12C134.784 130.108 134.897 130.096 135.005 130.084V132.093C134.837 132.117 134.646 132.141 134.431 132.165C134.216 132.189 134.018 132.201 133.839 132.201ZM141.484 132.309C140.527 132.309 139.654 132.087 138.865 131.645C138.088 131.202 137.466 130.598 137 129.833C136.545 129.068 136.318 128.195 136.318 127.214C136.318 126.234 136.545 125.361 137 124.595C137.466 123.83 138.088 123.226 138.865 122.784C139.642 122.341 140.515 122.12 141.484 122.12C142.441 122.12 143.308 122.341 144.085 122.784C144.862 123.226 145.478 123.83 145.932 124.595C146.399 125.349 146.632 126.222 146.632 127.214C146.632 128.195 146.399 129.068 145.932 129.833C145.466 130.598 144.844 131.202 144.067 131.645C143.29 132.087 142.429 132.309 141.484 132.309ZM141.484 130.156C142.01 130.156 142.47 130.03 142.865 129.779C143.272 129.528 143.589 129.181 143.816 128.739C144.055 128.285 144.175 127.776 144.175 127.214C144.175 126.64 144.055 126.138 143.816 125.708C143.589 125.265 143.272 124.918 142.865 124.667C142.47 124.404 142.01 124.273 141.484 124.273C140.946 124.273 140.473 124.404 140.067 124.667C139.66 124.918 139.337 125.265 139.098 125.708C138.871 126.138 138.757 126.64 138.757 127.214C138.757 127.776 138.871 128.285 139.098 128.739C139.337 129.181 139.66 129.528 140.067 129.779C140.473 130.03 140.946 130.156 141.484 130.156ZM155.382 132.093L159.92 126.246L160.333 126.676C160.153 126.808 159.98 126.915 159.813 126.999C159.645 127.083 159.466 127.143 159.274 127.178C159.083 127.214 158.88 127.232 158.665 127.232C157.851 127.232 157.128 127.047 156.494 126.676C155.86 126.305 155.358 125.803 154.987 125.169C154.629 124.524 154.449 123.794 154.449 122.981C154.449 122.12 154.647 121.355 155.041 120.685C155.448 120.015 155.998 119.489 156.691 119.107C157.397 118.712 158.198 118.515 159.095 118.515C160.004 118.515 160.805 118.706 161.499 119.089C162.192 119.471 162.736 119.997 163.131 120.667C163.538 121.325 163.741 122.084 163.741 122.945C163.741 123.376 163.693 123.806 163.597 124.237C163.502 124.667 163.328 125.128 163.077 125.618C162.838 126.096 162.491 126.64 162.037 127.25L158.306 132.093H155.382ZM159.095 125.187C159.514 125.187 159.884 125.098 160.207 124.918C160.542 124.727 160.805 124.464 160.996 124.129C161.188 123.782 161.283 123.394 161.283 122.963C161.283 122.509 161.182 122.114 160.978 121.779C160.787 121.444 160.53 121.181 160.207 120.99C159.884 120.799 159.514 120.703 159.095 120.703C158.688 120.703 158.318 120.799 157.983 120.99C157.648 121.181 157.379 121.444 157.176 121.779C156.984 122.114 156.889 122.509 156.889 122.963C156.889 123.394 156.984 123.782 157.176 124.129C157.379 124.464 157.648 124.727 157.983 124.918C158.318 125.098 158.688 125.187 159.095 125.187ZM170.836 132.309C169.772 132.309 168.839 132.022 168.038 131.448C167.237 130.874 166.609 130.066 166.155 129.026C165.712 127.986 165.491 126.778 165.491 125.403C165.491 124.015 165.712 122.808 166.155 121.779C166.597 120.751 167.219 119.95 168.02 119.376C168.821 118.802 169.754 118.515 170.818 118.515C171.906 118.515 172.845 118.802 173.634 119.376C174.436 119.95 175.063 120.757 175.518 121.797C175.972 122.826 176.199 124.027 176.199 125.403C176.199 126.778 175.972 127.986 175.518 129.026C175.075 130.054 174.454 130.862 173.652 131.448C172.851 132.022 171.912 132.309 170.836 132.309ZM170.854 130.084C171.464 130.084 171.984 129.899 172.415 129.528C172.845 129.146 173.174 128.607 173.401 127.914C173.64 127.208 173.76 126.371 173.76 125.403C173.76 124.434 173.64 123.603 173.401 122.909C173.174 122.204 172.839 121.666 172.397 121.295C171.966 120.924 171.44 120.739 170.818 120.739C170.22 120.739 169.706 120.924 169.276 121.295C168.845 121.666 168.51 122.204 168.271 122.909C168.044 123.603 167.93 124.434 167.93 125.403C167.93 126.359 168.044 127.19 168.271 127.896C168.51 128.589 168.845 129.128 169.276 129.51C169.718 129.893 170.244 130.084 170.854 130.084ZM179.07 128.613V126.586H187.141V128.613H179.07ZM194.66 132.309C193.715 132.309 192.872 132.087 192.131 131.645C191.389 131.19 190.803 130.575 190.373 129.797C189.942 129.02 189.727 128.159 189.727 127.214C189.727 126.258 189.942 125.397 190.373 124.631C190.803 123.866 191.389 123.256 192.131 122.802C192.884 122.347 193.721 122.12 194.642 122.12C195.383 122.12 196.041 122.27 196.615 122.569C197.201 122.856 197.661 123.262 197.996 123.788L197.638 124.273V118.515H199.987V132.093H197.763V130.21L198.014 130.676C197.679 131.202 197.213 131.609 196.615 131.896C196.017 132.171 195.365 132.309 194.66 132.309ZM194.911 130.156C195.449 130.156 195.922 130.03 196.328 129.779C196.735 129.528 197.052 129.181 197.279 128.739C197.518 128.297 197.638 127.788 197.638 127.214C197.638 126.652 197.518 126.15 197.279 125.708C197.052 125.253 196.735 124.9 196.328 124.649C195.922 124.398 195.449 124.273 194.911 124.273C194.385 124.273 193.913 124.404 193.494 124.667C193.075 124.918 192.747 125.265 192.507 125.708C192.28 126.138 192.167 126.64 192.167 127.214C192.167 127.788 192.28 128.297 192.507 128.739C192.747 129.181 193.075 129.528 193.494 129.779C193.913 130.03 194.385 130.156 194.911 130.156ZM205.133 132.309C204.451 132.309 203.86 132.195 203.357 131.968C202.855 131.74 202.466 131.418 202.191 130.999C201.916 130.569 201.779 130.072 201.779 129.51C201.779 128.972 201.898 128.494 202.138 128.075C202.377 127.645 202.747 127.286 203.25 126.999C203.752 126.712 204.386 126.509 205.151 126.389L208.344 125.869V127.663L205.599 128.129C205.133 128.213 204.786 128.362 204.559 128.578C204.332 128.793 204.218 129.074 204.218 129.421C204.218 129.755 204.344 130.024 204.595 130.228C204.858 130.419 205.181 130.515 205.564 130.515C206.054 130.515 206.484 130.413 206.855 130.21C207.238 129.995 207.531 129.702 207.734 129.331C207.949 128.96 208.057 128.554 208.057 128.111V125.6C208.057 125.181 207.889 124.835 207.555 124.56C207.232 124.273 206.801 124.129 206.263 124.129C205.761 124.129 205.312 124.267 204.918 124.542C204.535 124.805 204.254 125.157 204.075 125.6L202.156 124.667C202.347 124.153 202.646 123.711 203.052 123.34C203.471 122.957 203.961 122.658 204.523 122.443C205.085 122.228 205.695 122.12 206.353 122.12C207.154 122.12 207.86 122.27 208.469 122.569C209.079 122.856 209.552 123.262 209.887 123.788C210.233 124.302 210.407 124.906 210.407 125.6V132.093H208.182V130.425L208.685 130.389C208.434 130.808 208.135 131.161 207.788 131.448C207.441 131.723 207.046 131.938 206.604 132.093C206.162 132.237 205.671 132.309 205.133 132.309ZM213.762 136.039C213.499 136.039 213.242 136.016 212.991 135.968C212.74 135.932 212.513 135.86 212.309 135.752V133.797C212.465 133.833 212.65 133.869 212.866 133.905C213.093 133.941 213.302 133.959 213.493 133.959C214.031 133.959 214.42 133.833 214.659 133.582C214.91 133.343 215.132 133.02 215.323 132.613L215.969 131.107L215.933 133.08L211.682 122.335H214.211L217.188 130.264H216.292L219.251 122.335H221.798L217.547 133.08C217.296 133.702 216.991 134.234 216.632 134.676C216.274 135.119 215.855 135.454 215.377 135.681C214.91 135.92 214.372 136.039 213.762 136.039ZM226.474 132.093V118.73H235.389V120.882H228.914V124.578H234.582V126.73H228.914V132.093H226.474ZM236.984 132.093V118.73H241.343C242.754 118.73 243.98 119.017 245.02 119.591C246.073 120.153 246.886 120.936 247.46 121.941C248.034 122.933 248.321 124.087 248.321 125.403C248.321 126.706 248.034 127.866 247.46 128.882C246.886 129.887 246.073 130.676 245.02 131.25C243.98 131.812 242.754 132.093 241.343 132.093H236.984ZM239.424 129.941H241.397C242.306 129.941 243.089 129.755 243.747 129.385C244.416 129.002 244.937 128.476 245.307 127.806C245.678 127.125 245.863 126.323 245.863 125.403C245.863 124.47 245.678 123.669 245.307 122.999C244.937 122.329 244.416 121.809 243.747 121.438C243.089 121.068 242.306 120.882 241.397 120.882H239.424V129.941ZM251.177 132.093V129.582H253.545V132.093H251.177Z" fill="black"/>
<path d="M41.8324 171.093V157.73H50.5321V159.344H43.5903V163.578H50.1733V165.192H43.5903V169.479H50.5321V171.093H41.8324ZM55.3473 171.309C54.7135 171.309 54.1514 171.195 53.6611 170.968C53.1828 170.729 52.8061 170.406 52.5311 169.999C52.256 169.581 52.1185 169.102 52.1185 168.564C52.1185 168.05 52.2262 167.589 52.4414 167.183C52.6686 166.764 53.0154 166.412 53.4818 166.125C53.9601 165.838 54.558 165.634 55.2755 165.515L58.863 164.923V166.322L55.6522 166.86C55.0304 166.968 54.5759 167.165 54.289 167.452C54.0139 167.739 53.8764 168.092 53.8764 168.51C53.8764 168.905 54.0318 169.234 54.3428 169.497C54.6656 169.76 55.0662 169.891 55.5446 169.891C56.1544 169.891 56.6806 169.766 57.1231 169.515C57.5775 169.252 57.9302 168.899 58.1814 168.456C58.4444 168.014 58.576 167.524 58.576 166.986V164.528C58.576 164.002 58.3787 163.578 57.984 163.255C57.6014 162.92 57.0932 162.752 56.4594 162.752C55.9093 162.752 55.419 162.896 54.9885 163.183C54.57 163.458 54.2591 163.829 54.0558 164.295L52.6028 163.542C52.7822 163.099 53.0692 162.705 53.4638 162.358C53.8585 161.999 54.3188 161.718 54.845 161.515C55.3712 161.311 55.9213 161.21 56.4952 161.21C57.2367 161.21 57.8884 161.353 58.4504 161.64C59.0125 161.915 59.4489 162.304 59.7598 162.806C60.0827 163.296 60.2442 163.87 60.2442 164.528V171.093H58.6119V169.264L58.9168 169.371C58.7135 169.754 58.4385 170.089 58.0917 170.376C57.7449 170.663 57.3383 170.89 56.8719 171.057C56.4056 171.225 55.8973 171.309 55.3473 171.309ZM62.8306 171.093V161.425H64.4629V163.201L64.2836 162.95C64.5108 162.4 64.8576 161.993 65.3239 161.73C65.7903 161.455 66.3583 161.317 67.028 161.317H67.6199V162.896H66.7769C66.0952 162.896 65.5452 163.111 65.1266 163.542C64.7081 163.96 64.4988 164.558 64.4988 165.335V171.093H62.8306ZM69.1017 171.093V161.425H70.734V163.308L70.465 163.147C70.7041 162.537 71.0868 162.065 71.6129 161.73C72.1511 161.383 72.7789 161.21 73.4964 161.21C74.1899 161.21 74.8058 161.365 75.3439 161.676C75.894 161.987 76.3245 162.418 76.6354 162.968C76.9583 163.518 77.1197 164.14 77.1197 164.833V171.093H75.4336V165.371C75.4336 164.833 75.3379 164.379 75.1466 164.008C74.9553 163.637 74.6802 163.35 74.3215 163.147C73.9747 162.932 73.5741 162.824 73.1197 162.824C72.6653 162.824 72.2587 162.932 71.8999 163.147C71.5532 163.35 71.2781 163.643 71.0748 164.026C70.8715 164.397 70.7699 164.845 70.7699 165.371V171.093H69.1017ZM89.5311 171.093L82.8046 165.981V164.367H87.5759C88.1141 164.367 88.5804 164.265 88.9751 164.062C89.3697 163.859 89.6746 163.566 89.8899 163.183C90.1051 162.8 90.2127 162.358 90.2127 161.856C90.2127 161.341 90.1051 160.899 89.8899 160.528C89.6746 160.145 89.3697 159.853 88.9751 159.649C88.5804 159.446 88.1141 159.344 87.5759 159.344H82.8046V157.73H93.0648V159.003H90.123L90.5535 158.663C90.996 159.033 91.3428 159.488 91.5939 160.026C91.857 160.564 91.9885 161.174 91.9885 161.856C91.9885 162.693 91.7972 163.422 91.4145 164.044C91.0438 164.654 90.5236 165.132 89.854 165.479C89.1963 165.814 88.419 165.981 87.5221 165.981H84.7777L84.9391 165.497L92.1858 171.093H89.5311ZM82.8046 162.483V161.21H93.0648V162.483H82.8046ZM96.753 171.093V159.255H94.2238V157.73H98.5288V171.093H96.753ZM101.378 171.093V169.874L105.073 165.873C105.802 165.096 106.382 164.456 106.813 163.954C107.255 163.452 107.578 163.004 107.782 162.609C107.985 162.214 108.086 161.796 108.086 161.353C108.086 160.624 107.871 160.062 107.441 159.667C107.01 159.273 106.442 159.075 105.737 159.075C105.019 159.075 104.409 159.284 103.907 159.703C103.405 160.11 103.058 160.69 102.867 161.443L101.27 161.03C101.426 160.313 101.713 159.691 102.131 159.165C102.55 158.639 103.07 158.232 103.692 157.945C104.314 157.658 104.995 157.515 105.737 157.515C106.55 157.515 107.261 157.676 107.871 157.999C108.493 158.31 108.977 158.746 109.324 159.308C109.683 159.87 109.862 160.522 109.862 161.264C109.862 161.754 109.761 162.232 109.557 162.699C109.354 163.165 109.055 163.661 108.66 164.187C108.266 164.702 107.752 165.299 107.118 165.981L103.817 169.569H110.149V171.093H101.378ZM112.726 173.587V172.779C113.096 172.684 113.377 172.498 113.569 172.223C113.76 171.948 113.868 171.572 113.892 171.093H113.084V168.941H114.824V170.465C114.824 171.326 114.645 172.02 114.286 172.546C113.939 173.072 113.419 173.419 112.726 173.587ZM123.844 171.093V168.008H117.279V166.555L123.808 157.73H125.494V166.555H127.234V168.008H125.494V171.093H123.844ZM118.606 167.183L118.355 166.555H123.844V159.201L124.364 159.344L118.606 167.183ZM134.457 171.309C133.393 171.309 132.46 171.022 131.659 170.448C130.87 169.862 130.254 169.054 129.811 168.026C129.369 166.986 129.148 165.778 129.148 164.403C129.148 163.027 129.369 161.826 129.811 160.797C130.254 159.757 130.87 158.95 131.659 158.376C132.448 157.802 133.375 157.515 134.439 157.515C135.504 157.515 136.43 157.802 137.22 158.376C138.009 158.95 138.625 159.757 139.067 160.797C139.522 161.826 139.749 163.027 139.749 164.403C139.749 165.778 139.528 166.986 139.085 168.026C138.643 169.066 138.021 169.874 137.22 170.448C136.43 171.022 135.51 171.309 134.457 171.309ZM134.457 169.676C135.175 169.676 135.797 169.461 136.323 169.03C136.849 168.588 137.255 167.972 137.542 167.183C137.841 166.394 137.991 165.467 137.991 164.403C137.991 163.338 137.841 162.412 137.542 161.622C137.255 160.833 136.843 160.223 136.305 159.793C135.779 159.362 135.157 159.147 134.439 159.147C133.722 159.147 133.1 159.362 132.574 159.793C132.048 160.223 131.635 160.833 131.336 161.622C131.049 162.412 130.906 163.338 130.906 164.403C130.906 165.455 131.049 166.376 131.336 167.165C131.635 167.954 132.048 168.57 132.574 169.013C133.112 169.455 133.74 169.676 134.457 169.676ZM147.437 171.309C146.373 171.309 145.44 171.022 144.639 170.448C143.85 169.862 143.234 169.054 142.792 168.026C142.349 166.986 142.128 165.778 142.128 164.403C142.128 163.027 142.349 161.826 142.792 160.797C143.234 159.757 143.85 158.95 144.639 158.376C145.428 157.802 146.355 157.515 147.419 157.515C148.484 157.515 149.41 157.802 150.2 158.376C150.989 158.95 151.605 159.757 152.047 160.797C152.502 161.826 152.729 163.027 152.729 164.403C152.729 165.778 152.508 166.986 152.065 168.026C151.623 169.066 151.001 169.874 150.2 170.448C149.41 171.022 148.49 171.309 147.437 171.309ZM147.437 169.676C148.155 169.676 148.777 169.461 149.303 169.03C149.829 168.588 150.236 167.972 150.523 167.183C150.821 166.394 150.971 165.467 150.971 164.403C150.971 163.338 150.821 162.412 150.523 161.622C150.236 160.833 149.823 160.223 149.285 159.793C148.759 159.362 148.137 159.147 147.419 159.147C146.702 159.147 146.08 159.362 145.554 159.793C145.028 160.223 144.615 160.833 144.316 161.622C144.029 162.412 143.886 163.338 143.886 164.403C143.886 165.455 144.029 166.376 144.316 167.165C144.615 167.954 145.028 168.57 145.554 169.013C146.092 169.455 146.72 169.676 147.437 169.676ZM158.298 171.093V161.425H159.93V163.398L159.697 163.093C159.936 162.483 160.319 162.017 160.845 161.694C161.371 161.371 161.963 161.21 162.621 161.21C163.374 161.21 164.05 161.419 164.648 161.838C165.258 162.256 165.676 162.806 165.904 163.488L165.437 163.506C165.688 162.752 166.113 162.184 166.711 161.802C167.309 161.407 167.972 161.21 168.702 161.21C169.371 161.21 169.975 161.365 170.513 161.676C171.064 161.987 171.5 162.418 171.823 162.968C172.146 163.518 172.307 164.14 172.307 164.833V171.093H170.621V165.371C170.621 164.833 170.525 164.379 170.334 164.008C170.143 163.637 169.88 163.35 169.545 163.147C169.222 162.932 168.839 162.824 168.397 162.824C167.966 162.824 167.578 162.932 167.231 163.147C166.896 163.35 166.627 163.643 166.424 164.026C166.232 164.397 166.137 164.845 166.137 165.371V171.093H164.451V165.371C164.451 164.833 164.355 164.379 164.164 164.008C163.972 163.637 163.709 163.35 163.374 163.147C163.051 162.932 162.669 162.824 162.226 162.824C161.796 162.824 161.407 162.932 161.06 163.147C160.726 163.35 160.457 163.643 160.253 164.026C160.062 164.397 159.966 164.845 159.966 165.371V171.093H158.298ZM179.268 171.309C178.336 171.309 177.493 171.093 176.739 170.663C175.986 170.22 175.388 169.616 174.945 168.851C174.503 168.086 174.282 167.219 174.282 166.25C174.282 165.282 174.497 164.421 174.928 163.667C175.37 162.914 175.968 162.316 176.721 161.873C177.475 161.431 178.324 161.21 179.268 161.21C180.201 161.21 181.044 161.431 181.798 161.873C182.551 162.304 183.143 162.896 183.573 163.649C184.016 164.403 184.237 165.27 184.237 166.25C184.237 167.231 184.01 168.104 183.555 168.869C183.101 169.622 182.497 170.22 181.744 170.663C181.002 171.093 180.177 171.309 179.268 171.309ZM179.268 169.694C179.866 169.694 180.404 169.545 180.883 169.246C181.373 168.947 181.756 168.534 182.031 168.008C182.318 167.482 182.461 166.896 182.461 166.25C182.461 165.592 182.318 165.012 182.031 164.51C181.756 163.996 181.373 163.589 180.883 163.291C180.404 162.98 179.866 162.824 179.268 162.824C178.659 162.824 178.108 162.98 177.618 163.291C177.14 163.589 176.757 163.996 176.47 164.51C176.183 165.012 176.04 165.592 176.04 166.25C176.04 166.896 176.183 167.482 176.47 168.008C176.757 168.534 177.14 168.947 177.618 169.246C178.108 169.545 178.659 169.694 179.268 169.694ZM186.413 171.093V161.425H188.045V163.201L187.866 162.95C188.093 162.4 188.44 161.993 188.906 161.73C189.372 161.455 189.94 161.317 190.61 161.317H191.202V162.896H190.359C189.677 162.896 189.127 163.111 188.709 163.542C188.29 163.96 188.081 164.558 188.081 165.335V171.093H186.413ZM197.132 171.309C196.2 171.309 195.368 171.087 194.639 170.645C193.91 170.202 193.336 169.598 192.917 168.833C192.499 168.056 192.289 167.189 192.289 166.232C192.289 165.264 192.493 164.403 192.899 163.649C193.318 162.896 193.88 162.304 194.585 161.873C195.303 161.431 196.104 161.21 196.989 161.21C197.706 161.21 198.34 161.341 198.89 161.604C199.452 161.856 199.925 162.202 200.307 162.645C200.702 163.075 201.001 163.572 201.204 164.134C201.419 164.684 201.527 165.258 201.527 165.856C201.527 165.987 201.515 166.137 201.491 166.304C201.479 166.459 201.461 166.609 201.437 166.752H193.509V165.317H200.469L199.679 165.963C199.787 165.341 199.727 164.785 199.5 164.295C199.273 163.805 198.938 163.416 198.496 163.129C198.053 162.842 197.551 162.699 196.989 162.699C196.427 162.699 195.913 162.842 195.446 163.129C194.98 163.416 194.615 163.829 194.352 164.367C194.101 164.893 193.999 165.521 194.047 166.25C193.999 166.956 194.107 167.578 194.37 168.116C194.645 168.642 195.028 169.054 195.518 169.353C196.02 169.64 196.564 169.784 197.15 169.784C197.796 169.784 198.34 169.634 198.783 169.335C199.225 169.036 199.584 168.654 199.859 168.187L201.258 168.905C201.067 169.347 200.768 169.754 200.361 170.125C199.966 170.483 199.494 170.77 198.944 170.986C198.406 171.201 197.802 171.309 197.132 171.309ZM209.637 171.309C209.003 171.309 208.441 171.195 207.951 170.968C207.472 170.729 207.096 170.406 206.82 169.999C206.545 169.581 206.408 169.102 206.408 168.564C206.408 168.05 206.516 167.589 206.731 167.183C206.958 166.764 207.305 166.412 207.771 166.125C208.25 165.838 208.847 165.634 209.565 165.515L213.152 164.923V166.322L209.942 166.86C209.32 166.968 208.865 167.165 208.578 167.452C208.303 167.739 208.166 168.092 208.166 168.51C208.166 168.905 208.321 169.234 208.632 169.497C208.955 169.76 209.356 169.891 209.834 169.891C210.444 169.891 210.97 169.766 211.412 169.515C211.867 169.252 212.22 168.899 212.471 168.456C212.734 168.014 212.865 167.524 212.865 166.986V164.528C212.865 164.002 212.668 163.578 212.273 163.255C211.891 162.92 211.383 162.752 210.749 162.752C210.199 162.752 209.708 162.896 209.278 163.183C208.859 163.458 208.548 163.829 208.345 164.295L206.892 163.542C207.072 163.099 207.359 162.705 207.753 162.358C208.148 161.999 208.608 161.718 209.134 161.515C209.661 161.311 210.211 161.21 210.785 161.21C211.526 161.21 212.178 161.353 212.74 161.64C213.302 161.915 213.738 162.304 214.049 162.806C214.372 163.296 214.534 163.87 214.534 164.528V171.093H212.901V169.264L213.206 169.371C213.003 169.754 212.728 170.089 212.381 170.376C212.034 170.663 211.628 170.89 211.161 171.057C210.695 171.225 210.187 171.309 209.637 171.309ZM217.12 171.093V161.425H218.752V163.308L218.483 163.147C218.722 162.537 219.105 162.065 219.631 161.73C220.169 161.383 220.797 161.21 221.515 161.21C222.208 161.21 222.824 161.365 223.362 161.676C223.912 161.987 224.343 162.418 224.654 162.968C224.977 163.518 225.138 164.14 225.138 164.833V171.093H223.452V165.371C223.452 164.833 223.356 164.379 223.165 164.008C222.974 163.637 222.699 163.35 222.34 163.147C221.993 162.932 221.592 162.824 221.138 162.824C220.684 162.824 220.277 162.932 219.918 163.147C219.571 163.35 219.296 163.643 219.093 164.026C218.89 164.397 218.788 164.845 218.788 165.371V171.093H217.12ZM227.525 171.093V161.425H229.157V163.308L228.888 163.147C229.128 162.537 229.51 162.065 230.036 161.73C230.574 161.383 231.202 161.21 231.92 161.21C232.613 161.21 233.229 161.365 233.767 161.676C234.317 161.987 234.748 162.418 235.059 162.968C235.382 163.518 235.543 164.14 235.543 164.833V171.093H233.857V165.371C233.857 164.833 233.761 164.379 233.57 164.008C233.379 163.637 233.104 163.35 232.745 163.147C232.398 162.932 231.998 162.824 231.543 162.824C231.089 162.824 230.682 162.932 230.323 163.147C229.977 163.35 229.702 163.643 229.498 164.026C229.295 164.397 229.193 164.845 229.193 165.371V171.093H227.525ZM241.356 171.309C240.663 171.309 240.035 171.147 239.473 170.824C238.923 170.501 238.492 170.053 238.181 169.479C237.882 168.893 237.733 168.223 237.733 167.47V161.425H239.401V167.291C239.401 167.769 239.497 168.187 239.688 168.546C239.891 168.905 240.166 169.186 240.513 169.389C240.872 169.593 241.279 169.694 241.733 169.694C242.187 169.694 242.588 169.593 242.935 169.389C243.293 169.186 243.569 168.893 243.76 168.51C243.963 168.128 244.065 167.673 244.065 167.147V161.425H245.751V171.093H244.119V169.21L244.388 169.371C244.16 169.981 243.772 170.459 243.222 170.806C242.684 171.141 242.062 171.309 241.356 171.309ZM251.169 171.309C250.536 171.309 249.974 171.195 249.483 170.968C249.005 170.729 248.628 170.406 248.353 169.999C248.078 169.581 247.941 169.102 247.941 168.564C247.941 168.05 248.048 167.589 248.264 167.183C248.491 166.764 248.838 166.412 249.304 166.125C249.782 165.838 250.38 165.634 251.098 165.515L254.685 164.923V166.322L251.474 166.86C250.852 166.968 250.398 167.165 250.111 167.452C249.836 167.739 249.699 168.092 249.699 168.51C249.699 168.905 249.854 169.234 250.165 169.497C250.488 169.76 250.888 169.891 251.367 169.891C251.977 169.891 252.503 169.766 252.945 169.515C253.4 169.252 253.752 168.899 254.003 168.456C254.267 168.014 254.398 167.524 254.398 166.986V164.528C254.398 164.002 254.201 163.578 253.806 163.255C253.424 162.92 252.915 162.752 252.281 162.752C251.731 162.752 251.241 162.896 250.811 163.183C250.392 163.458 250.081 163.829 249.878 164.295L248.425 163.542C248.604 163.099 248.891 162.705 249.286 162.358C249.681 161.999 250.141 161.718 250.667 161.515C251.193 161.311 251.743 161.21 252.317 161.21C253.059 161.21 253.71 161.353 254.273 161.64C254.835 161.915 255.271 162.304 255.582 162.806C255.905 163.296 256.066 163.87 256.066 164.528V171.093H254.434V169.264L254.739 169.371C254.536 169.754 254.261 170.089 253.914 170.376C253.567 170.663 253.16 170.89 252.694 171.057C252.228 171.225 251.719 171.309 251.169 171.309ZM258.653 171.093V157.515H260.321V171.093H258.653ZM262.909 171.093V157.515H264.578V171.093H262.909ZM267.686 175.039C267.471 175.039 267.256 175.022 267.04 174.986C266.825 174.95 266.622 174.89 266.431 174.806V173.317C266.562 173.341 266.724 173.365 266.915 173.389C267.118 173.425 267.315 173.443 267.507 173.443C268.069 173.443 268.493 173.317 268.78 173.066C269.079 172.827 269.36 172.409 269.623 171.811L270.233 170.358L270.197 171.811L266.072 161.425H267.883L271.094 169.676H270.556L273.749 161.425H275.597L271.238 172.241C271.034 172.755 270.771 173.222 270.449 173.64C270.138 174.071 269.755 174.412 269.301 174.663C268.846 174.914 268.308 175.039 267.686 175.039ZM277.044 171.093V168.941H278.784V171.093H277.044Z" fill="#0D3BFF"/>
<rect x="24.3436" y="213.593" width="241.514" height="69" rx="16" fill="#0D3BFF"/>
<path d="M112.798 255.593L117.408 242.229H120.565L125.175 255.593H122.52L121.569 252.723H116.403L115.435 255.593H112.798ZM117.103 250.57H120.87L118.645 243.916H119.327L117.103 250.57ZM130.814 255.808C129.845 255.808 128.972 255.587 128.195 255.144C127.43 254.69 126.826 254.08 126.383 253.315C125.941 252.537 125.72 251.664 125.72 250.696C125.72 249.727 125.941 248.86 126.383 248.095C126.826 247.33 127.43 246.726 128.195 246.283C128.972 245.841 129.845 245.62 130.814 245.62C131.507 245.62 132.153 245.745 132.751 245.996C133.349 246.235 133.863 246.57 134.294 247.001C134.736 247.419 135.053 247.922 135.244 248.508L133.182 249.404C133.002 248.914 132.697 248.519 132.267 248.221C131.848 247.922 131.364 247.772 130.814 247.772C130.3 247.772 129.839 247.898 129.433 248.149C129.038 248.4 128.727 248.747 128.5 249.189C128.273 249.632 128.159 250.14 128.159 250.714C128.159 251.288 128.273 251.796 128.5 252.238C128.727 252.681 129.038 253.028 129.433 253.279C129.839 253.53 130.3 253.656 130.814 253.656C131.376 253.656 131.866 253.506 132.285 253.207C132.703 252.908 133.002 252.508 133.182 252.005L135.244 252.938C135.053 253.488 134.742 253.984 134.312 254.427C133.881 254.857 133.367 255.198 132.769 255.449C132.171 255.688 131.519 255.808 130.814 255.808ZM141.727 255.808C140.758 255.808 139.885 255.587 139.108 255.144C138.343 254.69 137.739 254.08 137.296 253.315C136.854 252.537 136.633 251.664 136.633 250.696C136.633 249.727 136.854 248.86 137.296 248.095C137.739 247.33 138.343 246.726 139.108 246.283C139.885 245.841 140.758 245.62 141.727 245.62C142.421 245.62 143.066 245.745 143.664 245.996C144.262 246.235 144.776 246.57 145.207 247.001C145.649 247.419 145.966 247.922 146.157 248.508L144.095 249.404C143.915 248.914 143.61 248.519 143.18 248.221C142.761 247.922 142.277 247.772 141.727 247.772C141.213 247.772 140.752 247.898 140.346 248.149C139.951 248.4 139.64 248.747 139.413 249.189C139.186 249.632 139.072 250.14 139.072 250.714C139.072 251.288 139.186 251.796 139.413 252.238C139.64 252.681 139.951 253.028 140.346 253.279C140.752 253.53 141.213 253.656 141.727 253.656C142.289 253.656 142.779 253.506 143.198 253.207C143.616 252.908 143.915 252.508 144.095 252.005L146.157 252.938C145.966 253.488 145.655 253.984 145.225 254.427C144.794 254.857 144.28 255.198 143.682 255.449C143.084 255.688 142.432 255.808 141.727 255.808ZM152.568 255.808C151.564 255.808 150.685 255.581 149.931 255.126C149.178 254.672 148.592 254.056 148.174 253.279C147.755 252.502 147.546 251.641 147.546 250.696C147.546 249.715 147.755 248.848 148.174 248.095C148.604 247.33 149.184 246.726 149.914 246.283C150.655 245.841 151.48 245.62 152.389 245.62C153.154 245.62 153.824 245.745 154.398 245.996C154.984 246.247 155.48 246.594 155.887 247.037C156.293 247.479 156.604 247.987 156.819 248.561C157.035 249.123 157.142 249.733 157.142 250.391C157.142 250.558 157.13 250.732 157.106 250.911C157.094 251.09 157.065 251.246 157.017 251.377H149.483V249.584H155.689L154.577 250.427C154.685 249.877 154.655 249.386 154.488 248.956C154.332 248.525 154.069 248.185 153.698 247.934C153.34 247.682 152.903 247.557 152.389 247.557C151.899 247.557 151.462 247.682 151.079 247.934C150.697 248.173 150.404 248.531 150.201 249.01C150.009 249.476 149.937 250.044 149.985 250.714C149.937 251.312 150.015 251.844 150.218 252.31C150.434 252.765 150.745 253.117 151.151 253.369C151.57 253.62 152.048 253.745 152.586 253.745C153.124 253.745 153.579 253.632 153.949 253.404C154.332 253.177 154.631 252.872 154.846 252.49L156.748 253.422C156.556 253.889 156.257 254.301 155.851 254.66C155.444 255.019 154.96 255.3 154.398 255.503C153.848 255.706 153.238 255.808 152.568 255.808ZM158.924 259.18V245.835H161.13V247.772L160.915 247.288C161.249 246.762 161.704 246.355 162.278 246.068C162.852 245.769 163.516 245.62 164.269 245.62C165.19 245.62 166.021 245.847 166.762 246.301C167.504 246.756 168.09 247.366 168.52 248.131C168.963 248.896 169.184 249.757 169.184 250.714C169.184 251.659 168.968 252.52 168.538 253.297C168.107 254.074 167.522 254.69 166.78 255.144C166.039 255.587 165.196 255.808 164.251 255.808C163.545 255.808 162.894 255.671 162.296 255.395C161.71 255.108 161.243 254.702 160.897 254.176L161.273 253.709V259.18H158.924ZM163.982 253.656C164.52 253.656 164.998 253.53 165.417 253.279C165.835 253.028 166.158 252.681 166.386 252.238C166.625 251.796 166.744 251.288 166.744 250.714C166.744 250.14 166.625 249.638 166.386 249.207C166.158 248.765 165.835 248.418 165.417 248.167C164.998 247.904 164.52 247.772 163.982 247.772C163.468 247.772 163.001 247.898 162.583 248.149C162.176 248.4 161.853 248.753 161.614 249.207C161.387 249.65 161.273 250.152 161.273 250.714C161.273 251.288 161.387 251.796 161.614 252.238C161.853 252.681 162.176 253.028 162.583 253.279C163.001 253.53 163.468 253.656 163.982 253.656ZM175.249 255.7C174.148 255.7 173.293 255.401 172.683 254.804C172.086 254.194 171.787 253.339 171.787 252.238V247.934H170.101V245.835H170.28C170.758 245.835 171.129 245.709 171.392 245.458C171.655 245.207 171.787 244.842 171.787 244.364V243.611H174.136V245.835H176.379V247.934H174.136V252.113C174.136 252.436 174.19 252.711 174.298 252.938C174.417 253.165 174.597 253.339 174.836 253.458C175.087 253.578 175.404 253.638 175.787 253.638C175.87 253.638 175.966 253.632 176.074 253.62C176.193 253.608 176.307 253.596 176.414 253.584V255.593C176.247 255.617 176.056 255.641 175.84 255.665C175.625 255.688 175.428 255.7 175.249 255.7Z" fill="white"/>
<rect x="281.873" y="214.233" width="240.233" height="67.7188" rx="15.3594" fill="#F4F4F4"/>
<rect x="281.873" y="214.233" width="240.233" height="67.7188" rx="15.3594" stroke="#B4BBCC" stroke-width="1.28124"/>
<path d="M369.781 255.593V242.229H374.139C375.55 242.229 376.776 242.516 377.817 243.09C378.869 243.652 379.682 244.436 380.256 245.44C380.83 246.433 381.117 247.587 381.117 248.902C381.117 250.206 380.83 251.366 380.256 252.382C379.682 253.386 378.869 254.176 377.817 254.75C376.776 255.312 375.55 255.593 374.139 255.593H369.781ZM372.22 253.44H374.193C375.102 253.44 375.885 253.255 376.543 252.884C377.213 252.502 377.733 251.975 378.104 251.306C378.474 250.624 378.66 249.823 378.66 248.902C378.66 247.969 378.474 247.168 378.104 246.499C377.733 245.829 377.213 245.309 376.543 244.938C375.885 244.567 375.102 244.382 374.193 244.382H372.22V253.44ZM382.861 255.593V245.835H385.211V255.593H382.861ZM382.861 244.741V242.229H385.211V244.741H382.861ZM391.094 255.808C390.053 255.808 389.144 255.563 388.367 255.073C387.602 254.57 387.076 253.895 386.789 253.046L388.546 252.203C388.798 252.753 389.144 253.183 389.587 253.494C390.041 253.805 390.544 253.96 391.094 253.96C391.524 253.96 391.865 253.865 392.116 253.673C392.367 253.482 392.493 253.231 392.493 252.92C392.493 252.729 392.439 252.573 392.331 252.454C392.236 252.322 392.098 252.215 391.919 252.131C391.751 252.035 391.566 251.957 391.363 251.898L389.766 251.449C388.941 251.21 388.313 250.845 387.883 250.355C387.464 249.865 387.255 249.285 387.255 248.615C387.255 248.017 387.404 247.497 387.703 247.055C388.014 246.6 388.439 246.247 388.977 245.996C389.527 245.745 390.155 245.62 390.86 245.62C391.781 245.62 392.594 245.841 393.3 246.283C394.005 246.726 394.508 247.348 394.807 248.149L393.013 248.992C392.845 248.549 392.564 248.197 392.17 247.934C391.775 247.67 391.333 247.539 390.842 247.539C390.448 247.539 390.137 247.629 389.91 247.808C389.683 247.987 389.569 248.221 389.569 248.508C389.569 248.687 389.617 248.842 389.712 248.974C389.808 249.105 389.94 249.213 390.107 249.297C390.286 249.38 390.49 249.458 390.717 249.53L392.277 249.996C393.079 250.235 393.695 250.594 394.125 251.073C394.567 251.551 394.789 252.137 394.789 252.83C394.789 253.416 394.633 253.937 394.322 254.391C394.011 254.833 393.581 255.18 393.031 255.431C392.481 255.682 391.835 255.808 391.094 255.808ZM396.594 255.593V245.835H398.801V248.095L398.55 247.718C398.729 247.013 399.088 246.487 399.626 246.14C400.164 245.793 400.798 245.62 401.527 245.62C402.328 245.62 403.034 245.829 403.644 246.247C404.254 246.666 404.648 247.216 404.828 247.898L404.164 247.951C404.463 247.174 404.911 246.594 405.509 246.212C406.107 245.817 406.795 245.62 407.572 245.62C408.266 245.62 408.882 245.775 409.42 246.086C409.97 246.397 410.4 246.833 410.711 247.395C411.022 247.945 411.178 248.585 411.178 249.315V255.593H408.828V249.871C408.828 249.44 408.75 249.07 408.595 248.759C408.439 248.448 408.224 248.209 407.949 248.041C407.674 247.862 407.339 247.772 406.944 247.772C406.574 247.772 406.245 247.862 405.958 248.041C405.671 248.209 405.45 248.448 405.294 248.759C405.139 249.07 405.061 249.44 405.061 249.871V255.593H402.711V249.871C402.711 249.44 402.633 249.07 402.478 248.759C402.322 248.448 402.101 248.209 401.814 248.041C401.539 247.862 401.21 247.772 400.828 247.772C400.457 247.772 400.128 247.862 399.841 248.041C399.554 248.209 399.333 248.448 399.177 248.759C399.022 249.07 398.944 249.44 398.944 249.871V255.593H396.594ZM413.166 255.593V245.835H415.515V255.593H413.166ZM413.166 244.741V242.229H415.515V244.741H413.166ZM421.398 255.808C420.358 255.808 419.449 255.563 418.671 255.073C417.906 254.57 417.38 253.895 417.093 253.046L418.851 252.203C419.102 252.753 419.449 253.183 419.891 253.494C420.346 253.805 420.848 253.96 421.398 253.96C421.828 253.96 422.169 253.865 422.42 253.673C422.671 253.482 422.797 253.231 422.797 252.92C422.797 252.729 422.743 252.573 422.636 252.454C422.54 252.322 422.402 252.215 422.223 252.131C422.056 252.035 421.87 251.957 421.667 251.898L420.071 251.449C419.245 251.21 418.618 250.845 418.187 250.355C417.769 249.865 417.559 249.285 417.559 248.615C417.559 248.017 417.709 247.497 418.008 247.055C418.319 246.6 418.743 246.247 419.281 245.996C419.831 245.745 420.459 245.62 421.165 245.62C422.086 245.62 422.899 245.841 423.604 246.283C424.31 246.726 424.812 247.348 425.111 248.149L423.317 248.992C423.15 248.549 422.869 248.197 422.474 247.934C422.08 247.67 421.637 247.539 421.147 247.539C420.752 247.539 420.441 247.629 420.214 247.808C419.987 247.987 419.873 248.221 419.873 248.508C419.873 248.687 419.921 248.842 420.017 248.974C420.112 249.105 420.244 249.213 420.411 249.297C420.591 249.38 420.794 249.458 421.021 249.53L422.582 249.996C423.383 250.235 423.999 250.594 424.429 251.073C424.872 251.551 425.093 252.137 425.093 252.83C425.093 253.416 424.938 253.937 424.627 254.391C424.316 254.833 423.885 255.18 423.335 255.431C422.785 255.682 422.139 255.808 421.398 255.808ZM430.612 255.808C429.571 255.808 428.663 255.563 427.885 255.073C427.12 254.57 426.594 253.895 426.307 253.046L428.065 252.203C428.316 252.753 428.663 253.183 429.105 253.494C429.56 253.805 430.062 253.96 430.612 253.96C431.042 253.96 431.383 253.865 431.634 253.673C431.885 253.482 432.011 253.231 432.011 252.92C432.011 252.729 431.957 252.573 431.85 252.454C431.754 252.322 431.616 252.215 431.437 252.131C431.27 252.035 431.084 251.957 430.881 251.898L429.284 251.449C428.459 251.21 427.832 250.845 427.401 250.355C426.983 249.865 426.773 249.285 426.773 248.615C426.773 248.017 426.923 247.497 427.222 247.055C427.533 246.6 427.957 246.247 428.495 245.996C429.045 245.745 429.673 245.62 430.379 245.62C431.299 245.62 432.113 245.841 432.818 246.283C433.524 246.726 434.026 247.348 434.325 248.149L432.531 248.992C432.364 248.549 432.083 248.197 431.688 247.934C431.293 247.67 430.851 247.539 430.361 247.539C429.966 247.539 429.655 247.629 429.428 247.808C429.201 247.987 429.087 248.221 429.087 248.508C429.087 248.687 429.135 248.842 429.231 248.974C429.326 249.105 429.458 249.213 429.625 249.297C429.805 249.38 430.008 249.458 430.235 249.53L431.796 249.996C432.597 250.235 433.213 250.594 433.643 251.073C434.086 251.551 434.307 252.137 434.307 252.83C434.307 253.416 434.151 253.937 433.841 254.391C433.53 254.833 433.099 255.18 432.549 255.431C431.999 255.682 431.353 255.808 430.612 255.808Z" fill="#25253C"/>
<defs>
<linearGradient id="paint0_linear_1476_1829" x1="545.809" y1="153.468" x2="1.28125" y2="153.468" gradientUnits="userSpaceOnUse">
<stop stop-color="white"/>
<stop offset="1" stop-color="#ECEDFF"/>
</linearGradient>
</defs>
</svg>
