<svg width="73" height="26" viewBox="0 0 73 26" fill="none" xmlns="http://www.w3.org/2000/svg">
<path d="M5.45163 0.477547C5.82998 0.0595176 6.42656 0.0198387 6.96221 0C7.3604 0.0198387 7.77701 0.0396789 8.1752 0.158711C8.29424 0.218227 8.49262 0.257903 8.49262 0.436452C8.35375 0.714194 8.03492 0.775126 7.81669 0.913997C6.94237 1.43122 6.06663 1.92861 5.2915 2.5847C5.31134 2.28712 5.25183 1.98812 5.27166 1.69054C5.27166 1.27251 5.15263 0.794967 5.45163 0.477547Z" fill="white"/>
<path d="M9.24901 0.894109C9.98446 0.476079 10.88 0.7354 11.5361 1.17185C11.7147 1.29088 11.8748 1.53036 11.7147 1.70891C11.4965 1.96682 11.1776 2.10711 10.8602 2.18646C8.85224 2.7632 6.94347 3.73671 5.2926 5.00922C5.2926 4.6918 5.2926 4.37297 5.2926 4.03429C6.42483 2.80288 7.81637 1.80952 9.24901 0.894109Z" fill="white"/>
<path d="M12.5484 2.0083C12.9664 1.84959 13.4227 2.02814 13.7415 2.28604C13.9796 2.46459 14.2389 2.62471 14.4571 2.8231C14.6159 2.96197 14.7349 3.22129 14.596 3.41968C14.3778 3.7371 13.9598 3.83771 13.6211 3.9369C10.6779 4.91183 7.77574 6.12341 5.25056 7.97266C5.23072 7.65524 5.23072 7.3364 5.19104 7.01899C6.54291 5.46873 8.27313 4.29542 10.0629 3.28081C10.8975 2.84294 11.7123 2.42633 12.5484 2.0083Z" fill="white"/>
<path d="M15.0353 4.03598C15.3938 3.89711 15.87 3.87727 16.169 4.15501C16.4269 4.41291 16.6862 4.6524 16.9441 4.89046C17.1028 5.06901 17.2828 5.32833 17.1822 5.58623C17.0433 5.90365 16.7046 6.04394 16.4269 6.14313C13.9414 6.89842 11.4757 7.71322 9.15031 8.84686C7.79844 9.50296 6.48625 10.2781 5.29309 11.2133C5.29309 10.9356 5.27325 10.6366 5.27325 10.3589C6.52593 8.8086 8.17538 7.61545 9.86592 6.60084C11.5154 5.62732 13.2654 4.81111 15.0353 4.03598Z" fill="white"/>
<path d="M16.942 6.60073C17.2197 6.4817 17.5187 6.32299 17.8361 6.40234C18.2145 6.4817 18.4922 6.82037 18.6708 7.15763C18.889 7.57566 19.2277 7.95259 19.2078 8.43014C19.2078 8.78865 18.9301 9.08623 18.6311 9.24494C18.0147 9.58362 17.2991 9.68281 16.6033 9.80184C12.5477 10.4976 8.65081 12.089 5.33066 14.5135C5.33066 14.1749 5.29099 13.8574 5.29099 13.5188C6.60317 12.1074 8.17327 10.9539 9.82413 9.96055C12.0517 8.58885 14.4777 7.51614 16.942 6.60073Z" fill="white"/>
<path d="M13.8815 11.1932C13.9212 11.5107 13.9013 11.8493 13.9212 12.1682C12.5098 13.6787 10.7994 14.8917 9.00967 15.946C6.88268 17.1987 4.61539 18.192 2.30985 19.0479C2.05195 19.1471 1.81246 19.3059 1.53472 19.286C1.07701 19.3059 0.739757 18.9275 0.559791 18.5506C0.341565 18.1127 -0.0367879 17.7159 0.00288955 17.1987C0.0227283 16.8402 0.320309 16.5624 0.619307 16.4037C1.21589 16.0863 1.91166 15.9857 2.56775 15.8865C6.60493 15.2092 10.5415 13.6391 13.8815 11.1932Z" fill="white"/>
<path d="M17.1415 11.9686C17.6785 11.5704 18.3942 11.4712 19.0701 11.5307C19.3677 11.5506 19.6667 11.6101 19.9444 11.6895C20.3426 11.8085 20.7394 11.9077 21.078 12.1273C21.078 12.7041 21.078 13.2808 21.078 13.8377C20.7394 13.5798 20.3624 13.38 19.9841 13.2213C19.6057 13.0824 19.209 12.9634 18.8108 13.1023C18.6124 13.1618 18.4324 13.3602 18.4933 13.5798C18.5925 13.8179 18.8108 13.9383 19.0106 14.0573C19.5873 14.3351 20.1641 14.6142 20.6614 15.011C21.02 15.3086 21.1985 15.7861 21.1787 16.2439C21.1985 16.7611 20.9803 17.2783 20.5821 17.5957C20.0847 17.9939 19.4286 18.1923 18.8122 18.1923C17.9577 18.232 17.1018 18.0336 16.3267 17.6552C16.3267 17.0785 16.3267 16.5018 16.3267 15.925C16.7844 16.2226 17.2605 16.4422 17.7777 16.6009C18.1363 16.7001 18.533 16.6605 18.8519 16.4819C18.9709 16.4224 18.9907 16.2835 19.0304 16.1645C18.9312 15.8868 18.6322 15.7663 18.3942 15.6473C17.8571 15.429 17.3399 15.1697 16.9233 14.773C16.1665 14.0375 16.2657 12.6049 17.1415 11.9686Z" fill="white"/>
<path d="M24.4968 11.8696C25.2719 11.7704 26.1065 11.8696 26.8037 12.2479C27.6185 12.6858 28.2548 13.4808 28.3937 14.3948C28.473 15.0509 28.4532 15.7665 28.1358 16.363C27.6781 17.277 26.7442 17.9331 25.7296 18.0933C24.895 18.2321 23.9994 18.1329 23.2441 17.7149C22.5483 17.3167 21.9716 16.6606 21.7534 15.8855C21.5351 15.0509 21.6145 14.1156 22.0708 13.3802C22.6079 12.5455 23.5233 11.9886 24.4968 11.8696ZM24.6356 13.699C23.7217 14.0164 23.5218 15.3697 24.1978 16.0059C24.6555 16.4637 25.4703 16.4637 25.9082 16.0059C26.1859 15.7282 26.3262 15.33 26.2865 14.9318C26.3064 14.4543 26.0286 13.9781 25.5907 13.7585C25.3116 13.6196 24.9545 13.5998 24.6356 13.699Z" fill="white"/>
<path d="M36.4066 11.9286C38.5534 11.9286 40.7017 11.9286 42.8485 11.9286C42.8485 12.4657 42.8485 13.0028 42.8485 13.5384C42.1329 13.5384 41.4173 13.5384 40.7017 13.5384C40.7017 15.049 40.7017 16.5808 40.7017 18.0914C39.9861 18.0914 39.2506 18.0914 38.535 18.0914C38.535 16.5808 38.535 15.049 38.535 13.5384C37.8194 13.5384 37.1038 13.5384 36.408 13.5384C36.4066 12.9829 36.4066 12.4657 36.4066 11.9286Z" fill="white"/>
<path d="M43.6439 11.9286C44.3397 11.9286 45.0355 11.9286 45.7312 11.9286C45.7312 12.6839 45.7312 13.4392 45.7312 14.1945C46.5659 14.1945 47.4019 14.1945 48.2366 14.1945C48.2366 13.4392 48.2366 12.6839 48.2366 11.9286C48.9324 11.9286 49.6281 11.9286 50.3239 11.9286C50.3239 13.9961 50.3239 16.0636 50.3239 18.1325C49.6281 18.1325 48.9324 18.1325 48.2366 18.1325C48.2366 17.3772 48.2366 16.6021 48.2366 15.8454C47.4019 15.8454 46.5659 15.8454 45.7312 15.8454C45.7312 16.6007 45.7312 17.3758 45.7312 18.1325C45.0355 18.1325 44.3397 18.1325 43.6439 18.1325C43.6439 16.065 43.6439 13.9975 43.6439 11.9286Z" fill="white"/>
<path d="M29.1101 11.9883C29.8257 11.9883 30.5215 11.9883 31.2371 11.9883C31.2371 13.0228 31.2371 14.036 31.2371 15.0704C31.2371 15.368 31.2173 15.7067 31.3561 15.9844C31.4752 16.2622 31.7345 16.462 32.0122 16.5016C32.3509 16.5612 32.7477 16.5413 33.0467 16.3429C33.3442 16.1247 33.4449 15.7265 33.4449 15.368C33.4449 14.2344 33.4449 13.122 33.4449 11.9883C34.1605 11.9883 34.8562 11.9883 35.5719 11.9883C35.5719 12.9023 35.5719 13.7979 35.5719 14.6921C35.5719 15.3482 35.5917 16.0241 35.3338 16.6207C35.0957 17.2371 34.5587 17.7146 33.9224 17.9329C33.1076 18.2106 32.212 18.2304 31.3774 18.0916C30.7213 17.9725 30.0652 17.6934 29.6472 17.1577C29.2093 16.6207 29.0903 15.8852 29.1101 15.2093C29.1101 14.1564 29.1101 13.0625 29.1101 11.9883Z" fill="white"/>
<path d="M10.0639 16.8206C11.4158 16.1645 12.7279 15.3894 13.9013 14.4541C13.9013 14.7517 13.9409 15.0308 13.9211 15.3284C12.9462 16.5414 11.6949 17.5348 10.4026 18.3907C8.49379 19.6632 6.40647 20.6565 4.31916 21.5719C3.9408 21.7703 3.46467 21.8298 3.10616 21.6116C2.88793 21.4331 2.68813 21.2134 2.48974 21.015C2.31119 20.8563 2.15107 20.6976 2.05187 20.4978C1.95268 20.298 1.99236 20.0401 2.17091 19.8814C2.44865 19.6037 2.84684 19.5031 3.20535 19.384C5.53073 18.6897 7.85612 17.8947 10.0639 16.8206Z" fill="white"/>
<path d="M5.72915 21.6714C8.61144 20.7177 11.4555 19.5245 13.9013 17.6951C13.9013 18.0125 13.9806 18.3314 13.9608 18.6488C13.1262 19.6237 12.1116 20.4584 11.0374 21.174C9.72524 22.0681 8.33369 22.8249 6.92231 23.5206C6.72392 23.6397 6.52412 23.7388 6.28605 23.7388C5.98847 23.719 5.68948 23.6 5.45141 23.4002C5.17367 23.1819 4.85483 23.0218 4.63661 22.7639C4.4779 22.6052 4.45806 22.3062 4.63661 22.1475C4.93419 21.8712 5.37206 21.8117 5.72915 21.6714Z" fill="white"/>
<path d="M16.3267 18.8484C17.0026 18.8484 17.6785 18.8484 18.3545 18.8484C18.3545 20.8366 18.3545 22.8247 18.3545 24.8128C17.6785 24.8128 17.0026 24.8128 16.3267 24.8128C16.3267 22.8247 16.3267 20.8366 16.3267 18.8484Z" fill="white"/>
<path d="M19.4271 18.8484C20.0634 18.8484 20.6798 18.8484 21.3161 18.8484C22.2102 19.8432 23.086 20.8366 23.9801 21.8313C24 20.8366 23.9801 19.8432 23.9801 18.8484C24.656 18.8484 25.3518 18.8484 26.0278 18.8484C26.0278 20.8366 26.0278 22.8247 26.0278 24.8128C25.3915 24.8128 24.7751 24.8326 24.1388 24.793C23.2447 23.818 22.3888 22.8247 21.4748 21.8498C21.4748 22.8445 21.4748 23.818 21.4748 24.8128C20.7988 24.8128 20.1031 24.8128 19.4271 24.8128C19.4271 22.8247 19.4271 20.8366 19.4271 18.8484Z" fill="white"/>
<path d="M26.9828 18.8487C28.1164 18.8685 29.2487 18.809 30.3823 18.8883C31.1971 18.9478 31.9722 19.3064 32.5291 19.9029C33.0265 20.4202 33.2844 21.1556 33.2447 21.8514C33.2646 22.567 33.0067 23.2826 32.4895 23.78C31.9524 24.3766 31.1773 24.7138 30.3823 24.7748C29.2487 24.8541 28.1164 24.7946 26.9828 24.8144C26.9828 22.8249 26.9828 20.8368 26.9828 18.8487ZM29.0304 20.3791C29.0304 21.354 29.0304 22.3275 29.0304 23.2812C29.3082 23.2812 29.5873 23.2812 29.8651 23.2812C30.2831 23.2812 30.6997 23.0431 30.9392 22.6846C31.1773 22.3459 31.2169 21.8896 31.1574 21.4915C31.0781 21.0337 30.7394 20.5973 30.3029 20.4372C29.8849 20.3195 29.4485 20.3989 29.0304 20.3791Z" fill="white"/>
<path d="M33.884 18.8484C34.56 18.8484 35.216 18.8484 35.892 18.8484C35.892 20.8366 35.892 22.8247 35.892 24.8128C35.216 24.8128 34.56 24.8128 33.884 24.8128C33.884 22.8247 33.884 20.8366 33.884 18.8484Z" fill="white"/>
<path d="M38.6536 18.8484C39.4486 18.8484 40.2435 18.8484 41.0399 18.8484C41.7754 20.8366 42.5307 22.8247 43.2859 24.8128C42.6695 24.8128 42.0531 24.8128 41.4367 24.8128L41.397 24.793C41.278 24.4543 41.1589 24.1369 41.0385 23.7982C40.2237 23.7982 39.4075 23.7982 38.5728 23.7982C38.4538 24.1369 38.3348 24.4741 38.1945 24.793C38.1151 24.8326 38.0159 24.8128 37.9167 24.8128C37.3797 24.8128 36.8228 24.8128 36.2857 24.8128C37.0835 22.8445 37.8785 20.8564 38.6536 18.8484ZM39.8269 20.4582C39.569 21.0945 39.3494 21.7506 39.0716 22.3868C39.569 22.4265 40.0466 22.3868 40.5425 22.4067C40.3045 21.7506 40.065 21.1143 39.8269 20.4582Z" fill="white"/>
<path d="M43.6842 18.8683C44.3205 18.8683 44.9369 18.8683 45.5731 18.8683C46.4673 19.8631 47.3629 20.8564 48.257 21.8512C48.257 20.8564 48.257 19.8631 48.257 18.8484C48.933 18.8484 49.6288 18.8484 50.3047 18.8484C50.3047 20.8366 50.3047 22.8247 50.3047 24.8128C49.6883 24.8128 49.052 24.8128 48.4356 24.8128C47.5414 23.8379 46.6459 22.8247 45.7517 21.8299C45.7319 22.8247 45.7517 23.818 45.7517 24.8128C45.0758 24.8128 44.38 24.8128 43.7041 24.8128C43.6842 22.8247 43.6842 20.8366 43.6842 18.8683Z" fill="white"/>
<path d="M53.2878 18.8484C53.9439 18.8484 54.6198 18.8484 55.2759 18.8484C55.8526 18.8683 56.4889 18.8881 57.0061 19.2268C57.6622 19.625 57.7812 20.6382 57.2839 21.2149C57.1648 21.3538 57.0061 21.453 56.846 21.5323C57.264 21.6911 57.7005 21.9504 57.8804 22.3868C58.0788 22.904 58.059 23.5403 57.7614 24.0178C57.4638 24.4954 56.8871 24.6938 56.3699 24.7533C55.3354 24.8326 54.3222 24.7731 53.2878 24.793C53.2878 22.8247 53.2878 20.8366 53.2878 18.8484ZM54.6198 19.9226C54.6198 20.3604 54.6198 20.7771 54.6198 21.2149C54.9783 21.2149 55.3354 21.2149 55.7138 21.2149C55.9518 21.2149 56.2111 21.1157 56.3103 20.8975C56.4492 20.5588 56.3302 20.0629 55.9518 19.9835C55.514 19.8631 55.0562 19.9424 54.6198 19.9226ZM54.6198 22.2876C54.6198 22.7652 54.6198 23.2413 54.6198 23.7189C55.0577 23.7189 55.4941 23.7189 55.932 23.7189C56.17 23.699 56.4492 23.6395 56.5881 23.4411C56.727 23.203 56.7269 22.904 56.6079 22.666C56.469 22.4081 56.1502 22.3273 55.8725 22.3075C55.4743 22.2876 55.0562 22.2876 54.6198 22.2876Z" fill="white"/>
<path d="M68.2983 18.8484C68.7164 18.8484 69.133 18.8484 69.551 18.8484C69.551 20.7969 69.551 22.7453 69.551 24.6938C69.133 24.6938 68.7164 24.6938 68.2983 24.6938C68.2983 22.7652 68.2983 20.8167 68.2983 18.8484Z" fill="white"/>
<path d="M58.893 21.0943C59.5689 20.7358 60.3639 20.5771 61.139 20.6763C61.4975 20.7358 61.8943 20.8747 62.0729 21.1935C62.3308 21.6314 62.2514 22.1685 62.2713 22.6446C62.2911 23.0428 62.2514 23.4197 62.2911 23.8179C62.4101 23.9965 62.6496 23.8576 62.8083 23.8179C62.8083 24.0361 62.8282 24.2359 62.8282 24.4542C62.43 24.6327 62.0134 24.8524 61.5755 24.7716C61.3374 24.7319 61.1773 24.5335 61.1178 24.3139C60.7593 24.5916 60.303 24.7518 59.8453 24.7518C59.5278 24.7518 59.1892 24.6724 58.9709 24.4343C58.6535 24.0957 58.6124 23.5203 58.9114 23.142C59.1495 22.8444 59.5278 22.6644 59.8651 22.5256C60.2633 22.3669 60.6601 22.2677 61.0781 22.1671C61.0979 21.9687 61.0384 21.749 60.8797 21.63C60.6417 21.4514 60.3228 21.4316 60.0451 21.4713C59.627 21.5506 59.2501 21.749 58.9313 22.0282C58.893 21.7306 58.893 21.4132 58.893 21.0943ZM60.0663 23.2624C59.8878 23.4807 59.8878 23.8987 60.2052 23.9979C60.5028 24.0772 60.7819 23.9384 61.0398 23.7995C61.0398 23.4608 61.0398 23.1037 61.0398 22.765C60.6827 22.9039 60.3044 22.9833 60.0663 23.2624Z" fill="white"/>
<path d="M8.27436 23.5008C10.3022 22.9241 12.2308 21.9506 13.9015 20.6582C13.9015 20.9756 13.9015 21.2945 13.9015 21.6119C12.9265 22.7058 11.7546 23.5802 10.5615 24.395C10.2441 24.5934 9.94507 24.8725 9.54688 24.9519C9.08917 25.0709 8.5932 24.9717 8.15533 24.7733C7.89743 24.6543 7.61827 24.5353 7.45956 24.3156C7.36036 24.1767 7.43972 23.9769 7.55875 23.8777C7.77698 23.6992 8.01646 23.5802 8.27436 23.5008Z" fill="white"/>
<path d="M64.6006 21.2744C64.9393 20.9357 65.3955 20.7175 65.8929 20.6977C66.2911 20.6778 66.7077 20.777 66.9671 21.0959C67.2646 21.4345 67.3256 21.9107 67.3057 22.3485C67.3057 23.1237 67.3057 23.9186 67.3057 24.6952C66.8877 24.6952 66.4711 24.6952 66.0729 24.6952C66.0729 23.8804 66.0729 23.0443 66.0729 22.2295C66.0729 21.9716 65.9737 21.6131 65.6945 21.5337C65.2368 21.4147 64.8202 21.7916 64.6204 22.1502C64.6006 22.9848 64.6204 23.8407 64.6204 24.6753C64.2222 24.6753 63.8255 24.6753 63.4273 24.6753C63.4273 23.3631 63.4273 22.0708 63.4273 20.7586C63.8255 20.7586 64.2222 20.7586 64.6204 20.7586C64.6006 20.9556 64.6006 21.1143 64.6006 21.2744Z" fill="white"/>
<path d="M71.0227 20.777C71.5201 20.777 72.0373 20.777 72.5333 20.777C72.0359 21.3935 71.5186 22.0099 71.0227 22.6461C71.1219 22.8445 71.3004 23.0245 71.4209 23.203C71.7992 23.7004 72.1762 24.2176 72.5545 24.7136C72.077 24.7136 71.6008 24.7136 71.1034 24.7136C70.5862 24.0377 70.069 23.3419 69.5532 22.666C70.0676 22.0496 70.5451 21.4133 71.0227 20.777Z" fill="white"/>
<path d="M12.5094 24.1171C12.9869 23.8195 13.4631 23.5007 13.9009 23.1223C13.9009 23.6594 13.9208 24.2163 13.9208 24.7533C13.9009 25.1515 13.5821 25.4491 13.225 25.5681C12.7276 25.7467 12.1707 25.7269 11.6351 25.6673C11.3375 25.6277 11.0187 25.6277 10.7806 25.4491C10.7012 25.4094 10.7012 25.3102 10.7012 25.2309C10.7806 25.1515 10.8798 25.0722 10.979 25.0127C11.5146 24.7335 12.012 24.4161 12.5094 24.1171Z" fill="white"/>
</svg>
