<svg width="383" height="40" viewBox="0 0 383 40" fill="none" xmlns="http://www.w3.org/2000/svg">
<path d="M6.09887 17L1.92156 12.6795L6.01532 8.71699H7.47142L3.0554 12.9659V12.3453L7.59077 17H6.09887ZM0.978684 17V8.71699H2.10059V17H0.978684ZM8.74866 17V11.3308H9.82283V17H8.74866ZM9.28575 10.197C9.08683 10.197 8.92371 10.1333 8.79641 10.006C8.6691 9.87073 8.60544 9.70363 8.60544 9.50471C8.60544 9.31375 8.6691 9.15462 8.79641 9.02731C8.92371 8.89204 9.08683 8.82441 9.28575 8.82441C9.48467 8.82441 9.64778 8.89204 9.77509 9.02731C9.9024 9.15462 9.96605 9.31375 9.96605 9.50471C9.96605 9.70363 9.9024 9.87073 9.77509 10.006C9.64778 10.1333 9.48467 10.197 9.28575 10.197ZM13.9958 17.1194C13.4388 17.1194 12.9335 16.9881 12.48 16.7255C12.0344 16.4629 11.6803 16.1088 11.4178 15.6633C11.1631 15.2097 11.0358 14.7084 11.0358 14.1594C11.0358 13.6025 11.1631 13.1012 11.4178 12.6556C11.6803 12.21 12.0344 11.8599 12.48 11.6053C12.9335 11.3427 13.4388 11.2114 13.9958 11.2114C14.4334 11.2114 14.8392 11.295 15.2131 11.4621C15.5871 11.6212 15.9094 11.8559 16.1799 12.1663L15.4638 12.8824C15.2887 12.6755 15.0739 12.5203 14.8193 12.4169C14.5726 12.3055 14.2981 12.2498 13.9958 12.2498C13.6377 12.2498 13.3194 12.3333 13.0409 12.5004C12.7625 12.6596 12.5436 12.8824 12.3845 13.1688C12.2254 13.4553 12.1458 13.7855 12.1458 14.1594C12.1458 14.5334 12.2254 14.8636 12.3845 15.15C12.5436 15.4365 12.7625 15.6633 13.0409 15.8304C13.3194 15.9974 13.6377 16.081 13.9958 16.081C14.2981 16.081 14.5726 16.0293 14.8193 15.9258C15.0739 15.8144 15.2927 15.6553 15.4757 15.4484L16.1799 16.1645C15.9173 16.4669 15.5951 16.7016 15.2131 16.8687C14.8392 17.0358 14.4334 17.1194 13.9958 17.1194ZM20.8735 17L18.2239 14.0998L20.8496 11.3308H22.1506L19.2264 14.3862L19.2742 13.7656L22.258 17H20.8735ZM17.2452 17V8.47829H18.3194V17H17.2452ZM22.9916 17V11.3308H24.0658V17H22.9916ZM23.5287 10.197C23.3298 10.197 23.1667 10.1333 23.0394 10.006C22.912 9.87073 22.8484 9.70363 22.8484 9.50471C22.8484 9.31375 22.912 9.15462 23.0394 9.02731C23.1667 8.89204 23.3298 8.82441 23.5287 8.82441C23.7276 8.82441 23.8907 8.89204 24.018 9.02731C24.1453 9.15462 24.209 9.31375 24.209 9.50471C24.209 9.70363 24.1453 9.87073 24.018 10.006C23.8907 10.1333 23.7276 10.197 23.5287 10.197ZM29.659 17V13.694C29.659 13.2643 29.5237 12.9102 29.2532 12.6317C28.9827 12.3532 28.6326 12.214 28.2029 12.214C27.9165 12.214 27.6618 12.2777 27.439 12.405C27.2163 12.5323 27.0412 12.7073 26.9139 12.9301C26.7866 13.1529 26.7229 13.4075 26.7229 13.694L26.2813 13.4433C26.2813 13.0137 26.3768 12.6317 26.5678 12.2975C26.7587 11.9634 27.0253 11.7008 27.3674 11.5098C27.7096 11.3109 28.0955 11.2114 28.5251 11.2114C28.9548 11.2114 29.3328 11.3189 29.659 11.5337C29.9932 11.7485 30.2557 12.031 30.4467 12.3811C30.6377 12.7232 30.7332 13.0892 30.7332 13.4791V17H29.659ZM25.6488 17V11.3308H26.7229V17H25.6488ZM34.5387 19.4945C33.9579 19.4945 33.4407 19.387 32.9871 19.1722C32.5415 18.9574 32.1835 18.655 31.913 18.2651L32.6052 17.561C32.8359 17.8554 33.1105 18.0781 33.4287 18.2293C33.747 18.3885 34.1249 18.468 34.5626 18.468C35.1434 18.468 35.6009 18.3129 35.9351 18.0026C36.2773 17.7002 36.4483 17.2904 36.4483 16.7732V15.3649L36.6393 14.0878L36.4483 12.8227V11.3308H37.5225V16.7732C37.5225 17.3143 37.3952 17.7877 37.1406 18.1935C36.8939 18.5993 36.5438 18.9176 36.0903 19.1483C35.6447 19.3791 35.1275 19.4945 34.5387 19.4945ZM34.5387 16.9045C34.0215 16.9045 33.556 16.7812 33.1423 16.5345C32.7365 16.2879 32.4142 15.9497 32.1755 15.52C31.9368 15.0824 31.8175 14.5931 31.8175 14.052C31.8175 13.511 31.9368 13.0296 32.1755 12.6079C32.4142 12.1782 32.7365 11.84 33.1423 11.5934C33.556 11.3388 34.0215 11.2114 34.5387 11.2114C34.9843 11.2114 35.3781 11.299 35.7203 11.474C36.0624 11.6491 36.333 11.8957 36.5319 12.214C36.7387 12.5243 36.8501 12.8903 36.8661 13.312V14.8159C36.8422 15.2296 36.7268 15.5956 36.5199 15.9139C36.321 16.2242 36.0505 16.4669 35.7083 16.6419C35.3662 16.817 34.9763 16.9045 34.5387 16.9045ZM34.7535 15.89C35.1036 15.89 35.41 15.8144 35.6725 15.6633C35.9431 15.5121 36.1499 15.3012 36.2932 15.0307C36.4364 14.7522 36.508 14.43 36.508 14.0639C36.508 13.6979 36.4324 13.3797 36.2812 13.1091C36.138 12.8306 35.9351 12.6158 35.6725 12.4646C35.41 12.3055 35.0997 12.2259 34.7416 12.2259C34.3835 12.2259 34.0692 12.3055 33.7987 12.4646C33.5282 12.6158 33.3134 12.8306 33.1542 13.1091C33.003 13.3797 32.9275 13.694 32.9275 14.052C32.9275 14.4101 33.003 14.7283 33.1542 15.0068C33.3134 15.2853 33.5282 15.5041 33.7987 15.6633C34.0772 15.8144 34.3955 15.89 34.7535 15.89ZM44.1717 17.1194C43.6147 17.1194 43.1134 16.9881 42.6679 16.7255C42.2223 16.4629 41.8682 16.1088 41.6056 15.6633C41.3431 15.2097 41.2118 14.7045 41.2118 14.1475C41.2118 13.5985 41.3431 13.1052 41.6056 12.6675C41.8682 12.222 42.2223 11.8679 42.6679 11.6053C43.1134 11.3427 43.6147 11.2114 44.1717 11.2114C44.7207 11.2114 45.218 11.3427 45.6636 11.6053C46.1171 11.8599 46.4752 12.21 46.7377 12.6556C47.0003 13.1012 47.1316 13.5985 47.1316 14.1475C47.1316 14.7045 47.0003 15.2097 46.7377 15.6633C46.4752 16.1088 46.1171 16.4629 45.6636 16.7255C45.218 16.9881 44.7207 17.1194 44.1717 17.1194ZM44.1717 16.081C44.5297 16.081 44.848 15.9974 45.1265 15.8304C45.405 15.6633 45.6238 15.4365 45.7829 15.15C45.9421 14.8556 46.0216 14.5215 46.0216 14.1475C46.0216 13.7815 45.9381 13.4553 45.771 13.1688C45.6119 12.8824 45.3931 12.6596 45.1146 12.5004C44.844 12.3333 44.5297 12.2498 44.1717 12.2498C43.8136 12.2498 43.4954 12.3333 43.2169 12.5004C42.9384 12.6596 42.7196 12.8824 42.5604 13.1688C42.4013 13.4553 42.3217 13.7815 42.3217 14.1475C42.3217 14.5215 42.4013 14.8556 42.5604 15.15C42.7196 15.4365 42.9384 15.6633 43.2169 15.8304C43.4954 15.9974 43.8136 16.081 44.1717 16.081ZM48.9787 17V10.7102C48.9787 10.2725 49.0702 9.89062 49.2532 9.56439C49.4441 9.23021 49.7067 8.96763 50.0409 8.77667C50.3751 8.57775 50.761 8.47829 51.1986 8.47829C51.6442 8.47829 52.0102 8.57377 52.2966 8.76473C52.5831 8.9557 52.7939 9.21827 52.9292 9.55245C53.0724 9.87868 53.144 10.2487 53.144 10.6624H52.3563C52.3484 10.2964 52.2489 10.006 52.0579 9.79116C51.867 9.56837 51.5805 9.45697 51.1986 9.45697C50.8246 9.45697 50.5382 9.56837 50.3393 9.79116C50.1483 10.006 50.0528 10.3044 50.0528 10.6863V17H48.9787ZM47.5823 12.3095V11.3308H55.2327V12.3095H47.5823ZM52.3563 17V10.4834C52.3563 10.0617 52.4478 9.69568 52.6308 9.38536C52.8138 9.06709 53.0645 8.81645 53.3827 8.63345C53.709 8.45044 54.0869 8.35894 54.5166 8.35894C54.8428 8.35894 55.1253 8.41464 55.364 8.52603C55.6027 8.63742 55.8215 8.80054 56.0204 9.01537L55.3162 9.70761C55.2128 9.59622 55.0974 9.51267 54.9701 9.45697C54.8428 9.39332 54.6877 9.36149 54.5047 9.36149C54.1625 9.36149 53.896 9.46095 53.705 9.65987C53.522 9.85879 53.4305 10.1333 53.4305 10.4834V17H52.3563ZM59.6564 17V8.9557H60.7306V17H59.6564ZM58.26 12.3095V11.3308H62.127V12.3095H58.26ZM67.1895 17V13.694C67.1895 13.2643 67.0542 12.9102 66.7837 12.6317C66.5132 12.3532 66.1631 12.214 65.7334 12.214C65.447 12.214 65.1923 12.2777 64.9696 12.405C64.7468 12.5323 64.5717 12.7073 64.4444 12.9301C64.3171 13.1529 64.2534 13.4075 64.2534 13.694L63.8118 13.4433C63.8118 13.0137 63.9073 12.6317 64.0983 12.2975C64.2893 11.9634 64.5558 11.7008 64.8979 11.5098C65.2401 11.3109 65.626 11.2114 66.0557 11.2114C66.4853 11.2114 66.8633 11.3069 67.1895 11.4979C67.5237 11.6888 67.7863 11.9554 67.9772 12.2975C68.1682 12.6397 68.2637 13.0335 68.2637 13.4791V17H67.1895ZM63.1793 17V8.47829H64.2534V17H63.1793ZM72.3437 17.1194C71.7788 17.1194 71.2696 16.992 70.816 16.7374C70.3625 16.4749 70.0044 16.1208 69.7419 15.6752C69.4793 15.2296 69.348 14.7244 69.348 14.1594C69.348 13.6025 69.4753 13.1012 69.7299 12.6556C69.9925 12.21 70.3426 11.8599 70.7802 11.6053C71.2258 11.3427 71.7231 11.2114 72.2721 11.2114C72.7973 11.2114 73.2587 11.3308 73.6566 11.5695C74.0624 11.8082 74.3767 12.1384 74.5995 12.5601C74.8302 12.9818 74.9456 13.4592 74.9456 13.9923C74.9456 14.0719 74.9416 14.1594 74.9336 14.2549C74.9257 14.3424 74.9098 14.4459 74.8859 14.5652H70.0999V13.6701H74.313L73.9192 14.0162C73.9192 13.6343 73.8515 13.312 73.7163 13.0495C73.581 12.7789 73.39 12.5721 73.1434 12.4288C72.8967 12.2777 72.5983 12.2021 72.2482 12.2021C71.8822 12.2021 71.56 12.2816 71.2815 12.4408C71.003 12.5999 70.7882 12.8227 70.637 13.1091C70.4858 13.3956 70.4102 13.7337 70.4102 14.1236C70.4102 14.5215 70.4898 14.8716 70.6489 15.1739C70.8081 15.4683 71.0348 15.6991 71.3292 15.8662C71.6236 16.0253 71.9618 16.1049 72.3437 16.1049C72.662 16.1049 72.9524 16.0492 73.215 15.9378C73.4855 15.8264 73.7163 15.6593 73.9072 15.4365L74.5995 16.1407C74.3289 16.4589 73.9947 16.7016 73.5969 16.8687C73.207 17.0358 72.7893 17.1194 72.3437 17.1194ZM82.6096 17V13.694C82.6096 13.2643 82.4744 12.9102 82.2038 12.6317C81.9333 12.3532 81.5832 12.214 81.1536 12.214C80.8671 12.214 80.6125 12.2777 80.3897 12.405C80.1669 12.5323 79.9919 12.7073 79.8646 12.9301C79.7372 13.1529 79.6736 13.4075 79.6736 13.694L79.232 13.4433C79.232 13.0137 79.3275 12.6317 79.5184 12.2975C79.7094 11.9634 79.976 11.7008 80.3181 11.5098C80.6602 11.3109 81.0461 11.2114 81.4758 11.2114C81.9055 11.2114 82.2834 11.3189 82.6096 11.5337C82.9438 11.7485 83.2064 12.031 83.3974 12.3811C83.5883 12.7232 83.6838 13.0892 83.6838 13.4791V17H82.6096ZM78.5994 17V11.3308H79.6736V17H78.5994ZM87.7639 17.1194C87.1989 17.1194 86.6897 16.992 86.2362 16.7374C85.7826 16.4749 85.4246 16.1208 85.162 15.6752C84.8994 15.2296 84.7681 14.7244 84.7681 14.1594C84.7681 13.6025 84.8954 13.1012 85.1501 12.6556C85.4126 12.21 85.7627 11.8599 86.2004 11.6053C86.6459 11.3427 87.1432 11.2114 87.6922 11.2114C88.2174 11.2114 88.6789 11.3308 89.0767 11.5695C89.4825 11.8082 89.7968 12.1384 90.0196 12.5601C90.2504 12.9818 90.3657 13.4592 90.3657 13.9923C90.3657 14.0719 90.3617 14.1594 90.3538 14.2549C90.3458 14.3424 90.3299 14.4459 90.3061 14.5652H85.52V13.6701H89.7332L89.3393 14.0162C89.3393 13.6343 89.2717 13.312 89.1364 13.0495C89.0011 12.7789 88.8102 12.5721 88.5635 12.4288C88.3169 12.2777 88.0185 12.2021 87.6684 12.2021C87.3024 12.2021 86.9801 12.2816 86.7016 12.4408C86.4231 12.5999 86.2083 12.8227 86.0571 13.1091C85.906 13.3956 85.8304 13.7337 85.8304 14.1236C85.8304 14.5215 85.9099 14.8716 86.0691 15.1739C86.2282 15.4683 86.455 15.6991 86.7494 15.8662C87.0438 16.0253 87.3819 16.1049 87.7639 16.1049C88.0821 16.1049 88.3726 16.0492 88.6351 15.9378C88.9057 15.8264 89.1364 15.6593 89.3274 15.4365L90.0196 16.1407C89.7491 16.4589 89.4149 16.7016 89.0171 16.8687C88.6272 17.0358 88.2094 17.1194 87.7639 17.1194ZM93.0902 17L90.8464 11.3308H91.9683L93.5915 15.7468H93.2334L94.8447 11.3308H95.4653L97.0766 15.7468H96.7185L98.3417 11.3308H99.4636L97.2317 17H96.5991L94.964 12.7153H95.3579L93.7108 17H93.0902ZM1.7306 32V31.0213H4.23698C4.71439 31.0213 5.08836 30.8821 5.35889 30.6036C5.62942 30.3171 5.76469 29.975 5.76469 29.5772C5.76469 29.3066 5.70501 29.0639 5.58566 28.8491C5.46631 28.6263 5.29126 28.4513 5.06051 28.324C4.83772 28.1967 4.57515 28.133 4.27279 28.133H1.7306V27.1543H4.1057C4.50354 27.1543 4.81783 27.0509 5.04858 26.844C5.28728 26.6292 5.40663 26.3228 5.40663 25.925C5.40663 25.5272 5.2833 25.2248 5.03664 25.0179C4.78998 24.8031 4.46375 24.6957 4.05796 24.6957H1.7306V23.717H4.08183C4.62289 23.717 5.07245 23.8165 5.4305 24.0154C5.79651 24.2063 6.07102 24.461 6.25403 24.7792C6.44499 25.0975 6.54047 25.4476 6.54047 25.8295C6.54047 26.2751 6.41714 26.665 6.17048 26.9992C5.93178 27.3333 5.5777 27.5959 5.10825 27.7869L5.20373 27.4288C5.73684 27.6198 6.15059 27.9102 6.44499 28.3001C6.74735 28.682 6.89853 29.1356 6.89853 29.6607C6.89853 30.0983 6.79111 30.4922 6.57628 30.8423C6.36145 31.1924 6.05113 31.4749 5.64533 31.6897C5.2475 31.8966 4.75815 32 4.17731 32H1.7306ZM0.978684 32V23.717H2.10059V32H0.978684ZM10.8496 32.1194C10.2847 32.1194 9.77546 31.992 9.32193 31.7374C8.86839 31.4749 8.51033 31.1208 8.24776 30.6752C7.98519 30.2296 7.8539 29.7244 7.8539 29.1594C7.8539 28.6025 7.98121 28.1012 8.23583 27.6556C8.4984 27.21 8.8485 26.8599 9.28612 26.6053C9.7317 26.3427 10.229 26.2114 10.778 26.2114C11.3032 26.2114 11.7647 26.3308 12.1625 26.5695C12.5683 26.8082 12.8826 27.1384 13.1054 27.5601C13.3361 27.9818 13.4515 28.4592 13.4515 28.9923C13.4515 29.0719 13.4475 29.1594 13.4396 29.2549C13.4316 29.3424 13.4157 29.4459 13.3918 29.5652H8.60582V28.6701H12.8189L12.4251 29.0162C12.4251 28.6343 12.3574 28.312 12.2222 28.0495C12.0869 27.7789 11.8959 27.5721 11.6493 27.4288C11.4026 27.2777 11.1042 27.2021 10.7541 27.2021C10.3881 27.2021 10.0659 27.2816 9.7874 27.4408C9.50891 27.5999 9.29408 27.8227 9.1429 28.1091C8.99172 28.3956 8.91613 28.7337 8.91613 29.1236C8.91613 29.5215 8.9957 29.8716 9.15483 30.1739C9.31397 30.4683 9.54074 30.6991 9.83514 30.8662C10.1295 31.0253 10.4677 31.1049 10.8496 31.1049C11.1679 31.1049 11.4583 31.0492 11.7209 30.9378C11.9914 30.8264 12.2222 30.6593 12.4131 30.4365L13.1054 31.1407C12.8348 31.4589 12.5007 31.7016 12.1028 31.8687C11.7129 32.0358 11.2952 32.1194 10.8496 32.1194ZM15.3192 32V23.9557H16.3933V32H15.3192ZM13.9227 27.3095V26.3308H17.7897V27.3095H13.9227ZM21.0781 32.1194C20.5609 32.1194 20.0914 31.992 19.6697 31.7374C19.248 31.4749 18.9138 31.1208 18.6672 30.6752C18.4285 30.2296 18.3091 29.7283 18.3091 29.1714C18.3091 28.6144 18.4285 28.1131 18.6672 27.6675C18.9138 27.222 19.244 26.8679 19.6578 26.6053C20.0795 26.3427 20.5529 26.2114 21.0781 26.2114C21.5077 26.2114 21.8897 26.3029 22.2238 26.486C22.566 26.661 22.8405 26.9077 23.0474 27.2259C23.2542 27.5362 23.3696 27.8983 23.3935 28.312V30.0188C23.3696 30.4246 23.2542 30.7866 23.0474 31.1049C22.8484 31.4231 22.5779 31.6738 22.2358 31.8568C21.9016 32.0318 21.5157 32.1194 21.0781 32.1194ZM21.2571 31.1049C21.7902 31.1049 22.2199 30.9258 22.5461 30.5678C22.8723 30.2018 23.0354 29.7363 23.0354 29.1714C23.0354 28.7815 22.9598 28.4433 22.8087 28.1569C22.6654 27.8625 22.4586 27.6357 22.188 27.4766C21.9175 27.3095 21.6032 27.2259 21.2452 27.2259C20.8871 27.2259 20.5688 27.3095 20.2903 27.4766C20.0198 27.6437 19.805 27.8744 19.6458 28.1688C19.4947 28.4553 19.4191 28.7855 19.4191 29.1594C19.4191 29.5414 19.4947 29.8795 19.6458 30.1739C19.805 30.4604 20.0238 30.6871 20.3023 30.8542C20.5808 31.0213 20.899 31.1049 21.2571 31.1049ZM22.9638 32V30.4723L23.1667 29.0878L22.9638 27.7153V26.3308H24.0499V32H22.9638ZM30.0418 32L27.44 26.3308H28.6335L30.7221 31.1168H30.0299L32.1305 26.3308H33.2763L30.6744 32H30.0418ZM36.5965 32.1194C36.0316 32.1194 35.5223 31.992 35.0688 31.7374C34.6152 31.4749 34.2572 31.1208 33.9946 30.6752C33.732 30.2296 33.6008 29.7244 33.6008 29.1594C33.6008 28.6025 33.7281 28.1012 33.9827 27.6556C34.2453 27.21 34.5954 26.8599 35.033 26.6053C35.4786 26.3427 35.9759 26.2114 36.5249 26.2114C37.05 26.2114 37.5115 26.3308 37.9094 26.5695C38.3152 26.8082 38.6294 27.1384 38.8522 27.5601C39.083 27.9818 39.1984 28.4592 39.1984 28.9923C39.1984 29.0719 39.1944 29.1594 39.1864 29.2549C39.1785 29.3424 39.1625 29.4459 39.1387 29.5652H34.3527V28.6701H38.5658L38.1719 29.0162C38.1719 28.6343 38.1043 28.312 37.969 28.0495C37.8338 27.7789 37.6428 27.5721 37.3961 27.4288C37.1495 27.2777 36.8511 27.2021 36.501 27.2021C36.135 27.2021 35.8127 27.2816 35.5343 27.4408C35.2558 27.5999 35.0409 27.8227 34.8898 28.1091C34.7386 28.3956 34.663 28.7337 34.663 29.1236C34.663 29.5215 34.7426 29.8716 34.9017 30.1739C35.0608 30.4683 35.2876 30.6991 35.582 30.8662C35.8764 31.0253 36.2146 31.1049 36.5965 31.1049C36.9148 31.1049 37.2052 31.0492 37.4678 30.9378C37.7383 30.8264 37.969 30.6593 38.16 30.4365L38.8522 31.1407C38.5817 31.4589 38.2475 31.7016 37.8497 31.8687C37.4598 32.0358 37.0421 32.1194 36.5965 32.1194ZM40.3696 32V26.3308H41.4438V32H40.3696ZM41.4438 28.7656L41.038 28.5865C41.038 27.8625 41.2051 27.2856 41.5392 26.8559C41.8734 26.4263 42.3548 26.2114 42.9834 26.2114C43.2698 26.2114 43.5284 26.2632 43.7592 26.3666C43.9899 26.4621 44.2048 26.6252 44.4037 26.8559L43.6995 27.584C43.5801 27.4567 43.4489 27.3652 43.3056 27.3095C43.1624 27.2538 42.9953 27.2259 42.8044 27.2259C42.4065 27.2259 42.0803 27.3532 41.8257 27.6079C41.5711 27.8625 41.4438 28.2484 41.4438 28.7656ZM46.834 32.1194C46.5157 32.1194 46.2133 32.0796 45.9269 32C45.6484 31.9125 45.3898 31.7931 45.1511 31.6419C44.9124 31.4828 44.7055 31.2958 44.5305 31.081L45.2227 30.3888C45.4296 30.6434 45.6683 30.8343 45.9388 30.9616C46.2094 31.081 46.5117 31.1407 46.8459 31.1407C47.1801 31.1407 47.4387 31.085 47.6217 30.9736C47.8047 30.8542 47.8962 30.6911 47.8962 30.4842C47.8962 30.2774 47.8206 30.1182 47.6694 30.0068C47.5262 29.8875 47.3392 29.792 47.1085 29.7204C46.8777 29.6408 46.6311 29.5652 46.3685 29.4936C46.1139 29.414 45.8712 29.3146 45.6405 29.1952C45.4097 29.0759 45.2187 28.9128 45.0676 28.7059C44.9243 28.499 44.8527 28.2245 44.8527 27.8824C44.8527 27.5402 44.9363 27.2458 45.1034 26.9992C45.2705 26.7445 45.5012 26.5496 45.7956 26.4143C46.098 26.2791 46.46 26.2114 46.8817 26.2114C47.3273 26.2114 47.7212 26.291 48.0633 26.4501C48.4134 26.6013 48.6998 26.8321 48.9226 27.1424L48.2304 27.8346C48.0713 27.6277 47.8723 27.4686 47.6336 27.3572C47.4029 27.2458 47.1403 27.1901 46.8459 27.1901C46.5356 27.1901 46.2969 27.2458 46.1298 27.3572C45.9707 27.4607 45.8911 27.6079 45.8911 27.7988C45.8911 27.9898 45.9627 28.137 46.1059 28.2404C46.2491 28.3439 46.4361 28.4314 46.6669 28.503C46.9056 28.5746 47.1522 28.6502 47.4069 28.7298C47.6615 28.8014 47.9042 28.9008 48.1349 29.0281C48.3657 29.1555 48.5526 29.3265 48.6959 29.5414C48.847 29.7562 48.9226 30.0387 48.9226 30.3888C48.9226 30.9219 48.7317 31.3436 48.3497 31.6539C47.9758 31.9642 47.4705 32.1194 46.834 32.1194ZM50.1371 32V26.3308H51.2113V32H50.1371ZM50.6742 25.197C50.4753 25.197 50.3122 25.1333 50.1849 25.006C50.0576 24.8707 49.9939 24.7036 49.9939 24.5047C49.9939 24.3138 50.0576 24.1546 50.1849 24.0273C50.3122 23.892 50.4753 23.8244 50.6742 23.8244C50.8731 23.8244 51.0362 23.892 51.1635 24.0273C51.2909 24.1546 51.3545 24.3138 51.3545 24.5047C51.3545 24.7036 51.2909 24.8707 51.1635 25.006C51.0362 25.1333 50.8731 25.197 50.6742 25.197ZM55.3842 32.1194C54.8272 32.1194 54.326 31.9881 53.8804 31.7255C53.4348 31.4629 53.0807 31.1088 52.8182 30.6633C52.5556 30.2097 52.4243 29.7045 52.4243 29.1475C52.4243 28.5985 52.5556 28.1052 52.8182 27.6675C53.0807 27.222 53.4348 26.8679 53.8804 26.6053C54.326 26.3427 54.8272 26.2114 55.3842 26.2114C55.9332 26.2114 56.4305 26.3427 56.8761 26.6053C57.3296 26.8599 57.6877 27.21 57.9503 27.6556C58.2128 28.1012 58.3441 28.5985 58.3441 29.1475C58.3441 29.7045 58.2128 30.2097 57.9503 30.6633C57.6877 31.1088 57.3296 31.4629 56.8761 31.7255C56.4305 31.9881 55.9332 32.1194 55.3842 32.1194ZM55.3842 31.081C55.7423 31.081 56.0605 30.9974 56.339 30.8304C56.6175 30.6633 56.8363 30.4365 56.9955 30.15C57.1546 29.8556 57.2342 29.5215 57.2342 29.1475C57.2342 28.7815 57.1506 28.4553 56.9835 28.1688C56.8244 27.8824 56.6056 27.6596 56.3271 27.5004C56.0566 27.3333 55.7423 27.2498 55.3842 27.2498C55.0262 27.2498 54.7079 27.3333 54.4294 27.5004C54.1509 27.6596 53.9321 27.8824 53.773 28.1688C53.6138 28.4553 53.5343 28.7815 53.5343 29.1475C53.5343 29.5215 53.6138 29.8556 53.773 30.15C53.9321 30.4365 54.1509 30.6633 54.4294 30.8304C54.7079 30.9974 55.0262 31.081 55.3842 31.081ZM63.5647 32V28.694C63.5647 28.2643 63.4294 27.9102 63.1589 27.6317C62.8883 27.3532 62.5382 27.214 62.1086 27.214C61.8221 27.214 61.5675 27.2777 61.3447 27.405C61.1219 27.5323 60.9469 27.7073 60.8196 27.9301C60.6923 28.1529 60.6286 28.4075 60.6286 28.694L60.187 28.4433C60.187 28.0137 60.2825 27.6317 60.4734 27.2975C60.6644 26.9634 60.931 26.7008 61.2731 26.5098C61.6152 26.3109 62.0011 26.2114 62.4308 26.2114C62.8605 26.2114 63.2384 26.3189 63.5647 26.5337C63.8988 26.7485 64.1614 27.031 64.3524 27.3811C64.5433 27.7232 64.6388 28.0892 64.6388 28.4791V32H63.5647ZM59.5544 32V26.3308H60.6286V32H59.5544ZM70.378 32.1194C70.0597 32.1194 69.7573 32.0796 69.4709 32C69.1924 31.9125 68.9338 31.7931 68.6951 31.6419C68.4564 31.4828 68.2495 31.2958 68.0745 31.081L68.7667 30.3888C68.9736 30.6434 69.2123 30.8343 69.4828 30.9616C69.7533 31.081 70.0557 31.1407 70.3899 31.1407C70.7241 31.1407 70.9827 31.085 71.1657 30.9736C71.3487 30.8542 71.4402 30.6911 71.4402 30.4842C71.4402 30.2774 71.3646 30.1182 71.2134 30.0068C71.0702 29.8875 70.8832 29.792 70.6525 29.7204C70.4217 29.6408 70.1751 29.5652 69.9125 29.4936C69.6579 29.414 69.4152 29.3146 69.1844 29.1952C68.9537 29.0759 68.7627 28.9128 68.6116 28.7059C68.4683 28.499 68.3967 28.2245 68.3967 27.8824C68.3967 27.5402 68.4803 27.2458 68.6474 26.9992C68.8144 26.7445 69.0452 26.5496 69.3396 26.4143C69.642 26.2791 70.004 26.2114 70.4257 26.2114C70.8713 26.2114 71.2651 26.291 71.6073 26.4501C71.9574 26.6013 72.2438 26.8321 72.4666 27.1424L71.7744 27.8346C71.6152 27.6277 71.4163 27.4686 71.1776 27.3572C70.9469 27.2458 70.6843 27.1901 70.3899 27.1901C70.0796 27.1901 69.8409 27.2458 69.6738 27.3572C69.5146 27.4607 69.4351 27.6079 69.4351 27.7988C69.4351 27.9898 69.5067 28.137 69.6499 28.2404C69.7931 28.3439 69.9801 28.4314 70.2109 28.503C70.4496 28.5746 70.6962 28.6502 70.9508 28.7298C71.2055 28.8014 71.4481 28.9008 71.6789 29.0281C71.9096 29.1555 72.0966 29.3265 72.2398 29.5414C72.391 29.7562 72.4666 30.0387 72.4666 30.3888C72.4666 30.9219 72.2756 31.3436 71.8937 31.6539C71.5198 31.9642 71.0145 32.1194 70.378 32.1194ZM76.2591 32.1194C75.7021 32.1194 75.2009 31.9881 74.7553 31.7255C74.3097 31.4629 73.9556 31.1088 73.693 30.6633C73.4305 30.2097 73.2992 29.7045 73.2992 29.1475C73.2992 28.5985 73.4305 28.1052 73.693 27.6675C73.9556 27.222 74.3097 26.8679 74.7553 26.6053C75.2009 26.3427 75.7021 26.2114 76.2591 26.2114C76.8081 26.2114 77.3054 26.3427 77.751 26.6053C78.2045 26.8599 78.5626 27.21 78.8252 27.6556C79.0877 28.1012 79.219 28.5985 79.219 29.1475C79.219 29.7045 79.0877 30.2097 78.8252 30.6633C78.5626 31.1088 78.2045 31.4629 77.751 31.7255C77.3054 31.9881 76.8081 32.1194 76.2591 32.1194ZM76.2591 31.081C76.6172 31.081 76.9354 30.9974 77.2139 30.8304C77.4924 30.6633 77.7112 30.4365 77.8704 30.15C78.0295 29.8556 78.1091 29.5215 78.1091 29.1475C78.1091 28.7815 78.0255 28.4553 77.8584 28.1688C77.6993 27.8824 77.4805 27.6596 77.202 27.5004C76.9315 27.3333 76.6172 27.2498 76.2591 27.2498C75.9011 27.2498 75.5828 27.3333 75.3043 27.5004C75.0258 27.6596 74.807 27.8824 74.6479 28.1688C74.4887 28.4553 74.4092 28.7815 74.4092 29.1475C74.4092 29.5215 74.4887 29.8556 74.6479 30.15C74.807 30.4365 75.0258 30.6633 75.3043 30.8304C75.5828 30.9974 75.9011 31.081 76.2591 31.081ZM83.0193 32.1194C82.4623 32.1194 81.961 31.9881 81.5154 31.7255C81.0699 31.4629 80.7158 31.1088 80.4532 30.6633C80.1906 30.2097 80.0593 29.7045 80.0593 29.1475C80.0593 28.5985 80.1906 28.1052 80.4532 27.6675C80.7158 27.222 81.0699 26.8679 81.5154 26.6053C81.961 26.3427 82.4623 26.2114 83.0193 26.2114C83.5683 26.2114 84.0656 26.3427 84.5112 26.6053C84.9647 26.8599 85.3227 27.21 85.5853 27.6556C85.8479 28.1012 85.9792 28.5985 85.9792 29.1475C85.9792 29.7045 85.8479 30.2097 85.5853 30.6633C85.3227 31.1088 84.9647 31.4629 84.5112 31.7255C84.0656 31.9881 83.5683 32.1194 83.0193 32.1194ZM83.0193 31.081C83.3773 31.081 83.6956 30.9974 83.9741 30.8304C84.2526 30.6633 84.4714 30.4365 84.6305 30.15C84.7896 29.8556 84.8692 29.5215 84.8692 29.1475C84.8692 28.7815 84.7857 28.4553 84.6186 28.1688C84.4594 27.8824 84.2406 27.6596 83.9621 27.5004C83.6916 27.3333 83.3773 27.2498 83.0193 27.2498C82.6612 27.2498 82.3429 27.3333 82.0644 27.5004C81.786 27.6596 81.5671 27.8824 81.408 28.1688C81.2489 28.4553 81.1693 28.7815 81.1693 29.1475C81.1693 29.5215 81.2489 29.8556 81.408 30.15C81.5671 30.4365 81.786 30.6633 82.0644 30.8304C82.3429 30.9974 82.6612 31.081 83.0193 31.081ZM91.1997 32V28.694C91.1997 28.2643 91.0644 27.9102 90.7939 27.6317C90.5234 27.3532 90.1733 27.214 89.7436 27.214C89.4572 27.214 89.2025 27.2777 88.9798 27.405C88.757 27.5323 88.5819 27.7073 88.4546 27.9301C88.3273 28.1529 88.2636 28.4075 88.2636 28.694L87.822 28.4433C87.822 28.0137 87.9175 27.6317 88.1085 27.2975C88.2994 26.9634 88.566 26.7008 88.9081 26.5098C89.2503 26.3109 89.6362 26.2114 90.0659 26.2114C90.4955 26.2114 90.8735 26.3189 91.1997 26.5337C91.5339 26.7485 91.7965 27.031 91.9874 27.3811C92.1784 27.7232 92.2739 28.0892 92.2739 28.4791V32H91.1997ZM87.1895 32V26.3308H88.2636V32H87.1895Z" fill="#8D8D8D"/>
<rect x="123.25" y="0.25" width="119.5" height="39.5" rx="5.75" fill="white"/>
<rect x="123.25" y="0.25" width="119.5" height="39.5" rx="5.75" stroke="black" stroke-width="0.5"/>
<path d="M140.805 19.4617L131.09 30.0059C131.091 30.0078 131.091 30.0106 131.091 30.0125C131.39 31.1574 132.412 32 133.625 32C134.111 32 134.566 31.8656 134.957 31.6305L134.988 31.6118L145.923 25.1593L140.805 19.4617Z" fill="#EA4335"/>
<path d="M150.633 17.6662L150.624 17.6597L145.903 14.8612L140.584 19.7013L145.922 25.1582L150.618 22.3878C151.441 21.9324 152 21.045 152 20.0223C152 19.0052 151.449 18.1225 150.633 17.6662Z" fill="#FBBC04"/>
<path d="M131.089 9.99331C131.031 10.2135 131 10.4449 131 10.6838V29.3163C131 29.5552 131.031 29.7866 131.09 30.0059L141.139 19.7313L131.089 9.99331Z" fill="#4285F4"/>
<path d="M140.877 19.9999L145.904 14.8594L134.982 8.38354C134.585 8.13999 134.121 8.00003 133.626 8.00003C132.412 8.00003 131.389 8.8445 131.09 9.99037C131.09 9.9913 131.089 9.99224 131.089 9.99317L140.877 19.9999Z" fill="#34A853"/>
<path d="M166.61 11.71C166.61 12.71 166.313 13.5067 165.72 14.1C165.053 14.8067 164.177 15.16 163.09 15.16C162.05 15.16 161.17 14.8 160.45 14.08C159.73 13.36 159.37 12.4733 159.37 11.42C159.37 10.3667 159.73 9.48 160.45 8.76C161.17 8.04 162.05 7.68 163.09 7.68C163.617 7.68 164.113 7.77333 164.58 7.96C165.047 8.14667 165.43 8.41 165.73 8.75L165.07 9.41C164.85 9.14333 164.563 8.93667 164.21 8.79C163.863 8.63667 163.49 8.56 163.09 8.56C162.31 8.56 161.65 8.83 161.11 9.37C160.577 9.91667 160.31 10.6 160.31 11.42C160.31 12.24 160.577 12.9233 161.11 13.47C161.65 14.01 162.31 14.28 163.09 14.28C163.803 14.28 164.397 14.08 164.87 13.68C165.343 13.28 165.617 12.73 165.69 12.03H163.09V11.17H166.56C166.593 11.3567 166.61 11.5367 166.61 11.71ZM171.908 7.84V8.72H168.648V10.99H171.588V11.85H168.648V14.12H171.908V15H167.728V7.84H171.908ZM175.588 8.72V15H174.668V8.72H172.668V7.84H177.588V8.72H175.588ZM181.665 15H180.745V7.84H181.665V15ZM185.549 8.72V15H184.629V8.72H182.629V7.84H187.549V8.72H185.549ZM197.521 11.42C197.521 12.48 197.168 13.3667 196.461 14.08C195.748 14.8 194.874 15.16 193.841 15.16C192.801 15.16 191.928 14.8 191.221 14.08C190.514 13.3667 190.161 12.48 190.161 11.42C190.161 10.36 190.514 9.47333 191.221 8.76C191.928 8.04 192.801 7.68 193.841 7.68C194.881 7.68 195.754 8.04333 196.461 8.77C197.168 9.48333 197.521 10.3667 197.521 11.42ZM191.101 11.42C191.101 12.2467 191.361 12.93 191.881 13.47C192.408 14.01 193.061 14.28 193.841 14.28C194.621 14.28 195.271 14.01 195.791 13.47C196.318 12.9367 196.581 12.2533 196.581 11.42C196.581 10.5867 196.318 9.90333 195.791 9.37C195.271 8.83 194.621 8.56 193.841 8.56C193.061 8.56 192.408 8.83 191.881 9.37C191.361 9.91 191.101 10.5933 191.101 11.42ZM199.527 15H198.607V7.84H199.727L203.207 13.41H203.247L203.207 12.03V7.84H204.127V15H203.167L199.527 9.16H199.487L199.527 10.54V15Z" fill="black"/>
<path d="M216.518 31.4097H218.147V20.3981H216.518V31.4097ZM231.189 24.3646L229.322 29.1388H229.266L227.328 24.3646H225.573L228.479 31.0371L226.823 34.749H228.521L233 24.3646H231.189ZM221.952 30.1588C221.418 30.1588 220.674 29.8902 220.674 29.2234C220.674 28.3742 221.6 28.0483 222.401 28.0483C223.116 28.0483 223.454 28.2042 223.889 28.4165C223.762 29.4365 222.892 30.1588 221.952 30.1588ZM222.148 24.1241C220.969 24.1241 219.747 24.6482 219.242 25.8101L220.688 26.4188C220.997 25.8101 221.572 25.611 222.176 25.611C223.019 25.611 223.875 26.121 223.889 27.0283V27.1411C223.594 26.971 222.963 26.7165 222.19 26.7165C220.632 26.7165 219.045 27.5806 219.045 29.1952C219.045 30.6689 220.323 31.6184 221.755 31.6184C222.85 31.6184 223.454 31.1225 223.833 30.5411H223.889V31.3912H225.461V27.1692C225.461 25.2146 224.015 24.1241 222.148 24.1241ZM212.082 25.7053H209.765V21.9308H212.082C213.3 21.9308 213.991 22.9482 213.991 23.8176C213.991 24.6711 213.3 25.7053 212.082 25.7053ZM212.04 20.3981H208.138V31.4097H209.765V27.2379H212.04C213.845 27.2379 215.62 25.9184 215.62 23.8176C215.62 21.7168 213.845 20.3981 212.04 20.3981ZM190.758 30.1606C189.633 30.1606 188.691 29.2102 188.691 27.9047C188.691 26.5852 189.633 25.6198 190.758 25.6198C191.869 25.6198 192.741 26.5852 192.741 27.9047C192.741 29.2102 191.869 30.1606 190.758 30.1606ZM192.629 24.9812H192.572C192.206 24.5417 191.504 24.1444 190.618 24.1444C188.761 24.1444 187.06 25.7898 187.06 27.9047C187.06 30.0047 188.761 31.6369 190.618 31.6369C191.504 31.6369 192.206 31.2396 192.572 30.7851H192.629V31.3251C192.629 32.7582 191.869 33.5246 190.646 33.5246C189.647 33.5246 189.028 32.8005 188.775 32.1901L187.355 32.7864C187.763 33.78 188.846 35 190.646 35C192.558 35 194.176 33.8646 194.176 31.0978V24.3708H192.629V24.9812ZM195.301 31.4097H196.932V20.3973H195.301V31.4097ZM199.336 27.777C199.294 26.3298 200.447 25.5916 201.277 25.5916C201.924 25.5916 202.472 25.9176 202.655 26.3862L199.336 27.777ZM204.399 26.528C204.09 25.6912 203.147 24.1444 201.221 24.1444C199.308 24.1444 197.72 25.6621 197.72 27.8907C197.72 29.9906 199.294 31.6369 201.403 31.6369C203.105 31.6369 204.09 30.5869 204.498 29.9765L203.232 29.1247C202.81 29.7493 202.233 30.1606 201.403 30.1606C200.574 30.1606 199.983 29.7774 199.603 29.0261L204.567 26.9534L204.399 26.528ZM164.85 25.2939V26.883H168.618C168.506 27.777 168.211 28.4297 167.761 28.8834C167.212 29.4374 166.354 30.0479 164.85 30.0479C162.529 30.0479 160.715 28.1602 160.715 25.8189C160.715 23.4767 162.529 21.5899 164.85 21.5899C166.102 21.5899 167.016 22.0867 167.69 22.7254L168.802 21.604C167.859 20.6959 166.608 20 164.85 20C161.672 20 159 22.6117 159 25.8189C159 29.0261 161.672 31.6369 164.85 31.6369C166.565 31.6369 167.859 31.0688 168.871 30.0047C169.913 28.9547 170.236 27.4793 170.236 26.2866C170.236 25.9176 170.208 25.5775 170.151 25.2939H164.85ZM174.521 30.1606C173.396 30.1606 172.425 29.2243 172.425 27.8907C172.425 26.5421 173.396 25.6198 174.521 25.6198C175.645 25.6198 176.616 26.5421 176.616 27.8907C176.616 29.2243 175.645 30.1606 174.521 30.1606ZM174.521 24.1444C172.467 24.1444 170.794 25.7194 170.794 27.8907C170.794 30.0479 172.467 31.6369 174.521 31.6369C176.574 31.6369 178.247 30.0479 178.247 27.8907C178.247 25.7194 176.574 24.1444 174.521 24.1444ZM182.65 30.1606C181.525 30.1606 180.554 29.2243 180.554 27.8907C180.554 26.5421 181.525 25.6198 182.65 25.6198C183.775 25.6198 184.745 26.5421 184.745 27.8907C184.745 29.2243 183.775 30.1606 182.65 30.1606ZM182.65 24.1444C180.597 24.1444 178.924 25.7194 178.924 27.8907C178.924 30.0479 180.597 31.6369 182.65 31.6369C184.703 31.6369 186.376 30.0479 186.376 27.8907C186.376 25.7194 184.703 24.1444 182.65 24.1444Z" fill="black"/>
<rect x="263.25" y="0.25" width="119.5" height="39.5" rx="5.75" fill="white"/>
<rect x="263.25" y="0.25" width="119.5" height="39.5" rx="5.75" stroke="black" stroke-width="0.5"/>
<path d="M287.705 20.7631C287.717 19.8432 287.967 18.9412 288.432 18.1411C288.897 17.341 289.562 16.6688 290.365 16.187C289.855 15.4759 289.182 14.8908 288.4 14.478C287.618 14.0652 286.748 13.8361 285.859 13.809C283.964 13.6147 282.126 14.9164 281.16 14.9164C280.175 14.9164 278.688 13.8282 277.086 13.8604C276.05 13.8931 275.041 14.1872 274.156 14.7141C273.271 15.241 272.541 15.9826 272.037 16.8669C269.854 20.5573 271.482 25.9809 273.573 28.964C274.62 30.4247 275.843 32.0563 277.443 31.9985C279.009 31.9351 279.593 31.0237 281.484 31.0237C283.356 31.0237 283.905 31.9985 285.537 31.9617C287.218 31.9351 288.276 30.4945 289.286 29.0199C290.038 27.9791 290.616 26.8288 291 25.6116C290.024 25.2085 289.191 24.5338 288.605 23.6716C288.019 22.8094 287.706 21.7979 287.705 20.7631Z" fill="black"/>
<path d="M284.621 11.8471C285.537 10.7734 285.988 9.39335 285.879 8C284.479 8.14352 283.186 8.7966 282.258 9.82911C281.804 10.3335 281.456 10.9203 281.235 11.556C281.013 12.1917 280.922 12.8638 280.967 13.5338C281.667 13.5408 282.359 13.3927 282.992 13.1005C283.625 12.8084 284.182 12.3798 284.621 11.8471Z" fill="black"/>
<path d="M299.791 8.50146H301.861C303.649 8.50146 304.52 9.56494 304.52 11.4941C304.52 13.4233 303.641 14.5 301.861 14.5H299.791V8.50146ZM300.789 9.34082V13.6606H301.751C302.938 13.6606 303.496 12.9443 303.496 11.5073C303.496 10.0615 302.933 9.34082 301.751 9.34082H300.789ZM307.675 9.77588C308.888 9.77588 309.736 10.5625 309.736 11.8677V12.4697C309.736 13.8188 308.888 14.5791 307.675 14.5791C306.444 14.5791 305.605 13.8276 305.605 12.4741V11.8721C305.605 10.6021 306.458 9.77588 307.675 9.77588ZM307.679 10.5625C306.985 10.5625 306.589 11.1426 306.589 11.9204V12.439C306.589 13.2168 306.958 13.7925 307.679 13.7925C308.391 13.7925 308.756 13.2212 308.756 12.439V11.9204C308.756 11.1426 308.374 10.5625 307.679 10.5625ZM316.899 9.85498L315.677 14.5H314.684L313.713 11.0723H313.687L312.733 14.5H311.735L310.461 9.85498H311.511L312.258 13.397H312.302L313.238 9.85498H314.157L315.119 13.397H315.163L315.923 9.85498H316.899ZM317.866 14.5V9.85498H318.824V10.6899H318.872C318.991 10.3252 319.329 9.78467 320.27 9.78467C321.206 9.78467 321.834 10.3032 321.834 11.3623V14.5H320.858V11.6479C320.858 10.9404 320.489 10.6152 319.94 10.6152C319.219 10.6152 318.841 11.1689 318.841 11.9204V14.5H317.866ZM323.311 14.5V8.18506H324.286V14.5H323.311ZM327.635 9.77588C328.848 9.77588 329.696 10.5625 329.696 11.8677V12.4697C329.696 13.8188 328.848 14.5791 327.635 14.5791C326.404 14.5791 325.565 13.8276 325.565 12.4741V11.8721C325.565 10.6021 326.417 9.77588 327.635 9.77588ZM327.639 10.5625C326.945 10.5625 326.549 11.1426 326.549 11.9204V12.439C326.549 13.2168 326.918 13.7925 327.639 13.7925C328.351 13.7925 328.716 13.2212 328.716 12.439V11.9204C328.716 11.1426 328.333 10.5625 327.639 10.5625ZM332.223 14.5703C331.322 14.5703 330.702 14.0166 330.702 13.1509C330.702 12.3291 331.273 11.7754 332.346 11.7754H333.519V11.3403C333.519 10.8086 333.181 10.5581 332.645 10.5581C332.117 10.5581 331.88 10.7778 331.805 11.0854H330.878C330.935 10.3076 331.52 9.78467 332.675 9.78467C333.668 9.78467 334.49 10.1978 334.49 11.3535V14.5H333.563V13.8979H333.519C333.312 14.2539 332.908 14.5703 332.223 14.5703ZM332.526 13.8145C333.08 13.8145 333.519 13.4365 333.519 12.9312V12.4302H332.5C331.933 12.4302 331.682 12.7158 331.682 13.1025C331.682 13.5859 332.086 13.8145 332.526 13.8145ZM337.496 9.79346C338.151 9.79346 338.652 10.0835 338.832 10.5537H338.88V8.18506H339.856V14.5H338.907V13.7573H338.858C338.718 14.2275 338.16 14.5615 337.483 14.5615C336.415 14.5615 335.721 13.8013 335.721 12.5752V11.7798C335.721 10.5537 336.428 9.79346 337.496 9.79346ZM337.769 10.5933C337.118 10.5933 336.714 11.0767 336.714 11.9204V12.4302C336.714 13.2783 337.123 13.7617 337.791 13.7617C338.45 13.7617 338.88 13.2827 338.88 12.4917V11.7886C338.88 11.0723 338.41 10.5933 337.769 10.5933ZM345.213 9.77588C346.426 9.77588 347.274 10.5625 347.274 11.8677V12.4697C347.274 13.8188 346.426 14.5791 345.213 14.5791C343.982 14.5791 343.143 13.8276 343.143 12.4741V11.8721C343.143 10.6021 343.996 9.77588 345.213 9.77588ZM345.217 10.5625C344.523 10.5625 344.127 11.1426 344.127 11.9204V12.439C344.127 13.2168 344.497 13.7925 345.217 13.7925C345.929 13.7925 346.294 13.2212 346.294 12.439V11.9204C346.294 11.1426 345.912 10.5625 345.217 10.5625ZM348.531 14.5V9.85498H349.489V10.6899H349.537C349.656 10.3252 349.994 9.78467 350.935 9.78467C351.871 9.78467 352.499 10.3032 352.499 11.3623V14.5H351.523V11.6479C351.523 10.9404 351.154 10.6152 350.605 10.6152C349.884 10.6152 349.506 11.1689 349.506 11.9204V14.5H348.531ZM356.274 9.88574V8.72559H357.228V9.88574H358.269V10.6504H357.228V13.1157C357.228 13.6211 357.417 13.7617 357.939 13.7617C358.071 13.7617 358.247 13.7529 358.322 13.7441V14.4912C358.243 14.5044 357.917 14.5308 357.698 14.5308C356.568 14.5308 356.261 14.1265 356.261 13.1948V10.6504H355.553V9.88574H356.274ZM359.5 14.5V8.18506H360.471V10.6899H360.519C360.62 10.3604 360.998 9.78467 361.93 9.78467C362.835 9.78467 363.481 10.3076 363.481 11.3667V14.5H362.51V11.6523C362.51 10.9448 362.119 10.6152 361.565 10.6152C360.866 10.6152 360.471 11.1646 360.471 11.9204V14.5H359.5ZM366.755 14.5791C365.489 14.5791 364.703 13.8013 364.703 12.4917V11.8633C364.703 10.5449 365.564 9.77588 366.698 9.77588C367.862 9.77588 368.684 10.5845 368.684 11.8633V12.4082H365.669V12.6367C365.669 13.3047 366.065 13.7969 366.75 13.7969C367.26 13.7969 367.612 13.5552 367.678 13.2651H368.631C368.574 13.8013 368.007 14.5791 366.755 14.5791ZM365.669 11.771H367.73V11.7095C367.73 11.0107 367.322 10.5449 366.702 10.5449C366.083 10.5449 365.669 11.0107 365.669 11.7095V11.771Z" fill="black"/>
<path d="M301.206 30.5H299.176L303.307 18.5029H305.539L309.661 30.5H307.552L306.488 27.1777H302.278L301.206 30.5ZM304.432 20.5771H304.353L302.727 25.6484H306.04L304.432 20.5771ZM315.264 30.6318C314.06 30.6318 313.146 30.0605 312.654 29.208H312.584V33.585H310.633V21.21H312.531V22.5723H312.601C313.111 21.6846 314.06 21.0869 315.308 21.0869C317.391 21.0869 318.877 22.6602 318.877 25.4375V26.2637C318.877 29.0234 317.409 30.6318 315.264 30.6318ZM314.816 29.0234C316.055 29.0234 316.899 28.0303 316.899 26.1582V25.5078C316.899 23.7061 316.108 22.6777 314.781 22.6777C313.419 22.6777 312.566 23.7852 312.566 25.499V26.1582C312.566 27.916 313.427 29.0234 314.816 29.0234ZM325.183 30.6318C323.979 30.6318 323.065 30.0605 322.573 29.208H322.502V33.585H320.551V21.21H322.45V22.5723H322.52C323.03 21.6846 323.979 21.0869 325.227 21.0869C327.31 21.0869 328.795 22.6602 328.795 25.4375V26.2637C328.795 29.0234 327.328 30.6318 325.183 30.6318ZM324.735 29.0234C325.974 29.0234 326.818 28.0303 326.818 26.1582V25.5078C326.818 23.7061 326.027 22.6777 324.7 22.6777C323.337 22.6777 322.485 23.7852 322.485 25.499V26.1582C322.485 27.916 323.346 29.0234 324.735 29.0234ZM332.839 27.1689H334.79C334.878 28.2061 335.792 29.0938 337.488 29.0938C339.044 29.0938 339.967 28.3643 339.967 27.2305C339.967 26.3164 339.351 25.8242 338.068 25.5166L336.099 25.0244C334.553 24.6641 333.164 23.7412 333.164 21.79C333.164 19.4961 335.168 18.2393 337.497 18.2393C339.826 18.2393 341.768 19.4961 341.812 21.7373H339.896C339.808 20.7178 339.026 19.874 337.471 19.874C336.099 19.874 335.168 20.5244 335.168 21.6406C335.168 22.4229 335.713 22.9854 336.829 23.2402L338.789 23.7236C340.591 24.1631 341.962 25.0156 341.962 27.0547C341.962 29.4102 340.055 30.7373 337.339 30.7373C333.999 30.7373 332.883 28.7861 332.839 27.1689ZM344.339 21.21V18.9512H346.255V21.21H348.066V22.7744H346.255V27.7314C346.255 28.7422 346.633 29.0234 347.679 29.0234C347.846 29.0234 348.004 29.0234 348.119 29.0059V30.5C347.961 30.5264 347.591 30.5615 347.196 30.5615C344.937 30.5615 344.313 29.7529 344.313 27.8896V22.7744H343.03V21.21H344.339ZM353.335 21.0518C356.007 21.0518 357.457 22.9326 357.457 25.4639V26.2109C357.457 28.8301 356.016 30.6582 353.335 30.6582C350.655 30.6582 349.196 28.8301 349.196 26.2109V25.4639C349.196 22.9414 350.663 21.0518 353.335 21.0518ZM353.335 22.6162C351.885 22.6162 351.164 23.8027 351.164 25.4902V26.2021C351.164 27.8633 351.876 29.085 353.335 29.085C354.794 29.085 355.497 27.8721 355.497 26.2021V25.4902C355.497 23.7939 354.785 22.6162 353.335 22.6162ZM359.106 30.5V21.21H361.057V22.4316H361.127C361.364 21.8516 362.059 21.0781 363.351 21.0781C363.606 21.0781 363.825 21.0957 364.01 21.1309V22.8535C363.843 22.8096 363.5 22.7832 363.175 22.7832C361.61 22.7832 361.083 23.75 361.083 24.998V30.5H359.106ZM368.743 30.6582C366.256 30.6582 364.674 29.0146 364.674 26.2637V25.3232C364.674 22.7305 366.22 21.0518 368.664 21.0518C371.142 21.0518 372.636 22.792 372.636 25.4111V26.2988H366.598V26.5186C366.598 28.083 367.442 29.1201 368.769 29.1201C369.762 29.1201 370.439 28.6279 370.677 27.8281H372.531C372.25 29.3311 371.037 30.6582 368.743 30.6582ZM366.598 24.9365H370.729V24.9189C370.729 23.6006 369.912 22.5635 368.673 22.5635C367.416 22.5635 366.598 23.6006 366.598 24.9189V24.9365Z" fill="black"/>
</svg>
