<svg width="58" height="22" viewBox="0 0 58 22" fill="none" xmlns="http://www.w3.org/2000/svg">
<path d="M7.86784 18.3442C10.6267 18.3442 12.6703 16.1987 12.6703 12.8732V0H15.7357V20.8116H12.6703V18.8806C12.0042 19.594 11.2093 20.1607 10.332 20.5476C9.45477 20.9344 8.5128 21.1336 7.5613 21.1334C3.26975 21.1334 0 17.9151 0 12.9804V0.107276H3.06539V12.8732C3.06539 16.0914 5.10899 18.3442 7.86784 18.3442ZM17.8815 20.8116H20.6403V18.8806C21.6837 19.9926 23.0198 20.7518 24.477 21.0609C25.9343 21.37 27.4464 21.2148 28.819 20.6153C30.1917 20.0158 31.3625 18.9992 32.181 17.6962C32.9995 16.3932 33.4284 14.8631 33.4128 13.3023C33.4128 8.90393 30.143 5.36381 25.9537 5.36381C25.0093 5.34961 24.0717 5.53189 23.1948 5.90014C22.3179 6.26838 21.5192 6.81531 20.8447 7.50934V0H17.9836V20.8116H17.8815ZM25.6471 18.4515C24.3192 18.4515 23.0457 17.8977 22.1068 16.9119C21.1678 15.9261 20.6403 14.5891 20.6403 13.195C20.538 12.4491 20.5897 11.6888 20.7918 10.9657C20.994 10.2426 21.3418 9.5736 21.8118 9.00402C22.2818 8.43445 22.863 7.97764 23.5159 7.66455C24.1688 7.35147 24.8782 7.18943 25.596 7.18943C26.3138 7.18943 27.0232 7.35147 27.6761 7.66455C28.329 7.97764 28.9102 8.43445 29.3802 9.00402C29.8502 9.5736 30.1981 10.2426 30.4002 10.9657C30.6023 11.6888 30.654 12.4491 30.5517 13.195C30.5517 16.1987 28.3038 18.5588 25.6471 18.5588V18.4515ZM41.9959 5.36381C41.0125 5.34937 40.0364 5.54207 39.1252 5.93051C38.214 6.31895 37.3862 6.89525 36.6908 7.62534C35.9954 8.35542 35.4465 9.22448 35.0765 10.1811C34.7065 11.1378 34.523 12.1626 34.5368 13.195C34.5368 17.7006 37.8065 21.1334 42.2002 21.1334C44.7547 21.1334 46.9005 19.8461 48.331 17.9151L46.2874 16.306C45.2656 17.8079 43.8351 18.4515 42.2002 18.4515C41.0413 18.4651 39.9168 18.0382 39.0342 17.2495C38.1515 16.4609 37.5703 15.3637 37.3978 14.1605H49.1485V13.195C49.1485 8.68938 46.0831 5.36381 41.9959 5.36381ZM37.5 11.8004C37.6901 10.7206 38.2329 9.7442 39.0349 9.0393C39.8368 8.3344 40.8478 7.9451 41.8937 7.93845C43.9373 7.93845 45.7765 9.54759 46.1852 11.8004H37.5ZM57.9359 8.36755V5.57837H56.9141C55.3814 5.57837 54.2574 6.3293 53.5422 7.50934V5.68564H50.6812V20.7043H53.5422V12.1222C53.5422 9.86942 54.8705 8.36755 56.7098 8.36755H57.9359Z" fill="white"/>
</svg>
