<svg width="36" height="36" viewBox="0 0 36 36" fill="none" xmlns="http://www.w3.org/2000/svg">
<g clip-path="url(#clip0_1189_267)">
<path d="M16.7188 20.3099L11.9691 35.0416H2.59543C1.16197 35.0416 -0.000244141 33.8794 -0.000244141 32.4459V2.59567C-0.000244141 1.16221 1.16197 0 2.59543 0H3.97179L9.32763 20.3099H16.7188Z" fill="#0D3BFF"/>
<path d="M35.0417 2.59567V32.4459C35.0417 33.8794 33.8795 35.0416 32.446 35.0416H19.5273L24.2771 20.3099H16.8158L16.7723 20.1457L11.4648 0H32.446C33.8795 0 35.0417 1.16221 35.0417 2.59567Z" fill="#0D3BFF"/>
<path d="M16.816 20.3083H16.7205L16.7731 20.146L16.816 20.3083Z" fill="#0D3BFF"/>
<path d="M16.8168 20.3083H16.7212L16.7738 20.146L16.8168 20.3083Z" fill="#0D3BFF"/>
<path d="M16.8168 20.3083H16.7212L16.7738 20.146L16.8168 20.3083Z" fill="#0D3BFF"/>
<path d="M16.816 20.3083H16.7205L16.7731 20.146L16.816 20.3083Z" fill="#0D3BFF"/>
</g>
<defs>
<clipPath id="clip0_1189_267">
<rect width="35.0416" height="35.0416" rx="17.5208" fill="white"/>
</clipPath>
</defs>
</svg>
