<svg width="1300" height="300" viewBox="0 0 1300 300" fill="none" xmlns="http://www.w3.org/2000/svg">
<rect width="1280" height="300" fill="white"/>
<g opacity="0.05">
<path d="M214.787 1.56445L263.034 186.162L323.544 1.56445H379.627L284.301 299.302L226.381 299.57L262.533 187.582L206.183 187.231L157 3.25188V1.56445H214.787Z" fill="#0D3BFF"/>
<path d="M493.339 299.548C446.879 300.417 407.302 274.771 389.41 233.004C376.245 202.279 376.345 167.579 389.844 137.038C408.071 95.788 447.497 70.9278 492.654 71.5627C533.768 72.1307 569.82 93.449 588.982 129.77C606.524 163.017 607.225 202.697 591.204 236.729C573.178 275.039 536.709 298.746 493.339 299.548ZM538.229 216.129C545.997 196.515 545.73 174.629 538.563 155.716C530.778 135.2 512.317 122.77 491.719 122.703C471.354 122.636 452.676 134.148 444.54 153.946C436.404 173.743 436.221 198.353 445.142 218.569C454.063 238.784 472.657 249.627 493.356 248.926C512.652 248.274 530.277 236.245 538.229 216.146V216.129Z" fill="#0D3BFF"/>
<path d="M660.49 0.0167043L660.273 103.902C676.612 82.1824 699.984 71.306 726.396 71.5065C759.474 71.7738 788.192 88.5979 804.865 117.418C829.925 160.121 828.12 223.424 797.849 263.588C781.577 285.174 758.405 297.504 731.441 299.358C701.186 301.447 673.705 287.931 655.796 263.906L655.478 298.022L602.937 297.805L602.703 0H660.473L660.49 0.0167043ZM758.389 215.405C765.639 195.139 765.121 172.952 757.837 153.672C750.119 133.239 730.172 121.21 709.155 122.213C688.139 123.215 671.7 136.113 664.934 156.563C658.703 175.375 658.836 196.325 665.586 215.121C672.953 235.671 691.363 248.585 712.346 248.435C732.076 248.301 751.021 236.022 758.389 215.405Z" fill="#0D3BFF"/>
<path d="M950.42 298.372C900.117 305.423 853.908 280.913 833.275 235.787C817.538 201.387 818.591 161.674 836.683 128.461C856.13 92.7575 891.981 71.9906 932.611 71.5729C976.18 71.1218 1014.52 94.1776 1033.5 133.54C1050.41 168.625 1049.19 210.075 1030.06 244.057C1013.32 273.779 985.219 293.477 950.436 298.355L950.42 298.372ZM980.14 217.81C988.46 198.38 988.409 176.694 981.844 157.481C974.627 136.38 956.083 123.064 935.033 122.697C913.983 122.329 894.387 134.676 886.485 155.493C878.583 176.31 879.034 199.182 887.955 218.963C896.876 238.744 914.969 249.32 935.05 248.936C955.131 248.552 971.803 237.241 980.14 217.81Z" fill="#0D3BFF"/>
<path d="M1087.23 299.439C1061.67 301.377 1043.58 281.512 1045.49 257.27C1047.11 236.62 1062.46 222.068 1083.23 221.65C1105.43 221.216 1121.72 237.021 1122.45 259.091C1123.14 279.992 1109.5 297.751 1087.25 299.439H1087.23Z" fill="#0D3BFF"/>
</g>
</svg>
